<svg width="80" height="80" viewBox="0 0 80 80" fill="none" xmlns="http://www.w3.org/2000/svg">
<path d="M56.6667 60.0003C58.6667 60.0003 60.0001 61.3337 60.0001 63.3337C60.0001 65.3337 58.6667 66.667 56.6667 66.667C54.6667 66.667 53.3334 65.3337 53.3334 63.3337C53.3334 61.3337 54.6667 60.0003 56.6667 60.0003ZM30.3334 65.667L29.3334 63.3337L30.3334 61.0003C34.6667 50.3337 45.0001 43.3337 56.6667 43.3337C63.0001 43.3337 68.6667 45.3337 73.3334 48.667V26.667C73.3334 23.0003 70.3334 20.0003 66.6667 20.0003H53.3334V13.3337C53.3334 9.66699 50.3334 6.66699 46.6667 6.66699H33.3334C29.6667 6.66699 26.6667 9.66699 26.6667 13.3337V20.0003H13.3334C9.66675 20.0003 6.66675 23.0003 6.66675 26.667V63.3337C6.66675 67.0003 9.66675 70.0003 13.3334 70.0003H32.6667C31.6667 68.667 31.0001 67.3337 30.3334 65.667ZM33.3334 13.3337H46.6667V20.0003H33.3334V13.3337ZM56.6667 50.0003C47.6667 50.0003 39.6667 55.667 36.6667 63.3337C39.6667 71.0003 47.6667 76.667 56.6667 76.667C65.6667 76.667 73.6667 71.0003 76.6667 63.3337C73.6667 55.667 65.6667 50.0003 56.6667 50.0003ZM56.6667 71.667C52.0001 71.667 48.3334 68.0003 48.3334 63.3337C48.3334 58.667 52.0001 55.0003 56.6667 55.0003C61.3334 55.0003 65.0001 58.667 65.0001 63.3337C65.0001 68.0003 61.3334 71.667 56.6667 71.667Z" fill="#1B70E6"/>
</svg>
