<?xml version="1.0" encoding="UTF-8" standalone="no"?>
<svg
   version="1.1"
   id="mdi-gamepad-outline"
   width="24"
   height="24"
   viewBox="0 0 24 24"
   sodipodi:docname="gamepad-outline.svg"
   inkscape:version="1.1.2 (b8e25be833, 2022-02-05)"
   xmlns:inkscape="http://www.inkscape.org/namespaces/inkscape"
   xmlns:sodipodi="http://sodipodi.sourceforge.net/DTD/sodipodi-0.dtd"
   xmlns="http://www.w3.org/2000/svg"
   xmlns:svg="http://www.w3.org/2000/svg">
  <defs
     id="defs7" />
  <sodipodi:namedview
     id="namedview5"
     pagecolor="#ffffff"
     bordercolor="#666666"
     borderopacity="1.0"
     inkscape:pageshadow="2"
     inkscape:pageopacity="0.0"
     inkscape:pagecheckerboard="0"
     showgrid="false"
     inkscape:zoom="33.666667"
     inkscape:cx="12.014851"
     inkscape:cy="11.955445"
     inkscape:window-width="1920"
     inkscape:window-height="1001"
     inkscape:window-x="-9"
     inkscape:window-y="-9"
     inkscape:window-maximized="1"
     inkscape:current-layer="mdi-gamepad-outline" />
  <path
     d="M7.5 9H2V15H7.5L10.5 12L7.5 9M6 13H4V11H6V13M15 7.5V2H9V7.5L12 10.5L15 7.5M11 4H13V6H11V4M9 16.5V22H15V16.5L12 13.5L9 16.5M13 20H11V18H13V20M16.5 9L13.5 12L16.5 15H22V9H16.5M20 13H18V11H20V13Z"
     id="path2"
     style="fill:#498deb;fill-opacity:1" />
</svg>
