<svg width="59" height="64" viewBox="0 0 59 64" fill="none" xmlns="http://www.w3.org/2000/svg">
<path fill-rule="evenodd" clip-rule="evenodd" d="M55.5086 26.1118C56.7156 25.9938 57.9051 26.1477 58.6238 26.5798C58.4561 27.8882 57.016 29.0133 55.2091 29.2842C56.4318 29.4168 57.5034 29.9384 58.0397 30.6561C57.4039 31.5103 56.4318 32.1645 54.9705 32.1322C55.6597 32.3681 56.5138 33.0859 56.8501 33.94C55.996 34.608 54.9382 35.03 52.5444 34.1759C54.7481 35.0986 54.8558 35.6354 55.0125 36.417C55.0525 36.6165 55.0957 36.8319 55.1778 37.0737C55.0789 37.1141 54.9809 37.1677 54.8767 37.2246C54.4651 37.4495 53.9562 37.7274 52.913 37.4598C52.4183 37.3349 51.6958 36.7743 50.9565 36.2006C50.5942 35.9195 50.2279 35.6353 49.8825 35.3977C50.0531 35.5958 50.551 35.9874 51.0885 36.4102C51.5986 36.8115 52.1443 37.2408 52.4799 37.5593C53.0186 38.1013 52.9033 38.6352 52.7955 39.1341C52.7532 39.3298 52.7121 39.5201 52.7121 39.7034C52.5531 39.7034 52.363 39.7385 52.157 39.7766C51.6232 39.8753 50.9828 39.9936 50.5007 39.5707C50.3998 39.4795 49.7491 38.6897 49.0363 37.8247C48.1869 36.7939 47.2495 35.6562 47.0491 35.4659C47.0955 35.6128 47.5144 36.1786 48.0291 36.8739C48.628 37.6829 49.3566 38.6672 49.7793 39.3708C50.2194 40.0696 49.919 40.6017 49.6634 41.0545C49.5583 41.2405 49.4609 41.4132 49.4254 41.5785C49.2134 41.5118 48.9736 41.5103 48.73 41.5088C48.2431 41.5057 47.7414 41.5025 47.4177 40.9786C47.2726 40.7274 47.0199 40.261 46.7282 39.7225C46.1435 38.6434 45.4022 37.2749 45.0561 36.7697C45.1877 37.1264 45.7717 38.3891 46.2349 39.3906C46.5374 40.0446 46.7883 40.5871 46.828 40.693C47.0653 41.39 46.7448 41.7099 46.4012 42.0529C46.2325 42.2214 46.0581 42.3954 45.9416 42.6224C45.7518 42.4856 45.5089 42.435 45.2575 42.3826C44.7997 42.2872 44.3133 42.1859 44.0665 41.5472C43.976 41.2918 43.8345 40.7938 43.6775 40.2412C43.4236 39.348 43.1293 38.3121 42.9443 37.9279C42.9642 38.3534 43.048 38.8675 43.1411 39.4385C43.1988 39.7922 43.2601 40.1677 43.3119 40.5576C43.411 41.232 43.0217 41.4472 42.5913 41.6852C42.3696 41.8078 42.137 41.9364 41.9547 42.1369C41.802 42.0001 41.5983 41.9212 41.3907 41.8408C40.9858 41.6839 40.5657 41.5211 40.4786 40.9114C40.3431 40.0904 40.3146 38.0965 40.3146 38.0965C40.2624 38.1413 40.2203 38.1736 40.1806 38.2042C40.1166 38.2535 40.0587 38.298 39.9746 38.3821C39.8192 38.2104 39.5965 38.1151 39.3765 38.0209C39.102 37.9035 38.8319 37.7879 38.703 37.528C38.6422 37.5477 38.6066 37.5804 38.5651 37.6185C38.5387 37.6427 38.5099 37.6691 38.4708 37.6957C37.7134 38.9497 37.6489 41.3795 38.703 42.2373C38.3667 42.2373 38.0166 42.2014 37.7807 42.1018C38.2672 43.0564 39.2927 43.3918 40.4786 42.956C40.4463 43.1882 40.415 43.3236 40.3146 43.4775C41.6045 43.6774 42.1546 44.1815 42.6402 44.9997C43.0139 45.6832 42.8987 46.49 42.805 47.1453C42.7475 47.5484 42.6981 47.8941 42.7756 48.1186C42.9074 48.4863 43.3432 48.8401 44.0334 48.5185C43.697 49.9937 41.8533 49.826 41.3677 49.0041C41.2 49.6896 41.3677 50.4793 41.7179 50.7797C41.1319 50.811 40.649 50.5788 40.3422 50.1255C40.299 50.2161 40.2848 50.3294 40.2704 50.4437C40.2633 50.5001 40.2561 50.5568 40.2455 50.611C39.9451 50.447 39.7239 50.2609 39.5913 50.0932C39.4807 50.4286 39.5728 50.6682 39.7912 51.0469C40.1131 51.5214 40.7395 51.7564 41.2509 51.9483C41.3016 51.9673 41.3511 51.9859 41.3991 52.0042L41.4627 52.0279C42.6533 52.4722 43.9492 52.9558 45.1215 52.7902C45.2717 52.7902 45.9398 52.4548 46.0614 51.901C46.0402 51.9194 46.0402 51.9194 46.0402 51.9369C45.9536 51.7683 45.8725 51.5831 45.8043 51.397C45.6394 51.3647 45.5039 51.2652 45.5039 51.0469V50.9824C45.3362 50.8469 45.2358 50.6433 45.2358 50.447C45.2358 50.1927 45.3353 49.9928 45.5039 49.8251V49.7569C45.5039 49.6251 45.5721 49.5247 45.6716 49.439C45.9398 47.9482 47.1155 46.7411 48.5731 46.4048L48.5049 46.3726C48.6874 46.2049 49.055 45.7865 49.0873 45.5507C48.9164 45.6007 48.6638 45.8116 48.4623 45.9798C48.389 46.041 48.3224 46.0966 48.2691 46.1367V44.2109C48.3224 44.251 48.3889 44.3065 48.4622 44.3676C48.6639 44.5359 48.917 44.747 49.0873 44.797C49.055 44.5611 48.6874 44.1428 48.5049 43.9751H50.4648C50.2787 44.1428 49.911 44.5611 49.8825 44.797C50.0527 44.7477 50.3056 44.5364 50.5072 44.368C50.5807 44.3067 50.6473 44.251 50.7007 44.2109V46.1367C50.6474 46.0966 50.5808 46.0412 50.5075 45.98C50.3058 45.8118 50.0527 45.6007 49.8825 45.5507C49.911 45.7543 50.1469 46.0694 50.3505 46.2694C50.4003 46.2694 50.4325 46.3044 50.4325 46.3726H50.4648V46.4407C51.8902 46.8093 52.9977 47.9813 53.2659 49.439C53.3304 49.5247 53.3985 49.6251 53.3985 49.7569V49.8251C53.5662 49.9928 53.6667 50.1927 53.6667 50.447C53.6667 50.6424 53.5662 50.8469 53.3985 50.9824V51.0469C53.3985 51.2146 53.2659 51.3647 53.0982 51.397C52.83 52.1544 52.3435 52.8077 51.7041 53.2582L51.6967 53.2122C51.7216 53.4121 51.6893 53.6978 51.5216 53.8443C51.3384 54.0089 51.1054 54.0786 50.8764 54.1471C50.708 54.1975 50.5419 54.2472 50.3994 54.3335C50.2802 54.4038 50.1872 54.4995 50.0972 54.592C49.9714 54.7214 49.8515 54.8448 49.6742 54.8845C49.4517 54.9566 49.2155 54.9429 48.9801 54.9292C48.7728 54.9172 48.5663 54.9052 48.3704 54.9518C48.0889 55.0303 47.8991 55.159 47.7294 55.2741C47.5347 55.4062 47.3664 55.5203 47.1164 55.5203C46.8687 55.5203 46.7683 55.4452 46.6436 55.3519C46.5057 55.2488 46.338 55.1233 45.9084 55.0522C45.6769 54.9364 45.4295 54.7868 45.1789 54.6352C44.8489 54.4357 44.5132 54.2326 44.2001 54.0986C43.649 53.8713 43.0302 53.79 42.4053 53.7079C42.0575 53.6622 41.7078 53.6163 41.3668 53.5448C40.9971 53.4722 40.6462 53.3687 40.2949 53.2651C39.8346 53.1294 39.3737 52.9934 38.8689 52.9265C38.7022 52.8924 38.3855 52.877 38.0259 52.8596C37.298 52.8242 36.3944 52.7803 36.2032 52.5552C36.1077 52.3399 36.1916 52.2045 36.3166 52.003C36.4531 51.7829 36.6386 51.4837 36.6925 50.9151C36.6925 50.8903 36.7036 50.8146 36.7163 50.728C36.7215 50.6924 36.727 50.6549 36.7321 50.6184C36.2097 50.8395 35.632 50.7612 35.3168 50.611C35.046 50.5115 34.3954 50.0259 34.3954 49.3072C34.9483 49.5579 36.171 49.8933 36.3387 48.618C36.488 47.4958 35.4809 46.5421 33.9587 46.9604C32.8871 47.2285 31.3613 49.4722 32.7507 50.4479C32.8472 50.5134 32.9507 50.5786 33.0572 50.6455C33.7116 51.057 34.4751 51.5371 34.3586 52.5911C33.9264 52.0374 33.3045 51.7692 32.5185 51.8374C33.2138 52.3518 33.8128 52.5925 34.4424 52.8455C34.8582 53.0126 35.2874 53.185 35.7665 53.4453C36.1688 53.6804 36.5317 53.9745 36.8723 54.2504C37.4273 54.6999 37.9228 55.1013 38.4321 55.1213C39.0863 55.1526 39.4226 54.3989 38.8007 53.8129C39.4226 53.6812 40.2445 54.1667 40.4767 54.8173C40.7983 55.7073 40.5449 56.3431 40.0087 56.6969C40.7449 57.0968 41.2986 57.8865 41.0305 59.0087C40.9384 59.3745 40.735 59.5952 40.545 59.8015C40.2558 60.1154 39.9973 60.3959 40.2086 61.1031C39.6871 60.9676 39.3545 60.6175 39.2227 60.1135C39.2177 60.0893 39.2128 60.065 39.2078 60.0406C39.1415 59.7134 39.0746 59.3841 38.9048 59.2271C38.9693 59.9311 38.5685 60.9667 37.6112 61.4385C36.957 61.7564 35.9351 61.8891 35.1492 61.0708C34.846 61.9923 33.7062 62.7782 32.6199 62.746C32.1159 62.746 31.5981 62.5239 31.2267 62.2954C30.9439 62.9782 30.2546 63.6674 29.5507 64C28.8642 63.6674 28.1787 62.9782 27.9106 62.2954C27.5245 62.5248 27.0205 62.746 26.5027 62.746C25.3776 62.7782 24.2913 61.9923 23.9734 61.0708C23.1865 61.8891 22.161 61.7564 21.5114 61.4385C20.5532 60.9667 20.1496 59.9311 20.2214 59.2271C20.058 59.3879 19.9918 59.7297 19.9269 60.0647C19.9237 60.081 19.9205 60.0973 19.9174 60.1135C19.7644 60.6175 19.4318 60.9667 18.914 61.1031C19.1268 60.3906 18.8698 60.1113 18.5784 59.7945C18.3904 59.5902 18.1881 59.3704 18.0884 59.0087C17.8239 57.8865 18.3777 57.0968 19.1287 56.6969C18.574 56.3431 18.3418 55.7064 18.6422 54.8173C18.879 54.1667 19.6999 53.6812 20.3182 53.8129C19.7008 54.3989 20.051 55.1536 20.6868 55.1213C21.1998 55.1013 21.6975 54.6977 22.2538 54.2466C22.5927 53.9718 22.9533 53.6793 23.3524 53.4453C23.8315 53.1856 24.2601 53.0133 24.6751 52.8465C25.3054 52.5932 25.9041 52.3525 26.6003 51.8374C25.8135 51.7692 25.2136 52.0374 24.7631 52.5911C24.6467 51.5381 25.408 51.0579 26.0601 50.6466C26.1668 50.5793 26.2707 50.5138 26.3672 50.4479C27.7742 49.4722 26.2345 47.2285 25.1805 46.9604C23.6371 46.5421 22.6475 47.4958 22.783 48.618C22.9156 49.8933 24.1734 49.5579 24.6949 49.3072C24.7271 50.025 24.0729 50.5115 23.8048 50.611C23.5551 50.729 23.1543 50.7935 22.7185 50.7152C22.783 50.8534 22.8475 51.0082 22.8834 51.115C22.9418 51.2659 23.0527 51.4141 23.1654 51.5648C23.3144 51.7637 23.4665 51.967 23.5053 52.1866C23.5376 52.3543 23.4372 52.522 23.2842 52.6225C22.8549 52.9531 22.1667 52.864 21.5901 52.7894C21.4935 52.7769 21.4 52.7648 21.3115 52.7551C20.9042 52.7229 20.1864 52.7551 19.8004 52.7902C18.2745 52.8906 16.9348 53.648 15.7443 54.5021C15.6174 54.5793 15.3604 54.7416 15.0721 54.9238C14.8643 55.0551 14.6402 55.1967 14.4368 55.324C14.5041 55.5203 14.6082 55.8382 14.5723 56.0418C14.8542 56.1745 15.0219 56.6278 14.822 56.9955C14.9224 57.1963 14.9906 57.5142 14.8542 57.6819C15.0579 58.0182 14.822 58.4043 14.6866 58.4716C14.4691 58.5711 14.1042 58.5711 13.9006 58.2357C13.5505 58.1537 13.3828 57.95 13.3146 57.7178C12.6963 57.5492 12.4604 57.0277 12.7967 56.6278C12.4301 56.4422 12.2944 56.3418 11.9773 56.1072L11.9749 56.1054C11.6385 56.0731 11.1207 55.8732 11.1207 55.3231C10.4813 55.2872 10.0629 54.9509 10.1984 54.1972C9.86299 54.0967 9.69898 53.965 9.63079 53.543C9.57358 53.0765 9.9245 52.6415 10.196 52.305C10.2655 52.2188 10.3299 52.139 10.3808 52.0669C10.3679 51.9711 10.3287 51.8036 10.287 51.6258C10.2276 51.3724 10.1634 51.098 10.1634 50.9805C9.76255 50.8091 9.55892 50.4092 9.63079 50.0232C9.23451 49.7113 9.30867 49.2876 9.35926 48.9985C9.37937 48.8837 9.39575 48.7901 9.37741 48.7332C9.27697 48.4476 9.07703 48.4826 8.94158 48.583C8.94158 48.3831 9.00608 48.2799 9.07703 48.1794C8.77388 48.0477 8.63844 47.6939 8.77388 47.294L5.29004 38.8511C4.86804 38.7147 4.73628 38.5157 4.80078 38.2117C4.46815 38.0937 4.21476 37.7933 4.21476 37.4257V37.3575C3.98257 37.458 3.64718 37.458 3.48224 37.1041L2.55715 36.5365C2.60292 36.4824 2.55569 36.4634 2.46166 36.4257C2.34938 36.3806 2.17038 36.3088 2.00339 36.1182C1.60995 35.722 1.43949 35.0826 1.48556 34.3067L2.3397 34.6431C2.34158 34.6377 2.34345 34.6323 2.34532 34.6269C2.37827 34.532 2.41042 34.4395 2.47146 34.3749C2.38577 34.2496 2.36089 34.1206 2.37471 34.0064C2.35716 33.9974 2.34136 33.9851 2.32561 33.9728C2.30911 33.9599 2.29266 33.9471 2.27428 33.9382C2.34984 33.741 2.48897 33.5125 2.62534 33.3199C2.64008 33.1974 2.7184 33.084 2.85753 32.9836V32.9338C2.82897 32.8666 2.85753 32.7662 2.9294 32.7339C2.9939 32.7339 3.06116 32.7662 3.0971 32.7984C3.42972 32.4805 3.81487 32.2483 4.15119 32.1304C2.68983 32.1626 1.73618 31.5084 1.08567 30.6543C1.63482 29.9365 2.68983 29.4141 3.87937 29.2823C2.1075 29.0142 0.631411 27.8882 0.495964 26.5807C1.21743 26.1486 2.40696 25.9947 3.57899 26.1127C1.73526 25.4585 0.431465 24.0506 0.363281 22.7928C1.35287 22.5109 2.37471 22.6611 3.26111 22.861C2.3397 22.1746 0.849785 20.9169 1.01748 19.0731C1.90295 18.8548 3.54674 19.4767 4.21476 19.7808C2.03932 18.5544 1.25336 15.6565 2.40696 14.0137C2.82493 14.2575 4.13239 15.5203 5.20978 16.5609C5.91136 17.2385 6.51538 17.8219 6.7127 17.9684C5.12327 16.1255 4.36587 14.7996 3.91899 13.5594C3.4113 12.205 3.37905 9.84339 5.04126 9.05375C5.82722 10.8643 8.60711 15.5027 10.133 17.4321C10.1732 17.3961 10.2124 17.357 10.2516 17.3179C10.3758 17.1941 10.4997 17.0705 10.6545 17.046C11.0194 18.2217 12.1269 19.7798 13.1128 20.5299C13.1487 20.4294 13.2492 20.1613 13.4205 19.8757C13.9688 20.6981 14.9757 21.6801 15.939 22.6197C16.8213 23.4801 17.6669 24.305 18.0902 24.9388C18.7794 25.9247 18.7794 26.8148 17.8258 27.7362C17.8071 27.7556 17.7874 27.7758 17.7669 27.7967C17.3813 28.192 16.7327 28.8567 17.354 29.7624C18.2045 31.0201 19.9266 31.1703 20.8738 30.4414C20.8738 30.2129 20.8802 29.9909 20.8913 29.7836C19.7875 29.344 19.5332 27.8366 20.355 26.8968C20.5338 27.2395 20.8259 27.4865 21.1733 27.6182C21.2728 27.2285 21.3548 27.0359 21.3658 27.0175L21.4045 26.9244L21.5013 26.9207C21.5044 26.9197 21.5361 26.9173 21.5925 26.913C21.7362 26.902 22.0398 26.8787 22.4374 26.8351C21.8192 26.6277 21.423 26.0565 21.5123 25.288C22.466 26.109 23.4381 25.323 23.638 25.1056C24.2425 24.4016 24.4249 23.612 24.1743 22.404C23.9384 21.3499 22.8852 19.6748 22.1628 19.1385C22.1559 19.1455 22.1486 19.153 22.1409 19.1609C22.0389 19.2651 21.8711 19.4367 21.5455 19.4067C21.425 19.3685 21.2593 19.2929 21.0923 19.2167C20.9772 19.1641 20.8614 19.1113 20.7595 19.0704C20.0519 18.852 19.3341 19.0206 18.8799 19.3062C18.0617 19.8066 18.1262 20.3603 18.1759 20.7639C16.9007 20.0599 17.3549 18.8879 18.984 18.4521C18.0924 18.4521 17.3291 19.0928 16.9328 19.4254C16.8286 19.5129 16.7498 19.579 16.7007 19.6066C16.0825 20.0599 15.1933 19.9595 14.6893 19.7098C13.6859 19.2381 13.485 18.066 13.7532 17.8301C13.8711 18.2521 14.1715 18.6198 14.7612 18.688C15.6037 18.787 16.4113 18.4262 17.0468 18.1422L17.073 18.1305C17.6231 17.8983 18.5132 17.7297 19.1314 17.7656C17.9953 17.1437 16.252 17.2119 15.6476 18.1655C15.2615 17.8661 15.0266 17.5943 14.9261 16.976C14.611 15.3036 15.8835 14.4458 17.3236 14.4458C17.2729 14.0422 17.5595 13.8423 17.9235 13.9777C17.9235 13.8064 17.9732 13.6746 18.07 13.6101C18.054 13.6084 18.0355 13.6039 18.0175 13.5994C17.9959 13.5941 17.9749 13.5889 17.9594 13.5889C16.5699 13.4922 15.2293 13.0563 14.5078 12.3026C13.8149 11.5625 14.1045 10.7119 14.389 9.87603C14.621 9.19479 14.8495 8.52337 14.54 7.92963C14.37 8.00585 14.2097 8.08768 14.0494 8.16952C13.5799 8.4092 13.1103 8.64893 12.3959 8.74784C12.2964 8.95147 12.2282 9.35136 12.196 9.56881C12.0405 10.2993 12.3141 10.7322 12.5908 11.1699C12.8798 11.6273 13.1721 12.0899 12.9819 12.9025C12.8972 13.2381 12.7363 13.4717 12.571 13.7116C12.3804 13.9881 12.1841 14.2731 12.0919 14.7324C12.0919 14.7324 11.9776 15.3322 12.5314 15.8546C11.305 15.8869 10.6867 14.8641 11.059 13.9105C11.12 13.7814 11.2053 13.6539 11.2919 13.5246C11.4642 13.2673 11.6413 13.0027 11.6413 12.7034C11.0194 13.5244 10.484 13.4922 9.52944 13.189C9.07979 13.0563 9.04754 13.6608 9.31567 14.1464C8.67621 13.7566 8.49009 13.1208 8.49009 12.8389C8.49009 12.1672 9.00884 11.8493 9.53036 11.9847C9.59758 11.9927 9.68381 12.0223 9.77606 12.054C10.0568 12.1505 10.3934 12.2661 10.4204 11.8493C10.4638 11.4374 10.2071 11.2093 9.92588 10.9593C9.55532 10.6299 9.14215 10.2626 9.31659 9.38729C9.49811 8.61516 10.3523 8.19407 11.6745 8.02914C11.6969 8.00682 11.7253 7.97954 11.7577 7.94835C11.922 7.79027 12.1909 7.53162 12.3287 7.30768C13.0851 6.08589 13.8361 5.76801 14.2756 6.01771C14.5938 6.17283 14.8189 6.31716 15.0358 6.45623C15.1939 6.55754 15.3475 6.65605 15.5296 6.75391C15.6337 6.80839 15.7391 6.85554 15.8424 6.90177C16.0903 7.01271 16.3266 7.11842 16.5054 7.30768C17.0597 8.0131 16.5587 9.09897 16.2388 9.79223C16.2311 9.8089 16.2236 9.82534 16.2161 9.84155C16.2051 9.86388 16.1932 9.88785 16.1806 9.91332C15.9673 10.3437 15.5418 11.2021 15.748 11.8493C15.9839 12.6712 17.3568 13.189 18.1778 13.3576C18.194 13.3576 18.2124 13.3612 18.2326 13.3651C18.2574 13.3699 18.2848 13.3751 18.3141 13.3751V13.0563C18.0644 12.6353 17.8608 12.1349 17.6922 11.6807C17.1393 10.2046 17.9603 9.60475 19.2005 9.31911C19.3369 9.21868 19.5009 9.18274 19.7045 9.25093H19.7395L19.769 9.50063L19.9579 9.45087L19.922 9.15049H19.9902C19.8372 9.05098 19.769 8.88328 19.769 8.71559C19.769 8.53315 19.8363 8.39678 19.922 8.29727H19.7395L19.804 8.22908C19.8208 8.19367 19.852 8.15926 19.8876 8.11989C19.9206 8.08347 19.9574 8.04281 19.9902 7.9932C20.0547 7.96188 20.0869 7.89369 20.0869 7.86144C20.0839 7.86442 20.081 7.86742 20.078 7.87046C20.0484 7.90029 20.0165 7.9326 19.9579 7.96188C19.9415 7.97475 19.9245 7.98765 19.9074 8.00056C19.8354 8.0551 19.7634 8.10967 19.7395 8.16182L19.6364 8.23001V6.85803L19.7395 6.94004C19.7569 6.95961 19.8 6.99106 19.85 7.02756C19.8847 7.05291 19.9228 7.08071 19.9579 7.10865C19.9967 7.1497 20.0239 7.16604 20.0464 7.17957C20.0612 7.18852 20.0741 7.19625 20.0869 7.20909C20.0869 7.17684 20.0547 7.1409 19.9902 7.07272C19.9211 7.00822 19.8363 6.9041 19.804 6.85803L19.7395 6.75483H21.1124L21.0443 6.85803C21.0028 6.88701 20.961 6.93735 20.9199 6.98681C20.8943 7.01757 20.869 7.04799 20.8443 7.07272C20.8176 7.13093 20.7774 7.16564 20.7439 7.19461C20.7381 7.19957 20.7326 7.20437 20.7273 7.20909C20.7404 7.19733 20.7595 7.18985 20.7801 7.1818C20.816 7.16777 20.8564 7.15197 20.8775 7.10865C20.9182 7.08078 20.9536 7.05305 20.986 7.02775C21.0328 6.99117 21.0731 6.95965 21.1134 6.94004L21.1815 6.85803V8.23001L21.1134 8.16182C21.1061 8.15492 21.0988 8.14797 21.0914 8.14098C21.0302 8.08273 20.9663 8.02194 20.8775 7.96188C20.8603 7.9452 20.8304 7.92754 20.8005 7.90991C20.7725 7.89345 20.7446 7.87702 20.7273 7.86144C20.7478 7.87982 20.7738 7.91087 20.798 7.93991C20.8151 7.96039 20.8314 7.97987 20.8443 7.9932C20.9037 8.08914 20.9655 8.15066 21.0282 8.21308C21.0336 8.2184 21.0389 8.22373 21.0443 8.22908L21.1124 8.29727H20.9088C21.012 8.39678 21.0443 8.53315 21.0443 8.71559C21.0443 8.88236 20.9761 9.05098 20.8766 9.15049H20.9088L20.8766 9.45087L21.0443 9.50063L21.0802 9.25093H21.1124C21.3152 9.18366 21.4764 9.21868 21.6155 9.31911C22.8557 9.60475 23.6776 10.2046 23.1239 11.6807C22.9562 12.1349 22.7516 12.6353 22.5019 13.0563V13.2747C23.7421 12.8711 25.9885 11.513 26.5745 10.6911C26.6135 10.6532 26.6417 10.6137 26.6649 10.5811C26.6807 10.559 26.6942 10.5401 26.7072 10.5271V9.60567C26.2392 8.88329 25.8531 7.99413 25.585 7.17592C24.7953 5.04562 25.9572 4.16015 27.7788 3.7879C27.9834 3.65614 28.2146 3.58796 28.515 3.68839L28.551 4.02378L28.937 3.99154L28.9011 3.55571C29.0015 3.58796 29.0697 3.58796 29.137 3.58796C28.8688 3.4562 28.7012 3.13371 28.7012 2.802C28.7012 2.56612 28.8016 2.27956 29.0015 2.1478H28.7012C28.7251 2.11804 28.7552 2.0825 28.7888 2.04289C28.9456 1.85807 29.1777 1.58438 29.2042 1.39317C29.0169 1.45251 28.7211 1.72634 28.5301 1.90322C28.5135 1.91859 28.4977 1.93323 28.4828 1.94693V0.203632C28.5371 0.242323 28.6037 0.298253 28.676 0.358877C28.8515 0.506144 29.06 0.68111 29.2042 0.703955C29.18 0.551116 28.9724 0.313577 28.8173 0.135945C28.7722 0.0844108 28.7316 0.0379186 28.7012 0H30.4445C30.2583 0.168617 29.9579 0.507695 29.8934 0.703955C30.0869 0.677192 30.3635 0.44165 30.5457 0.286453C30.5831 0.25464 30.6165 0.226203 30.6444 0.203632V1.94693C30.4795 1.77555 30.1266 1.45767 29.8934 1.39317C29.9589 1.62536 30.2583 1.97918 30.4445 2.1478H30.1266C30.3265 2.28048 30.4445 2.56612 30.4445 2.802C30.4445 3.13371 30.2583 3.4562 29.9939 3.58796C30.0621 3.58796 30.1266 3.58796 30.1938 3.55571L30.1625 3.99154L30.5476 4.02378L30.6121 3.68839C30.9125 3.58796 31.1475 3.65614 31.3336 3.7879C33.1727 4.16015 34.3309 5.04655 33.545 7.17592C33.2409 7.99413 32.8549 8.88329 32.4227 9.60567L32.3978 10.4948L32.4052 10.4911C32.4375 10.5418 32.4872 10.6091 32.5554 10.6911C33.1552 11.513 35.3841 12.8711 36.628 13.2747V13.0563C36.3783 12.6353 36.1747 12.1349 36.0061 11.6807C35.4532 10.2046 36.2742 9.60475 37.5144 9.31911C37.6508 9.21868 37.8185 9.18274 38.0184 9.25093H38.0497L38.0857 9.50063L38.2681 9.45087L38.2359 9.15049H38.2681C38.1502 9.05098 38.0857 8.88328 38.0857 8.71559C38.0857 8.53315 38.1179 8.39678 38.2359 8.29727H38.0184L38.0866 8.22908C38.106 8.2086 38.1273 8.18844 38.1494 8.16747C38.201 8.11864 38.2573 8.06539 38.305 7.9932C38.3204 7.97821 38.3359 7.95476 38.3516 7.93086C38.3687 7.90483 38.3862 7.87825 38.4045 7.86144C38.3866 7.87789 38.3611 7.89528 38.3356 7.91266C38.3111 7.92937 38.2867 7.94607 38.269 7.96188C38.1667 8.02024 38.1053 8.07929 38.0463 8.13603C38.0373 8.14469 38.0284 8.15329 38.0193 8.16182L37.9512 8.23001V6.85803L38.0193 6.94004C38.0516 6.95595 38.0832 6.97971 38.1204 7.00766C38.1608 7.03796 38.2077 7.07318 38.269 7.10865C38.292 7.1523 38.3268 7.16801 38.3579 7.18212C38.3755 7.19005 38.3919 7.19748 38.4045 7.20909C38.3695 7.17684 38.3372 7.1409 38.305 7.07272C38.2796 7.04874 38.2519 7.01928 38.2237 6.98937C38.176 6.93883 38.1271 6.88697 38.0866 6.85803L38.0184 6.75483H39.3904L39.3222 6.85803C39.2936 6.90502 39.2255 7.00822 39.1223 7.07272C39.1099 7.09876 39.0976 7.1201 39.0871 7.13833C39.0701 7.16782 39.0578 7.18916 39.0578 7.20909C39.0707 7.19578 39.0838 7.18797 39.0995 7.17859C39.1218 7.16524 39.1495 7.14871 39.1895 7.10865C39.2288 7.06888 39.2793 7.02942 39.321 6.99685C39.3508 6.97359 39.376 6.95386 39.3895 6.94004L39.4899 6.85803V8.23001L39.3895 8.16182C39.3677 8.11825 39.3152 8.073 39.2624 8.02749C39.2371 8.00563 39.2117 7.9837 39.1895 7.96188C39.1281 7.93241 39.0958 7.89987 39.0661 7.86987C39.0633 7.86704 39.0606 7.86423 39.0578 7.86144C39.0578 7.89277 39.09 7.96096 39.1223 7.9932C39.1335 8.00452 39.1443 8.01536 39.1547 8.02578C39.2398 8.1112 39.2967 8.16831 39.3222 8.22908L39.3904 8.29727H39.2255C39.2927 8.39678 39.3572 8.53315 39.3572 8.71559C39.3572 8.88236 39.2936 9.05098 39.1536 9.15049H39.2255L39.1895 9.45087L39.3572 9.50063L39.3895 9.25093H39.4254C39.6254 9.18366 39.793 9.21868 39.9469 9.31911C41.165 9.60475 41.9906 10.2046 41.4368 11.6807C41.2691 12.1349 41.0655 12.6353 40.8296 13.0563V13.3751C40.8562 13.3751 40.8774 13.3708 40.8986 13.3664C40.92 13.3621 40.9415 13.3576 40.9688 13.3576C41.787 13.189 43.1451 12.6703 43.381 11.8493C43.5935 11.1823 43.1387 10.2912 42.9264 9.87517C42.9205 9.86359 42.9148 9.85238 42.9092 9.84155C42.8908 9.79925 42.8715 9.75532 42.8515 9.70997C42.5453 9.01534 42.091 7.98492 42.6411 7.30768C42.8088 7.11634 43.0445 7.01039 43.2943 6.8981C43.3946 6.85304 43.4971 6.80695 43.5985 6.75391C43.7916 6.65124 43.9544 6.54784 44.1223 6.44125C44.3341 6.3068 44.5539 6.16727 44.8525 6.01771C45.3067 5.76801 46.0641 6.08589 46.8003 7.30768C46.9535 7.53273 47.2144 7.79283 47.3727 7.95069C47.403 7.98091 47.4295 8.00738 47.4509 8.02914C48.7915 8.19315 49.6484 8.61516 49.8133 9.38729C49.9851 10.2596 49.5757 10.6274 49.2099 10.9559C48.9301 11.2072 48.6759 11.4355 48.727 11.8493C48.7504 12.2634 49.0763 12.1519 49.3571 12.0559C49.4518 12.0235 49.5414 11.9929 49.6125 11.9847C50.1165 11.8493 50.638 12.1672 50.638 12.8389C50.638 13.1208 50.4666 13.7566 49.8124 14.1464C50.0842 13.6608 50.0483 13.0563 49.6125 13.189C48.6588 13.4922 48.1051 13.5244 47.4831 12.7034C47.4831 12.9914 47.6558 13.2472 47.8233 13.4954C47.9174 13.6347 48.0098 13.7717 48.0691 13.9105C48.4404 14.8641 47.8047 15.8869 46.5967 15.8546C47.1182 15.3322 47.05 14.7324 47.05 14.7324C46.9544 14.2803 46.7592 13.9972 46.5714 13.7247C46.4028 13.4801 46.2402 13.2442 46.1609 12.9025C45.9646 12.0861 46.2568 11.623 46.5467 11.1635C46.8216 10.728 47.0944 10.2957 46.9468 9.56881C46.9146 9.35136 46.8289 8.95147 46.7285 8.74784C46.0359 8.6512 45.5804 8.42062 45.1177 8.18641C44.9451 8.09907 44.7716 8.01122 44.5844 7.92963C44.2598 8.52717 44.4926 9.20386 44.7287 9.89016C45.0147 10.7214 45.3055 11.5668 44.6166 12.3026C43.8979 13.0563 42.5729 13.4922 41.165 13.5889C41.1485 13.5889 41.127 13.5935 41.1056 13.5981C41.09 13.6015 41.0745 13.6049 41.0609 13.6064C41.1549 13.6746 41.201 13.8064 41.201 13.9777C41.5686 13.8423 41.8552 14.0422 41.8192 14.4458C43.2124 14.4458 44.5199 15.3036 44.202 16.976C44.0988 17.5943 43.8666 17.8661 43.4943 18.1655C42.8761 17.2119 41.1328 17.1446 40.0105 17.7656C40.6103 17.7306 41.5041 17.8983 42.0542 18.1305L42.0908 18.1466C42.7355 18.4299 43.5452 18.7856 44.3798 18.688C44.9548 18.6198 45.2727 18.2521 45.3731 17.8301C45.6403 18.066 45.4403 19.2381 44.4471 19.7098C43.9292 19.9604 43.0429 20.0609 42.4209 19.6066C42.3732 19.5794 42.2965 19.5147 42.1949 19.429C41.8016 19.0975 41.0362 18.4521 40.145 18.4521C41.7851 18.8879 42.2173 20.0599 40.9669 20.7639C40.9678 20.7516 40.9687 20.7391 40.9696 20.7265C40.9988 20.3266 41.0378 19.7913 40.2445 19.3062C39.7912 19.0206 39.0872 18.852 38.3658 19.0704C38.2649 19.1109 38.1499 19.1631 38.0352 19.2151C37.866 19.2918 37.6975 19.3682 37.5761 19.4067C37.2558 19.4363 37.0905 19.2704 36.9857 19.1653C36.9763 19.1558 36.9673 19.1468 36.9588 19.1385C36.2401 19.6739 35.1501 21.3499 34.9501 22.404C34.7143 23.612 34.882 24.4016 35.4827 25.1056C35.7002 25.3239 36.6575 26.1099 37.6121 25.288C37.6978 26.0592 37.3016 26.6314 36.6833 26.8351C37.0905 26.8831 37.3969 26.9051 37.5308 26.9147C37.5765 26.918 37.6021 26.9198 37.6047 26.9207L37.7015 26.9244L37.7448 27.0175C37.745 27.0182 37.7455 27.0191 37.746 27.0203C37.7588 27.0504 37.8416 27.2438 37.9346 27.621C38.2912 27.4957 38.5878 27.2423 38.7703 26.8959C39.5922 27.8394 39.3314 29.3579 38.2165 29.79C38.2267 29.99 38.234 30.2046 38.234 30.4295C39.1812 31.173 40.9208 31.0265 41.786 29.7614C42.4041 28.8348 41.7285 28.1617 41.3352 27.7699C41.3234 27.7581 41.3118 27.7466 41.3005 27.7353C40.3431 26.8139 40.3431 25.9238 41.0323 24.9379C41.4566 24.3033 42.3038 23.4772 43.1875 22.6156C44.1502 21.677 45.1561 20.6962 45.7057 19.8747C45.8255 20.0788 45.9105 20.2739 45.9678 20.4053C45.9907 20.4579 46.0091 20.5003 46.0236 20.5289C47.0132 19.7789 48.1032 18.2208 48.4709 17.0451C48.6334 17.0691 48.7495 17.1881 48.8678 17.3093C48.9084 17.3509 48.9493 17.3928 48.9924 17.4312C50.532 15.5017 53.2981 10.8643 54.0868 9.05282C55.7601 9.84247 55.7279 12.205 55.2091 13.5585C54.7733 14.7987 54.0196 16.1237 52.408 17.9674C52.6089 17.8192 53.2271 17.223 53.941 16.5346C55.0147 15.4992 56.3048 14.2552 56.7165 14.0128C57.871 15.6565 57.0851 18.5544 54.905 19.7798C55.5915 19.4758 57.2205 18.8538 58.106 19.0722C58.2884 20.9169 56.7801 22.1737 55.8624 22.8601C56.7479 22.6602 57.7734 22.51 58.7593 22.7919C58.692 24.0506 57.4021 25.4576 55.5086 26.1118ZM3.12169 35.392C3.13221 35.375 3.13982 35.3627 3.15975 35.3627C3.14363 35.295 3.13556 35.2279 3.1275 35.1609C3.11944 35.0938 3.11138 35.0268 3.09525 34.9591L3.192 34.8946L3.15975 34.8587C3.09525 34.9268 3.0243 34.9591 2.92756 34.9591C2.89162 35.159 2.89162 35.3949 3.09525 35.4272C3.10757 35.4149 3.11518 35.4025 3.12169 35.392ZM3.48132 36.5706L3.81303 36.7669C3.87845 36.7024 3.87845 36.6029 3.87753 36.5025C3.74577 36.4168 3.61308 36.4168 3.48132 36.5706ZM4.66717 34.6725H4.79986C4.81091 34.6513 4.82105 34.6302 4.82473 34.608C4.79186 34.6186 4.75654 34.6231 4.7209 34.6277C4.6946 34.6311 4.66811 34.6344 4.64229 34.6403C4.65056 34.6486 4.65626 34.6568 4.66169 34.6647C4.66352 34.6674 4.66532 34.67 4.66717 34.6725ZM22.8152 57.915C22.3969 58.6374 22.9829 59.1552 23.8048 59.1552C23.8048 58.8733 23.8048 58.7729 23.837 58.4338C23.4657 58.3942 23.0327 58.2403 22.8152 57.915ZM35.3168 59.1552C36.1387 59.1552 36.7248 58.6374 36.3037 57.915C36.0789 58.255 35.632 58.3978 35.2487 58.4338C35.3168 58.7729 35.3168 58.8733 35.3168 59.1552ZM28.4137 11.2172C27.5558 12.1027 25.6476 13.1568 23.7689 13.5603C24.8626 13.5603 26.7699 13.4599 27.0187 13.1936C26.9542 13.8792 25.479 14.6541 24.5244 14.8687C25.3113 14.9692 26.065 14.8687 26.6685 14.5868C26.3331 15.0724 25.9508 15.4409 25.3113 15.6584C25.9968 16.4803 27.3227 17.0119 28.6947 16.8802C28.3796 17.2838 27.7724 17.5344 27.2223 17.4662C28.4413 19.4177 29.3415 21.4181 29.5452 23.741L29.5488 23.7336L29.5562 23.7373C29.7709 21.4181 30.6776 19.4168 31.9003 17.4662C31.3603 17.5344 30.7384 17.2838 30.403 16.8802C31.7639 17.0119 33.1359 16.4803 33.8039 15.6584C33.1681 15.4409 32.7867 15.0724 32.4467 14.5868C33.0723 14.8687 33.8048 14.9692 34.5945 14.8687C33.6408 14.655 32.1831 13.8792 32.115 13.1936C32.3508 13.4608 34.2582 13.5613 35.3482 13.5613C33.4694 13.1577 31.5861 12.1211 30.7393 11.2283C30.0427 11.267 29.125 11.2596 28.4137 11.2172ZM6.26863 34.3058C6.37387 34.2608 6.48297 34.2141 6.58278 34.1731C6.51168 34.198 6.43503 34.223 6.3579 34.2482C6.2491 34.2836 6.13934 34.3195 6.04283 34.3556V34.4016C6.11215 34.3727 6.18929 34.3397 6.26863 34.3058ZM18.8089 43.4738C18.7094 43.3199 18.6772 43.1845 18.6412 42.9523C19.8317 43.3881 20.872 43.0518 21.341 42.0972C21.1088 42.1968 20.7227 42.2327 20.4195 42.2327C21.4736 41.3749 21.4091 38.9451 20.6554 37.6911C20.6172 37.6651 20.5889 37.6393 20.5627 37.6155C20.5202 37.5768 20.4835 37.5434 20.4195 37.5234C20.2919 37.7817 20.0242 37.8975 19.7542 38.0142C19.5349 38.109 19.3141 38.2045 19.1655 38.3775C19.0832 38.3033 19.0259 38.2601 18.9684 38.2168C18.9209 38.181 18.8734 38.1452 18.8117 38.0919C18.8117 38.0919 18.7794 40.0858 18.644 40.9068C18.5563 41.521 18.1322 41.6816 17.7153 41.8396C17.5062 41.9188 17.2988 41.9974 17.1366 42.1323C16.9639 41.9291 16.737 41.7997 16.5194 41.6756C16.1054 41.4396 15.725 41.2227 15.8144 40.553C15.867 40.1572 15.9295 39.776 15.9884 39.4173C16.0809 38.8531 16.1643 38.3446 16.1857 37.9233C15.9936 38.3174 15.6864 39.3973 15.428 40.3055C15.2787 40.8303 15.1457 41.2979 15.0606 41.5425C14.8209 42.1814 14.332 42.2826 13.8716 42.378C13.6187 42.4304 13.3744 42.481 13.1847 42.6178C13.068 42.3906 12.8934 42.2165 12.7244 42.048C12.3809 41.7054 12.0602 41.3857 12.2955 40.6884C12.3322 40.5896 12.5559 40.1106 12.8338 39.5157C13.3098 38.4967 13.9448 37.1374 14.0711 36.7651C13.7571 37.2235 13.1241 38.3928 12.5726 39.4117C12.2129 40.0761 11.8879 40.6765 11.7086 40.974C11.3965 41.498 10.8974 41.5011 10.4066 41.5042C10.1611 41.5057 9.9177 41.5072 9.70082 41.5739C9.66923 41.4017 9.56536 41.2215 9.45294 41.0264C9.19488 40.5787 8.89179 40.0529 9.31475 39.3662C9.77893 38.6239 10.5628 37.5694 11.181 36.7377C11.6525 36.1034 12.0276 35.5988 12.0909 35.4613C11.8583 35.6743 10.7068 37.0731 9.79463 38.1813C9.20727 38.8948 8.71912 39.4878 8.63936 39.5661C8.14074 39.9749 7.51579 39.8687 6.9889 39.7791C6.82451 39.7512 6.66966 39.7249 6.53118 39.7163L6.38099 39.3984C6.36626 39.3168 6.34818 39.2338 6.32985 39.1498C6.21975 38.6448 6.10091 38.0998 6.64912 37.5547C7.00786 37.2128 7.60052 36.7425 8.13738 36.3165C8.6264 35.9284 9.06912 35.5771 9.24657 35.3931C8.90321 35.6276 8.54219 35.9075 8.18426 36.185C7.43952 36.7624 6.7082 37.3295 6.17736 37.4552C6.0631 37.4838 5.93411 37.5096 5.82722 37.5271C5.82604 37.5351 5.82494 37.5431 5.82384 37.5512C5.81811 37.5932 5.81216 37.637 5.79129 37.6911V37.7556C6.08061 37.891 6.21237 38.2771 5.95899 38.5452L9.93209 46.7384C10.3817 46.8747 10.4822 47.2921 10.4177 47.6284C10.4499 47.6284 10.6536 47.6607 10.754 47.8109C10.5181 47.8431 10.5181 48.0468 10.6176 48.2145C10.6691 48.2968 10.7506 48.3539 10.8397 48.4163C11.0408 48.5571 11.2808 48.7251 11.3031 49.2722C11.6717 49.4372 11.7749 49.9227 11.6395 50.3263C11.8431 50.5078 12.0071 50.8801 12.0071 50.8801C12.161 50.6396 12.5295 50.7078 12.6613 50.8082C13.1828 50.3254 13.8333 50.576 14.0692 51.362C14.3364 52.1839 15.3583 52.5202 15.948 52.4198C16.6703 52.3193 17.9207 51.8337 18.6099 51.4974C19.042 51.2763 19.3212 51.1224 19.5672 50.9547C19.6456 50.6396 19.5811 50.2545 19.5313 50.0895C19.3986 50.2572 19.195 50.4433 18.8771 50.6074C18.8668 50.5549 18.8598 50.5002 18.8528 50.4457C18.8379 50.3295 18.8231 50.2139 18.7767 50.1218C18.4772 50.576 17.9916 50.8082 17.4194 50.776C17.7548 50.4765 17.9198 49.6859 17.7548 49.0004C17.2693 49.8232 15.4255 49.9909 15.0929 48.5148C15.7793 48.8364 16.2115 48.4835 16.3432 48.1149C16.4114 47.8992 16.3626 47.5714 16.3057 47.1885C16.207 46.5251 16.0837 45.6959 16.5008 44.996C16.9689 44.1778 17.519 43.6738 18.8089 43.4738ZM25.9145 54.6406C25.9644 54.5725 26.0151 54.5031 26.0668 54.4321C26.1964 54.2716 26.3303 54.111 26.4651 53.9494C26.8911 53.4386 27.3261 52.9172 27.66 52.3516C27.2043 52.8844 26.5395 53.4167 25.9073 53.9228C25.1664 54.5159 24.4704 55.0732 24.2084 55.5535C23.9725 56.0077 23.837 56.8932 24.5585 56.9614C24.926 55.9915 25.3647 55.3919 25.9145 54.6406ZM27.659 60.9317C27.5245 59.8951 27.8102 57.5796 28.21 56.0077C28.2547 55.8467 28.3148 55.6458 28.3831 55.4174C28.7636 54.1459 29.3991 52.0226 29.0319 51.1814C28.8633 52.4889 28.3418 54.5325 27.5918 56.2086C27.0555 57.4119 26.2659 60.2103 27.659 60.9317ZM30.9079 56.0077C31.329 57.5806 31.5971 59.8951 31.4617 60.9317C32.8521 60.2093 32.0652 57.4119 31.5299 56.2077C30.7762 54.5316 30.2537 52.4879 30.086 51.1805C29.725 52.0173 30.3504 54.1197 30.7293 55.3938C30.8001 55.6319 30.8624 55.8411 30.9079 56.0077ZM34.5631 56.9623C35.2855 56.8941 35.1492 56.0077 34.9133 55.5544C34.6517 55.0749 33.9563 54.5186 33.2163 53.9266C32.5827 53.4198 31.9164 52.8868 31.4617 52.3534C31.8383 52.9892 32.3415 53.5772 32.828 54.1456C32.9105 54.2419 32.9924 54.3377 33.0732 54.433C33.1431 54.5323 33.2114 54.6283 33.2782 54.7222C33.7858 55.436 34.2065 56.0275 34.5631 56.9623ZM29.5617 49.9181C29.6004 49.9614 32.9267 47.0885 34.7419 43.5623C36.5534 40.0397 37.718 34.5048 37.7835 31.8604C37.8516 29.216 37.3329 28.0836 37.3329 28.0836C37.3329 28.0836 35.0644 27.9592 33.2529 27.3262C31.7095 26.7936 30.0298 25.4428 29.5617 25.0503C29.09 25.4428 27.4139 26.7936 25.8743 27.3262C24.0591 27.9592 21.7906 28.0836 21.7906 28.0836C21.7906 28.0836 21.2728 29.216 21.3373 31.8604C21.4008 34.5039 22.5655 40.0388 24.3807 43.5623C26.1958 47.0885 29.5221 49.9614 29.5617 49.9181ZM34.9529 30.764C35.5785 30.764 35.9351 31.1325 35.9499 31.15C35.9747 31.1749 35.9922 31.2145 35.9987 31.2514C36.0088 31.3546 36.2023 33.7705 35.08 34.9923C34.6691 35.4429 34.1264 35.6714 33.4722 35.6714C33.3579 35.6714 33.2363 35.6677 33.111 35.6502C32.4789 35.5746 31.8533 35.406 31.2571 35.1922L30.2169 35.8925L32.5139 37.4469C32.5609 37.4828 32.5895 37.5326 32.5895 37.5897C32.5895 37.6432 32.5609 37.6966 32.5139 37.7289L30.2095 39.3229L32.1712 40.6838L32.3241 40.3023C32.3499 40.2443 32.4024 40.2019 32.4743 40.1982C32.4743 40.1945 32.478 40.1945 32.4817 40.1945C32.5425 40.1945 32.5996 40.2296 32.6282 40.2839L33.5606 42.0023C33.5892 42.0567 33.5855 42.1277 33.5505 42.1774C33.5183 42.2244 33.4648 42.2493 33.4105 42.2493H33.3856L31.4562 41.9636C31.3889 41.9526 31.3345 41.9065 31.317 41.8457C31.2986 41.7812 31.317 41.713 31.3668 41.667L31.6847 41.385L29.4558 39.8453L27.2287 41.385L27.5475 41.667C27.5936 41.713 27.6148 41.7812 27.5936 41.8457C27.5789 41.9065 27.5254 41.9526 27.4573 41.9636L25.5287 42.2493H25.5039C25.4467 42.2493 25.3933 42.2235 25.3647 42.1774C25.3288 42.1277 25.3251 42.0567 25.3537 42.0023L26.2825 40.2839C26.3147 40.2305 26.3718 40.1945 26.4326 40.1945C26.44 40.1945 26.44 40.1945 26.4437 40.1982C26.5082 40.2019 26.5644 40.2443 26.5902 40.3023L26.7395 40.6838L28.7048 39.3229L26.4004 37.7289C26.3497 37.6966 26.3248 37.6441 26.3248 37.5897C26.3248 37.5326 26.3534 37.4828 26.4004 37.4469L28.6975 35.8925L27.6609 35.1922C27.061 35.4069 26.4391 35.5746 25.8033 35.6502C25.6817 35.6677 25.5564 35.6714 25.4421 35.6714C24.7879 35.6714 24.2489 35.4429 23.8343 34.9923C22.7157 33.7705 22.9046 31.3546 22.9156 31.2514C22.9156 31.2154 22.9331 31.1758 22.9617 31.1509C22.9755 31.1334 23.3367 30.7649 23.9624 30.7649C24.283 30.7649 24.623 30.869 24.9658 31.0653C25.0266 31.0966 25.0588 31.1648 25.0487 31.2329C25.0487 31.2344 25.047 31.2473 25.044 31.2702C25.0106 31.5223 24.8172 32.9826 24.9879 33.6406C25.127 34.1805 25.5877 34.8126 26.4207 34.8126C26.5957 34.8126 26.7782 34.784 26.9707 34.7297C26.9726 34.7297 26.9745 34.7297 26.9759 34.7292C26.9772 34.7287 26.9781 34.7278 26.9781 34.726L26.3488 34.3003C26.3027 34.2681 26.2778 34.2183 26.2742 34.1612C26.2742 34.105 26.3027 34.0543 26.346 34.022L27.5964 33.1642C27.2638 32.9165 27.0372 32.7283 26.9512 32.6569C26.9345 32.643 26.9231 32.6335 26.9173 32.6289C26.8851 32.5966 26.8639 32.5542 26.8602 32.5073C26.8602 32.4612 26.8777 32.4151 26.9099 32.3829L27.1348 32.158C27.167 32.1258 27.2094 32.1083 27.2564 32.1083C27.2923 32.1083 27.3273 32.123 27.3596 32.1442C27.367 32.1516 27.6959 32.405 28.1999 32.7514L28.6993 32.405L26.7413 31.0579L26.5884 31.4476C26.5626 31.5084 26.5064 31.5508 26.4419 31.5545H26.4308C26.37 31.5545 26.3129 31.5186 26.2806 31.4651L25.3518 29.7504C25.3242 29.6933 25.327 29.6251 25.3629 29.5717C25.3915 29.5247 25.4449 29.4998 25.502 29.4998H25.5269L27.4554 29.7891C27.5236 29.7965 27.578 29.8425 27.5918 29.907C27.613 29.9679 27.5918 30.036 27.5457 30.0821L27.2343 30.3576L29.4539 31.8862L31.6791 30.3576L31.3649 30.0821C31.3189 30.0351 31.3014 29.9679 31.3152 29.907C31.3327 29.8425 31.3898 29.7965 31.4543 29.7891L33.3856 29.4989H33.4105C33.4648 29.4989 33.5183 29.5247 33.5505 29.5707C33.5855 29.6242 33.5929 29.6924 33.5606 29.7495L32.6282 31.4642C32.5996 31.5177 32.5425 31.5536 32.4817 31.5536H32.4743C32.4034 31.5499 32.3499 31.5075 32.3241 31.4467L32.1712 31.057L30.2132 32.4041L30.7135 32.7505C31.0851 32.4927 31.3628 32.2865 31.4863 32.1947C31.5288 32.1632 31.553 32.1452 31.5566 32.1433C31.5851 32.1221 31.6248 32.1074 31.6607 32.1074C31.6994 32.1074 31.7455 32.1249 31.7777 32.1571L31.9989 32.3819C32.0348 32.4133 32.0523 32.4603 32.0523 32.5063C32.0523 32.5533 32.0274 32.5957 31.9915 32.628C31.9592 32.6565 31.7095 32.8666 31.3161 33.1633L32.5628 34.0211C32.6098 34.0534 32.6383 34.1031 32.6383 34.1603C32.6383 34.2174 32.6088 34.2671 32.5628 34.2994L31.9344 34.7251C31.9344 34.7288 31.9417 34.7288 31.9417 34.7288C32.1352 34.7831 32.3167 34.8117 32.4955 34.8117C33.3275 34.8117 33.7855 34.1796 33.9246 33.6397C34.1107 32.9219 33.8675 31.2495 33.8638 31.232C33.8527 31.1638 33.8887 31.0957 33.9495 31.0643C34.2876 30.8681 34.6276 30.764 34.9529 30.764ZM29.9469 33.2619L29.4539 32.9256L28.9637 33.2619C29.1213 33.3614 29.2853 33.4618 29.4539 33.565C29.4775 33.5508 29.501 33.5367 29.5244 33.5227C29.6712 33.4344 29.8142 33.3485 29.9469 33.2619ZM28.3427 33.6903L27.66 34.1584L27.9567 34.3584C28.2285 34.2367 28.4957 34.1013 28.7638 33.9585C28.6145 33.8654 28.4754 33.776 28.3427 33.6903ZM29.4549 38.8041L31.2083 37.5925L29.4549 36.4066L27.7079 37.5925L29.4549 38.8041ZM28.6072 34.7979L29.4539 35.3765L30.3072 34.7979C30.0077 34.6587 29.7248 34.5122 29.4539 34.3657C29.1858 34.5122 28.9039 34.6587 28.6072 34.7979ZM30.1468 33.9594C30.415 34.1022 30.6859 34.2377 30.9577 34.3593L31.2544 34.1593L30.5688 33.6913C30.4797 33.7473 30.3893 33.8049 30.2965 33.8641C30.2474 33.8954 30.1975 33.9272 30.1468 33.9594Z" fill="white"/>
</svg>
