<svg width="58" height="64" viewBox="0 0 58 64" fill="none" xmlns="http://www.w3.org/2000/svg">
<path d="M44.9816 47.7333C44.7816 47.7333 44.6482 47.8667 44.6482 48.0667C44.6482 48.2667 44.7816 48.4 44.9816 48.4C45.1816 48.4 45.3149 48.2667 45.3149 48.0667C45.3149 47.9333 45.1816 47.7333 44.9816 47.7333Z" fill="white"/>
<path d="M46.1149 51C46.1149 51.2 46.2482 51.3333 46.4482 51.3333C46.6482 51.3333 46.7816 51.2 46.7816 51C46.7816 50.8 46.6482 50.6667 46.4482 50.6667C46.2482 50.6667 46.1149 50.8 46.1149 51Z" fill="white"/>
<path d="M44.9816 50.6667C44.7816 50.6667 44.6482 50.8 44.6482 51C44.6482 51.2 44.7816 51.3333 44.9816 51.3333C45.1816 51.3333 45.3149 51.2 45.3149 51C45.3149 50.8 45.1816 50.6667 44.9816 50.6667Z" fill="white"/>
<path d="M47.5816 51C47.5816 51.2 47.7149 51.3333 47.9149 51.3333C48.1149 51.3333 48.2482 51.2 48.2482 51C48.2482 50.8 48.1149 50.6667 47.9149 50.6667C47.7149 50.6667 47.5816 50.8 47.5816 51Z" fill="white"/>
<path d="M44.5149 44.4667L44.5816 45.3333L43.8482 45.2667V46.2L44.5816 46.0667L44.5149 46.9333H45.4482L45.3816 46.0667L46.1149 46.2V45.2667L45.3816 45.3333L45.4482 44.4667H44.5149Z" fill="white"/>
<path d="M45.5816 47.4667V50.4667H48.4482C48.2482 48.9333 47.0482 47.7333 45.5816 47.4667Z" fill="white"/>
<path d="M44.9816 49.2C44.7816 49.2 44.6482 49.3333 44.6482 49.5333C44.6482 49.7333 44.7816 49.8667 44.9816 49.8667C45.1816 49.8667 45.3149 49.7333 45.3149 49.5333C45.3149 49.3333 45.1816 49.2 44.9816 49.2Z" fill="white"/>
<path d="M46.1816 53C46.1149 53 45.8482 53.7333 46.1149 54.2667C46.2482 54.5333 46.5149 54.6667 46.7816 54.6C47.0482 54.5333 47.1149 54.2667 47.1149 54.1333C47.0482 53.5333 46.5816 53 46.1816 53Z" fill="white"/>
<path d="M43.7816 53C43.3816 53 42.9149 53.5333 42.9149 54.1333C42.9149 54.3333 42.9816 54.5333 43.2482 54.6C43.5149 54.6667 43.7816 54.5333 43.9149 54.2667C44.0482 53.7333 43.8482 53 43.7816 53Z" fill="white"/>
<path d="M44.9816 52.6C44.7149 52.6 43.9149 54.1333 44.5149 54.8667C44.6482 55 44.7816 55.0667 44.9816 55.0667C45.1816 55.0667 45.3816 55 45.4482 54.8667C45.9816 54.1333 45.2482 52.6 44.9816 52.6Z" fill="white"/>
<path d="M41.4482 51C41.4482 50.6667 41.5149 50.4 41.5149 50.4H44.3816V47.4C42.9816 47.6667 41.8482 48.7333 41.5149 50.1333C41.4482 50.2667 41.1816 50.3333 40.9816 50.2667C39.9149 50.1333 37.7816 49.7333 37.7816 49.2667C37.7816 48.6 38.2482 48.3333 38.6482 48.3333C39.2482 48.3333 39.9149 48.6667 40.4482 47.8667C38.5149 47.9333 39.9816 45.1333 38.3816 44.6C38.4482 45.3333 38.3816 46.6 38.1149 47.2667C38.1149 47.2667 37.5149 46.6667 36.9149 46.4C36.9816 46.9333 36.8482 48 36.6482 48.5333C36.6482 48.5333 35.9816 47.8667 35.2482 47.6667C35.9149 48.6 35.9149 50 35.7149 50.8C35.6482 51.0667 35.8482 51.3333 36.3149 51.3333C37.1149 51.2667 39.7816 51.4 40.9149 51.8667C41.2482 52 41.5816 52.2 41.7149 52.4667C41.8482 52.8 42.1149 53.3333 42.5149 53.6C42.7149 53 43.3816 52.3333 43.8482 52.4C43.9816 52.4 44.1149 52.6667 44.1816 52.8667C44.2482 52.6667 44.5816 52.0667 44.9149 52.0667C45.2482 52.0667 45.5816 52.5333 45.7149 52.9333C45.7816 52.6667 45.9149 52.4 46.0482 52.4C46.5149 52.4 47.1149 52.8 47.3149 53.5333C47.5149 53.3333 48.3149 52.2667 48.3816 51.5333H41.4482C41.4482 51.6 41.4482 51.3333 41.4482 51Z" fill="white"/>
<path d="M43.1816 51C43.1816 51.2 43.3149 51.3333 43.5149 51.3333C43.7149 51.3333 43.8482 51.2 43.8482 51C43.8482 50.8 43.7149 50.6667 43.5149 50.6667C43.3149 50.6667 43.1816 50.8 43.1816 51Z" fill="white"/>
<path d="M41.7816 51C41.7816 51.2 41.9149 51.3333 42.1149 51.3333C42.3149 51.3333 42.4482 51.2 42.4482 51C42.4482 50.8 42.3149 50.6667 42.1149 50.6667C41.9149 50.6667 41.7816 50.8 41.7816 51Z" fill="white"/>
<path d="M14.1816 52.4667C14.0482 52.6 13.7816 53.3333 13.9149 53.8C13.9816 54 14.0482 54.0667 14.2482 54.0667C14.4482 54.0667 14.5149 53.9333 14.5816 53.7333C14.6482 53.2667 14.3149 52.5333 14.1816 52.4667Z" fill="white"/>
<path d="M16.6482 54.5333C16.5149 54.7333 16.3149 54.8 16.2482 54.8667C16.3149 54.9333 16.5149 55.0667 16.7149 55.0667C16.8482 55.0667 16.9816 55 17.0482 54.9333C17.2482 54.5333 17.0482 54.2 16.9816 54.0667C16.9149 54.2 16.8482 54.4 16.6482 54.5333Z" fill="white"/>
<path d="M15.7149 53.6C15.9816 53.3333 16.0482 53.1333 15.9816 53C15.9149 52.8 15.3149 52.2 14.6482 51.4667C14.6482 51.6 14.5816 51.7333 14.5816 51.8667C15.0482 52.5333 15.2482 53.2 15.1149 53.8C15.1816 53.8667 15.1816 53.8667 15.2482 53.8667C15.3816 54 15.5816 53.8 15.7149 53.6Z" fill="white"/>
<path d="M16.6482 53.6667C16.6482 53.5333 16.6482 53.4667 16.5816 53.4H16.5149C16.4482 53.4 16.3816 53.5333 16.3149 53.6C16.2482 53.6667 16.1816 53.8 16.0482 53.9333C15.9149 54.0667 15.8482 54.1333 15.7149 54.2667C15.5816 54.3333 15.5149 54.4667 15.5149 54.5333C15.5149 54.5333 15.5149 54.5333 15.5149 54.6C15.5816 54.6667 15.5816 54.6667 15.6482 54.6667C15.7149 54.6667 15.9149 54.6 16.2482 54.2667C16.5816 53.9333 16.6482 53.8 16.6482 53.6667Z" fill="white"/>
<path d="M12.2482 50.1333C12.2482 50.1333 12.1816 50.2 12.1149 50.3333C12.2482 50.3333 12.4482 50.3333 12.5816 50.4C12.5816 50.2667 12.5816 50.0667 12.5816 49.9333C12.4482 49.9333 12.3149 50.0667 12.2482 50.1333Z" fill="white"/>
<path d="M14.0482 50.3333C14.0482 50.3333 15.4482 51.5333 15.9149 52C16.0482 52.1333 16.1816 52.1333 16.3149 52.0667C16.3816 52 16.5149 52 16.6482 51.9333C18.0482 51.4667 20.3149 51.4 21.1149 51.4C21.6482 51.4 21.7816 51.1333 21.7149 50.8667C21.5816 50.0667 21.5149 48.6667 22.1816 47.7333C21.4482 48 20.7816 48.6 20.7816 48.6C20.5149 48.1333 20.4482 47 20.5149 46.4667C19.8482 46.6667 19.3149 47.3333 19.3149 47.3333C19.0482 46.6667 18.9816 45.4 19.0482 44.6667C17.4482 45.2 18.9149 48.0667 16.9816 47.9333C17.5149 48.7333 18.1816 48.4 18.7816 48.4C19.1816 48.4 19.7149 48.6667 19.6482 49.3333C19.5816 49.8 16.9816 50.3333 15.9149 50.3333C15.1816 50.3333 14.6482 50.1333 14.3149 49.6C14.1149 49.3333 13.9816 49.2667 13.7816 49.2667C13.5149 49.3333 13.2482 49.5333 13.2482 50.2C13.2482 50.6 13.4482 51.5333 13.9149 51.5333C14.1816 51.6 14.1816 50.8 14.0482 50.3333Z" fill="white"/>
<path d="M11.3816 49.9333C11.4482 49.9333 11.5149 49.9333 11.5816 49.9333C11.3816 50.2 11.3816 50.4 11.4482 50.4667C11.5816 50.6 11.6482 50.3333 11.9816 50C12.3149 49.6667 12.5149 49.5333 12.4482 49.4C12.3816 49.3333 12.1816 49.3333 11.9149 49.5333C11.9149 49.4667 11.9816 49.4 11.9149 49.3333C11.7816 49 11.3149 48.6 10.9816 48.6C10.9149 48.6 10.9149 48.6 10.8482 48.6C10.9816 48.4 10.9149 48.2667 10.8482 48.1333C10.7816 48.0667 10.7149 48.1333 10.5816 48.2667C10.5816 48.2 10.5816 48.0667 10.5149 47.9333C10.1149 47.2667 7.84823 45.1333 7.3149 44.9333C6.98156 44.8 6.9149 45 6.9149 45C6.9149 45 6.7149 45.1333 6.84823 45.4C7.04823 45.9333 9.24823 48.1333 9.84823 48.5333C9.98157 48.6 10.1149 48.6667 10.1816 48.6C10.0482 48.7333 9.98156 48.7333 10.1149 48.8667C10.1816 48.9333 10.3149 49 10.5149 48.8667C10.5149 48.9333 10.5149 48.9333 10.5149 49C10.6482 49.2667 11.0482 49.8 11.3816 49.9333Z" fill="white"/>
<path d="M12.9816 51.5333C12.9816 51.3333 12.5816 50.9333 12.0482 50.9333C11.3149 50.9333 10.9816 51.4 10.9816 51.6667C10.9816 52.1333 11.4482 52.2 11.5816 52.2C12.0482 52.2 12.9149 51.6667 12.9816 51.5333Z" fill="white"/>
<path d="M12.3149 52.6667C12.1149 52.9333 12.0482 53.2 12.1149 53.4C12.1816 53.6667 12.4482 53.8 12.7149 53.8C12.9816 53.8 13.2482 53.6667 13.3816 53.4667C13.6482 53 13.6482 52 13.5816 51.9333C13.3149 51.9333 12.6482 52.2 12.3149 52.6667Z" fill="white"/>
<path d="M5.78157 42.2667C5.58156 42.0667 5.1149 42.4 4.84823 42.2C4.98157 41.5333 5.44823 42.2 5.84823 41.8C6.04823 41.6 5.9149 41.3333 5.84823 41.2667C5.64823 41.4667 5.38157 41.4 5.3149 41.2667C5.78157 40.0667 4.84823 38.8 3.9149 38.9333C4.1149 39.2 4.18157 40.0667 4.04823 40.2667C4.38157 40.5333 4.18157 41.1333 3.78157 40.9333C3.5149 40.8 3.04823 40.1333 3.58157 39.7333C3.58157 39.5333 3.24823 39.5333 2.98157 39.9333C3.18157 39.2 1.78157 39.4 1.5149 39.6C1.38157 39.9333 1.18157 41.3333 1.9149 41.0667C1.5149 41.4 1.58157 41.7333 1.7149 41.7333C2.18157 41.2 2.78157 41.6 2.9149 41.8667C3.1149 42.2667 2.5149 42.5333 2.24823 42.2C2.04823 42.2667 1.18157 42.2667 0.981566 42.0667C0.848232 43 2.18157 44 3.3149 43.4667C3.44823 43.4667 3.5149 43.8 3.3149 44C3.38157 44.1333 3.7149 44.2 3.84823 44C4.3149 43.5333 3.64823 43.0667 4.24823 42.9333C4.38157 43.2 4.1149 43.6667 4.3149 43.8667C4.64823 44.2 5.04823 43.5333 5.5149 43.5333C5.5149 43 6.1149 42.6 5.78157 42.2667ZM2.3149 40.7333C2.3149 40.7333 2.1149 40.6 2.38157 40.2667C2.64823 40 2.78157 40.2 2.78157 40.2C2.78157 40.2 3.04823 40.7333 3.1149 41C2.84823 41 2.3149 40.7333 2.3149 40.7333ZM4.44823 42.4C4.3149 42.4 3.98157 42.7333 3.84823 42.5333L3.1149 41.8L3.9149 41L4.64823 41.7333C4.7149 41.9333 4.44823 42.2667 4.44823 42.4Z" fill="white"/>
<path d="M5.98156 43.6C5.9149 43.6 5.84823 43.6 5.78157 43.6667C5.7149 43.7333 5.7149 43.8667 5.7149 44C5.7149 44.1333 5.84823 44.2667 5.98156 44.4C6.04823 44.6 6.24823 44.6667 6.38157 44.6667C6.44823 44.6667 6.5149 44.6667 6.58156 44.6C6.7149 44.4667 6.64823 44.0667 6.44823 43.8667C6.3149 43.7333 6.1149 43.6 5.98156 43.6Z" fill="white"/>
<path d="M3.84823 41.4L3.44823 41.8C3.44823 41.8 3.84823 42.3333 4.18157 42.1333C4.38157 41.8 3.84823 41.4 3.84823 41.4Z" fill="white"/>
<path d="M42.7816 39.4C42.7816 39.5333 42.2482 39.8 41.8482 39.0667C41.4482 39 41.0482 38.8667 40.7816 38.7333C41.2482 39.6667 41.6482 40.4667 42.3149 40.8667C43.3149 41.4667 44.8482 41.3333 45.3149 40.6667C44.4482 40.2 43.4482 39 42.9149 37.8667C42.7816 38.1333 42.5816 38.6 42.4482 38.9333C42.5149 39.0667 42.6482 39.2667 42.7816 39.4Z" fill="white"/>
<path d="M52.0482 24.8C53.1149 24.3333 54.6482 23.2667 55.3816 22.6C55.4482 22.7333 55.7149 23.3333 54.9149 24C54.3149 24.4667 53.1149 25.0667 52.2482 25.4C51.8482 26 51.0482 26.6667 49.9816 27.4C52.1149 27.0667 54.6482 26.2 55.9149 25C58.2482 22.6667 57.0482 19.8667 56.7149 19.2C55.1816 21.1333 52.2482 23.1333 49.5149 24.2C50.4482 24.3333 51.3816 24.5333 52.0482 24.8Z" fill="white"/>
<path d="M50.3149 20.5333C51.7149 19.4 53.1816 17.1333 53.4482 16.3333C53.7816 16.5333 53.9149 17.2 53.5149 17.9333C52.7816 19.2 51.4482 20.3333 50.3149 21.2667C50.2482 22.0667 49.9149 23.0667 49.5149 23.8C51.1816 22.6667 53.1149 21 53.9816 19.8667C55.1149 18.4 55.5816 16.9333 55.3816 15.4667C55.4482 13.8 54.2482 12.1333 53.7816 11.7333C53.4482 13.5333 51.6482 16.6 50.0482 18.3333C50.1816 18.9333 50.3149 19.8 50.3149 20.5333Z" fill="white"/>
<path d="M49.2482 31.0667C49.5816 31.4667 49.9149 31.9333 50.1816 32.3333C51.4482 32.6 52.9816 32.5333 52.9816 32.5333C52.9816 32.5333 52.9149 33.2 52.0482 33.2667C51.6482 33.2667 50.4482 33.0667 49.9816 32.9333C49.7816 33 48.8482 33.2667 47.9149 33.4C49.2482 33.8667 51.1816 34.3333 52.3816 34.3333C52.5149 34.3333 52.5816 34.3333 52.7149 34.3333C54.6482 34.1333 55.6482 32.3333 55.7149 31.3333C55.1149 31.4667 54.1149 31.5333 53.1149 31.5333C52.1816 31.5333 50.5149 31.4667 49.2482 31.0667Z" fill="white"/>
<path d="M57.3149 26C55.5816 26.9333 52.5149 27.8667 50.0482 27.8667C50.6482 28.2667 51.2482 28.6667 51.6482 29.0667C52.6482 29 54.0482 28.6667 54.8482 28.4C54.8482 28.5333 54.8482 29.2 53.9149 29.4667C53.2482 29.6667 52.3149 29.6667 51.5816 29.6667C50.9816 30.0667 50.1149 30.4 49.3816 30.6667C50.0482 30.7333 50.9149 30.8 51.6482 30.8C52.9149 30.8 54.1149 30.6667 54.8482 30.4C55.5149 30.2 57.7149 29.2667 57.3149 26Z" fill="white"/>
<path d="M47.9816 35.2C48.7149 35.5333 49.5149 35.8 50.1816 35.8667C50.1816 35.8667 50.0482 36.5333 49.0482 36.4C48.4482 36.3333 47.7816 35.8667 47.6482 35.8C47.1816 35.8667 46.2482 35.8667 45.9149 35.8C47.0482 36.6 48.7816 37.5333 50.2482 37.6667C50.3149 37.6667 50.3816 37.6667 50.4482 37.6667C51.9816 37.6667 53.1816 36.1333 53.5149 35.4C51.9816 35.4 49.3149 34.7333 47.7149 33.8667C47.7816 34.1333 47.9149 34.6667 47.9816 35.2Z" fill="white"/>
<path d="M45.3149 37.2667C45.7149 37.7333 46.3816 38 46.3816 38C46.3816 38 46.1816 38.3333 45.7816 38.3333C45.6482 38.3333 45.5149 38.2667 45.3816 38.2C45.1149 38.0667 44.7149 37.6 44.7149 37.6C44.1816 37.5333 43.7149 37.4667 43.2482 37.3333C44.0482 38.3333 45.3816 39.6 46.8482 39.9333C47.0482 40 47.2482 40 47.5149 40C48.7816 40 49.8482 39.0667 50.1149 38.4667C48.6482 38.2667 46.5149 37.1333 45.4482 36.0667C45.4482 36.4667 45.3816 36.9333 45.3149 37.2667Z" fill="white"/>
<path d="M35.7816 53.6C36.5149 53.6 36.9816 53.3333 37.3149 52.6C36.3149 53.0667 35.2482 52.8 33.2482 52.2C33.2482 52.2 32.5149 52.5333 32.0482 52.6C33.2482 52.9333 34.9816 53.5333 35.2482 54.2C35.3816 54.7333 35.0482 54.8667 35.0482 54.8667C34.3816 54.0667 33.5816 53.6 31.8482 53.0667C31.8482 53.4 31.7816 53.6 31.7816 53.6C31.7816 53.6 31.4482 53.6667 30.6482 53.5333C31.3149 54.0667 32.9149 55.4667 33.1149 56.9333C33.2482 57.9333 32.5149 58 32.5149 58C32.4482 56.4667 31.7816 55.5333 30.3149 54C30.3149 54 30.0482 54.3333 29.7816 54.5333C29.7816 54.5333 29.2482 54.4667 28.8482 54.1333C29.0482 56.1333 29.1149 60.9333 28.9816 61.6667C28.9149 62.2 28.5816 62.4667 28.5816 62.4667C28.5816 62.4667 28.2482 62.2667 28.1816 61.6667C28.0482 60.8667 28.1816 56.0667 28.3149 54.1333C27.8482 54.4 27.3816 54.5333 27.3816 54.5333C27.0482 54.3333 26.8482 54 26.8482 54C25.4482 55.5333 24.7816 56.5333 24.6482 58C24.6482 58 23.9816 57.9333 24.0482 56.9333C24.2482 55.4667 25.8482 54.0667 26.5149 53.5333C25.7816 53.6667 25.3816 53.6 25.3816 53.6C25.3816 53.6 25.3149 53.4 25.3149 53.0667C23.5816 53.6 22.8482 54.0667 22.1149 54.8667C22.1149 54.8667 21.7816 54.8 21.9149 54.2C22.1816 53.5333 23.9149 53 25.1149 52.6C24.7149 52.5333 23.9149 52.2 23.9149 52.2C21.9816 52.8 20.8482 53.0667 19.8482 52.6C20.1149 53.3333 20.6482 53.6 21.3816 53.6C20.4482 53.9333 19.5816 54.8667 19.3149 55.8C19.9816 58.2667 22.1149 59 22.1149 59C21.5816 57.8 21.7816 55.4667 24.9816 53.8667C23.0482 55.8 22.2482 57.6 22.7816 59.2667C23.2482 60.8 24.8482 61.4 25.9816 61.4667C25.1816 58.9333 25.5149 56.6 27.2482 54.8C26.5149 56.8 25.4482 63 28.4482 64C31.4482 63 30.3816 56.8 29.6482 54.8C31.3816 56.6667 31.7149 58.9333 30.9149 61.4667C32.1149 61.4667 33.6482 60.8 34.1149 59.2667C34.6482 57.6 33.9149 55.8 31.9149 53.8667C35.1149 55.4667 35.3149 57.8667 34.7816 59C34.7816 59 36.9149 58.2667 37.5816 55.8C37.5816 54.8667 36.6482 54 35.7816 53.6Z" fill="white"/>
<path d="M15.1149 40.8667C15.7816 40.4667 16.1816 39.6667 16.6482 38.7333C16.3816 38.8667 15.9816 39 15.5816 39.0667C15.1816 39.8 14.6482 39.5333 14.6482 39.4C14.7816 39.2667 14.9149 39.0667 14.9816 38.9333C14.8482 38.6 14.6482 38.1333 14.5149 37.8667C13.9816 39.0667 12.9149 40.2 12.1149 40.6667C12.5816 41.3333 14.1149 41.4667 15.1149 40.8667Z" fill="white"/>
<path d="M7.38157 27.4C6.24823 26.6667 5.5149 26 5.1149 25.4C4.18157 25.0667 2.98157 24.4667 2.44823 24C1.64823 23.3333 1.9149 22.7333 1.98157 22.6C2.64823 23.3333 4.18157 24.3333 5.3149 24.8C5.98157 24.5333 6.9149 24.3333 7.84823 24.2C5.1149 23.2 2.18157 21.1333 0.648232 19.2667C0.314899 19.8667 -0.951767 22.7333 1.44823 25.0667C2.64823 26.2 5.24823 27.0667 7.38157 27.4Z" fill="white"/>
<path d="M7.84823 23.7333C7.44823 23 7.1149 22.0667 7.04823 21.2C5.9149 20.3333 4.64823 19.2 3.84823 17.8667C3.44823 17.1333 3.58157 16.4667 3.9149 16.2667C4.18157 17.0667 5.64823 19.3333 7.04823 20.4667C7.04823 19.7333 7.18157 18.8667 7.38157 18.2667C5.78157 16.5333 3.9149 13.4667 3.64823 11.6667C3.18157 12.0667 1.98157 13.7333 2.04823 15.4C1.84823 16.8667 2.3149 18.3333 3.44823 19.8C4.24823 20.9333 6.18157 22.6667 7.84823 23.7333Z" fill="white"/>
<path d="M7.18157 32.3333C7.38157 31.9333 7.78157 31.4667 8.1149 31.0667C6.84823 31.4 5.18157 31.4667 4.3149 31.4667C3.24823 31.4667 2.24823 31.4 1.7149 31.2667C1.78157 32.3333 2.78157 34.1333 4.7149 34.2667C4.84823 34.2667 4.9149 34.2667 5.04823 34.2667C6.24823 34.2667 8.18157 33.8 9.5149 33.3333C8.58157 33.2 7.64823 33 7.44823 32.8667C6.9149 33.1333 5.7149 33.3333 5.3149 33.2667C4.44823 33.2 4.38157 32.5333 4.38157 32.5333C4.38157 32.5333 5.9149 32.6 7.18157 32.3333Z" fill="white"/>
<path d="M2.5149 30.4667C3.24823 30.7333 4.38157 30.8667 5.7149 30.8667C6.5149 30.8667 7.3149 30.8 7.98156 30.7333C7.24823 30.4667 6.38157 30.1333 5.78157 29.7333C5.04823 29.7333 4.04823 29.6667 3.44823 29.5333C2.5149 29.2667 2.5149 28.6 2.5149 28.4667C3.3149 28.8 4.7149 29.1333 5.7149 29.1333C6.1149 28.8 6.64823 28.3333 7.3149 27.9333C4.9149 27.9333 1.78157 27 0.0482324 26.0667C-0.351768 29.2667 1.84823 30.2 2.5149 30.4667Z" fill="white"/>
<path d="M6.98156 37.6C7.04823 37.6 7.1149 37.6 7.18157 37.6C8.64823 37.4667 10.3816 36.5333 11.5149 35.7333C11.1816 35.8 10.1816 35.8 9.78156 35.7333C9.64823 35.8667 8.9149 36.2667 8.38157 36.3333C7.3149 36.4667 7.24823 35.8 7.24823 35.8C7.9149 35.7333 8.7149 35.4667 9.44823 35.1333C9.5149 34.6 9.64823 34.0667 9.78156 33.7333C8.1149 34.6667 5.44823 35.3333 3.9149 35.3333C4.24823 36.0667 5.44823 37.6 6.98156 37.6Z" fill="white"/>
<path d="M9.84823 40C10.0482 40 10.3149 40 10.5149 39.9333C11.9149 39.6 13.3149 38.3333 14.1149 37.3333C13.6482 37.4667 13.1816 37.6 12.6482 37.6C12.6482 37.6 12.3149 38 11.9816 38.2C11.8482 38.2667 11.7149 38.3333 11.5816 38.3333C11.1816 38.3333 10.9816 38 10.9816 38C10.9816 38 11.6482 37.6667 12.0482 37.2667C11.9816 36.9333 11.9149 36.4667 11.9149 36.0667C10.7816 37.2 8.7149 38.2667 7.24823 38.4667C7.5149 39.0667 8.5149 40 9.84823 40Z" fill="white"/>
<path d="M28.1149 3.53333C28.1149 3.86667 28.3816 4.06667 28.6482 4.06667C28.9149 4.06667 29.1816 3.8 29.1816 3.53333C29.1816 3.2 28.9149 3 28.6482 3C28.3816 2.93333 28.1149 3.2 28.1149 3.53333Z" fill="white"/>
<path d="M28.3149 2.33333H29.0482L28.9816 1.4L29.7816 1.53333V0.8L28.9816 0.866667L29.0482 0H28.3149L28.3816 0.866667L27.5816 0.8V1.53333L28.3816 1.4L28.3149 2.33333Z" fill="white"/>
<path d="M25.7149 11.1333C25.7816 11.1333 25.9149 11.2 25.9816 11.2H31.3149C31.4482 11.2 31.5149 11.2 31.5816 11.1333C31.7816 11.0667 31.8482 10.9333 31.9149 10.7333H25.3816C25.4482 11 25.5816 11.0667 25.7149 11.1333Z" fill="white"/>
<path d="M31.5816 10.3333C31.6482 10.3333 31.6482 10.2667 31.6482 10.2667V9.86667C31.6482 9.8 31.5816 9.8 31.5816 9.8H25.7816C25.7149 9.8 25.7149 9.86667 25.7149 9.86667V10.2667C25.7149 10.3333 25.7816 10.3333 25.7816 10.3333H31.5816Z" fill="white"/>
<path d="M32.1816 9.33333C32.3149 9.13333 33.0482 7.73333 33.0482 6.26667C33.0482 4.93333 31.3816 4.2 30.4482 4.2C30.3149 6.06667 29.5816 9 28.6482 9C27.7816 9 26.9816 6.06667 26.8482 4.2C25.8482 4.2 24.2482 4.93333 24.2482 6.26667C24.2482 7.73333 24.9816 9.2 25.1149 9.33333H32.1816Z" fill="white"/>
<path d="M28.6482 8.06667C29.1149 8.06667 29.6482 6.66667 29.8482 5.26667C29.8482 5 29.3816 4.6 28.6482 4.53333C27.9149 4.53333 27.4482 4.93333 27.4482 5.26667C27.6482 6.53333 28.2482 8.06667 28.6482 8.06667Z" fill="white"/>
<path d="M37.1149 29.9333C37.1149 29.7333 36.9816 29.6 36.7816 29.6H20.5816C20.3816 29.6 20.2482 29.7333 20.2482 29.9333V41.2C20.2482 41.2 20.2482 41.8 20.5149 42.4667C20.8482 43.2667 22.2482 44.6 23.9816 45.5333C26.4482 46.8 27.9149 47.8 28.6482 48.4C29.3816 47.8 30.8482 46.8 33.3149 45.5333C35.1149 44.6 36.4482 43.2667 36.7816 42.4667C37.1149 41.7333 37.0482 41.2 37.0482 41.2L37.1149 29.9333ZM31.6482 34V34.0667C31.8482 34.8667 32.0482 35.7333 32.1149 36.5333C32.7816 37.0667 33.3816 37.6 33.9149 38.1333C34.9149 37 35.4482 35.9333 35.4482 35.0667C34.9816 35.0667 34.5816 34.6667 34.5816 34.2C34.5816 34 34.6482 33.8667 34.7149 33.7333C34.2482 33.5333 33.7149 33.4667 33.2482 33.4667C32.8482 33.4667 32.4482 33.5333 31.9816 33.6H31.9149L31.7816 33.6667L31.8482 33.6C31.9149 33.4667 31.9149 33.4 31.9816 33.2667C33.3149 33 34.3816 33.1333 35.0482 33.5333C35.1816 33.4667 35.3149 33.4 35.4482 33.4C35.9149 33.4 36.3149 33.8 36.3149 34.2667C36.3149 34.6 36.1149 34.8667 35.8482 35C35.8482 35.9333 35.3149 37.1333 34.1816 38.4667C34.2482 38.5333 34.3149 38.6 34.3816 38.6667C34.4482 38.7333 34.4482 38.7333 34.5149 38.8V38.8667C34.4482 38.9333 34.3816 39 34.3149 39.0667H34.2482C34.2482 39.0667 34.2482 39.0667 34.1816 39.0667C34.1149 39 34.1149 39 34.1149 38.9333C34.0482 38.8667 34.0482 38.8 33.9816 38.7333C33.8482 38.8667 33.7149 39 33.5816 39.1333L33.4482 39.3333C33.2482 39.4667 33.0482 39.5333 32.9149 39.4667H32.8482L32.9149 39.4C33.2482 39.1333 33.5149 38.8 33.7816 38.6C33.3816 38.1333 32.8482 37.6667 32.3149 37.2C32.3816 37.6667 32.3816 38.1333 32.3816 38.6C32.3816 39 32.3816 39.4667 32.3149 39.9333C32.2482 40 32.1149 40.0667 32.0482 40.1333L31.9816 40.2V40.1333C32.0482 39.6 32.0482 39.0667 32.0482 38.6C32.0482 38.4667 32.0482 38.2667 32.0482 38.1333V38C32.0482 37.6667 31.9816 36.7333 31.9149 36.1333C31.8482 35.6 31.7149 35.0667 31.5816 34.5333V34.4667C31.6482 34.4 31.7149 34.3333 31.7816 34.2667L31.6482 34ZM26.1816 32.8C26.8482 31.2 27.7816 30.3333 28.7149 30.3333C29.6482 30.3333 30.5816 31.2 31.2482 32.8V32.8667H31.1816C31.1149 32.8667 31.0482 32.9333 30.9149 33H30.8482V32.9333C30.2482 31.5333 29.4482 30.7333 28.6482 30.7333C27.8482 30.7333 27.0482 31.5333 26.4482 32.9333V33H26.3816C26.3149 32.8667 26.1816 32.8667 26.1816 32.8ZM25.9149 33.2C26.1149 33.3333 26.7149 33.6667 27.3816 33.4667C27.9816 33.2667 28.6482 33.2667 28.6482 33.2667C28.6482 33.2667 29.3816 33.2667 29.9149 33.4667C30.5816 33.6667 31.1816 33.3333 31.3816 33.2C31.4482 33.2 31.4482 33.2 31.4482 33.2667C31.3816 33.5333 31.1816 34.2 30.1816 34.4667C29.2482 34.6667 28.7816 35.7333 28.6482 36.2C28.6482 36.2667 28.5816 36.2667 28.5149 36.2C28.3816 35.7333 27.9149 34.6667 26.9816 34.4667C25.9816 34.2667 25.7816 33.5333 25.7149 33.2667C25.8482 33.2 25.9149 33.2 25.9149 33.2ZM27.5149 35.8667C27.6482 35.8667 27.8482 35.8 27.9816 35.7333C28.0482 35.8667 28.1149 36.0667 28.1816 36.2C27.9816 36.3333 27.7816 36.4 27.5149 36.4C26.7816 36.4 26.2482 35.8 26.2482 35.1333C26.2482 34.9333 26.3149 34.8 26.3816 34.6667C26.5149 34.7333 26.6482 34.8 26.8482 34.8667C26.7816 34.9333 26.7816 35.0667 26.7816 35.1333C26.7149 35.5333 27.1149 35.8667 27.5149 35.8667ZM27.1816 35.0667C27.1816 35 27.1816 35 27.1816 34.9333C27.3816 35 27.5816 35.2 27.7149 35.3333C27.6482 35.4 27.5816 35.4 27.5149 35.4C27.3149 35.4 27.1816 35.2667 27.1816 35.0667ZM27.5149 36.8C27.7816 36.8 28.1149 36.7333 28.3816 36.5333C28.4482 36.6 28.5816 36.8667 28.6482 36.8667C28.7816 36.8667 28.8482 36.6 28.9149 36.5333C29.1816 36.6667 29.5149 36.8 29.7816 36.8C30.2482 36.8 30.6482 36.6 30.9816 36.3333C30.9816 36.3333 30.9816 36.3333 30.9816 36.4C31.1149 36.9333 31.1816 37.6 31.1149 37.8667C31.1149 38.1333 30.9816 38.4 30.9149 38.6667C30.7816 39 30.7149 39.2667 30.7149 39.2667C30.7149 39.2667 30.7149 39.3333 30.6482 39.4667C30.5816 39.7333 30.3816 40.2 30.1149 40.6667C29.5816 40.3333 29.0482 40.2 28.3816 40.2C27.7816 40.2 27.2482 40.3333 26.7816 40.6C26.5816 40.1333 26.3816 39.7333 26.3149 39.5333C26.2482 39.4 26.2482 39.3333 26.2482 39.3333C26.2482 39.3333 26.1149 39.0667 25.9816 38.6667C25.9149 38.4667 25.8482 38.2 25.8482 37.9333C25.8482 37.7333 25.7816 37.0667 25.9816 36.4667C25.9816 36.4 26.0482 36.3333 26.0482 36.2667C26.5149 36.5333 27.0482 36.8 27.5149 36.8ZM29.8482 35.8667C30.3149 35.8667 30.6482 35.5333 30.6482 35.0667C30.6482 34.9333 30.6482 34.8667 30.5816 34.8C30.7149 34.7333 30.9149 34.6667 31.0482 34.6C31.1149 34.7333 31.1816 34.9333 31.1816 35.0667C31.1816 35.8 30.5816 36.3333 29.9149 36.3333C29.6482 36.3333 29.4482 36.2667 29.2482 36.1333C29.3149 36 29.3816 35.8667 29.4482 35.6667C29.5149 35.8 29.7149 35.8667 29.8482 35.8667ZM29.6482 35.3333C29.7816 35.1333 29.9816 35 30.1816 34.9333C30.1816 35 30.1816 35 30.1816 35.0667C30.1816 35.2667 30.0482 35.4 29.8482 35.4C29.7816 35.4 29.7149 35.4 29.6482 35.3333ZM21.9149 33.4667C22.1149 33.4667 22.2482 33.5333 22.3816 33.6C22.8482 33.3333 23.3816 33.2 24.1149 33.2C24.5149 33.2 24.9149 33.2667 25.3816 33.3333H25.4482C25.4482 33.4 25.5149 33.5333 25.5816 33.6667L25.6482 33.7333L25.5149 33.6667C25.4482 33.6667 25.4482 33.6667 25.3816 33.6667C24.9816 33.6 24.5816 33.5333 24.1816 33.5333C23.7149 33.5333 23.1149 33.6 22.7149 33.8667C22.7816 34 22.8482 34.1333 22.8482 34.3333C22.8482 34.8 22.4482 35.2 21.9816 35.2C21.9816 36 22.5149 37.0667 23.5149 38.2667C24.0482 37.7333 24.6482 37.1333 25.3149 36.6667C25.3816 35.8667 25.5816 35 25.7816 34.2V34.1333L25.8482 34.2C25.9149 34.2667 25.9816 34.3333 26.0482 34.4C26.0482 34.4 26.0482 34.4 26.1149 34.4667V34.5333C25.9816 35.0667 25.8482 35.5333 25.7816 36.0667V36.1333C25.7149 36.5333 25.6482 37.0667 25.6482 37.6C25.6482 38 25.5816 38.3333 25.5816 38.6C25.5816 39 25.5816 39.4 25.6482 39.9333V40H25.5816C25.4482 39.9333 25.3816 39.9333 25.3149 39.9333H25.2482V39.8667C25.2482 39.5333 25.1816 39.0667 25.1816 38.6C25.1816 38.1333 25.1816 37.6667 25.2482 37.2C24.7149 37.6667 24.1816 38.1333 23.7816 38.6C24.1149 39 24.5816 39.4 25.1149 39.8667L25.1816 39.9333H25.1149C24.9816 40 24.7816 40 24.6482 39.9333C24.2482 39.5333 23.9149 39.2667 23.5816 38.9333C23.5149 39 23.4482 39.0667 23.4482 39.1333L23.3816 39.2C23.3149 39.2 23.2482 39.2667 23.1149 39.3333L23.0482 39.2667C23.0482 39.2667 22.9816 39.2667 22.9816 39.2H22.9149V39.1333C23.0482 38.9333 23.1816 38.8 23.3149 38.6667C22.1816 37.4 21.6482 36.2 21.6482 35.2667C21.3816 35.1333 21.1816 34.8667 21.1816 34.5333C21.0482 33.8667 21.4482 33.4667 21.9149 33.4667ZM31.3816 43.8C30.9149 45.1333 30.2482 46.0667 29.5149 46.4667C29.4482 46.8667 29.1149 47.2 28.7149 47.2C28.3149 47.2 27.9816 46.8667 27.9149 46.4667C27.1816 46.0667 26.5149 45.2 26.0482 43.8667V43.8L26.4482 43.6667V43.7333C26.8482 44.8667 27.3816 45.6667 27.9816 46.0667C28.1149 45.7333 28.3816 45.4667 28.7816 45.4667C29.1816 45.4667 29.4482 45.7333 29.5816 46C30.1816 45.6 30.7149 44.8 31.1149 43.7333V43.6667H31.1816C31.1816 43.7333 31.2482 43.7333 31.3816 43.8ZM27.9816 43.7333C27.9816 43.4667 28.0482 42.7333 28.1816 42.4667C28.3149 42.4 28.5149 42.3333 28.7149 42.3333C28.9149 42.3333 29.1149 42.4 29.3149 42.5333C29.3816 42.8 29.5149 43.4667 29.5149 43.7333C29.5149 44 28.8482 44.2 28.7816 44.2667C28.5816 44.2 27.9816 44.0667 27.9816 43.7333ZM36.5149 41.0667C36.4482 41.1333 36.3816 41.2 36.3149 41.2C36.2482 41.2 36.1816 41.2667 36.0482 41.2667H35.9816C35.8482 41.2667 35.7149 41.2667 35.6482 41.2C35.5816 41.2 35.5816 41.1333 35.5149 41.1333C35.3149 41.1333 34.8482 41.2667 34.7149 41.3333C34.7816 41.3333 35.3816 41.4 35.7816 41.7333C35.9816 41.8667 36.3816 41.9333 36.5149 41.9333C36.5149 42 35.8482 42.4667 34.5816 42.2L34.2482 42.1333C33.6482 42 33.1149 41.9333 32.5149 41.9333C32.5816 41.9333 32.6482 42 32.6482 42C32.7816 42.0667 32.9816 42.1333 33.1149 42.2C33.1149 42.2 33.1816 42.2 33.1816 42.2667H33.2482C33.3149 42.2667 33.3816 42.2667 33.3816 42.3333C33.4482 42.3333 33.5149 42.4 33.5816 42.4C33.6482 42.4667 33.7816 42.5333 33.7816 42.6C33.7816 42.6667 33.8482 42.6667 33.8482 42.7333C33.8482 42.8667 33.8482 42.9333 33.7816 43.0667C33.5816 43.3333 33.3149 43.3333 33.0482 43.0667L32.9816 43C32.9149 42.9333 32.8482 42.8667 32.7816 42.7333V42.6667C32.7816 42.6667 32.7816 42.6667 32.7149 42.6667C32.5816 42.6 32.5149 42.4667 32.3816 42.4667C32.1816 42.4 31.9149 42.3333 31.7149 42.2667C31.6482 42.2667 31.5816 42.2667 31.5149 42.2667C31.7149 42.4 31.9149 42.5333 31.9816 42.6667C31.9816 42.6667 31.9816 42.6667 31.9816 42.7333C32.1149 42.9333 32.1149 43.1333 32.1816 43.3333C32.3816 43.7333 32.4482 43.8 32.6482 43.9333C32.4482 44 31.4482 44 30.9816 43.2667C30.9816 43.2667 30.9149 43.2 30.9149 43.1333C30.7816 42.8667 30.7149 42.6 30.6482 42.4C30.5816 42.2 30.7149 42 30.5816 41.9333C30.4482 41.8667 30.3816 41.9333 30.3816 41.9333C30.3149 42 30.3149 42 30.3149 42V42.0667C30.3149 42.1333 30.2482 42.1333 30.2482 42.1333V42.2C30.2482 42.2 30.2482 42.2667 30.1816 42.2667C30.1816 42.2667 30.1816 42.2667 30.1149 42.2667C30.0482 42.2667 30.0482 42.2667 29.9816 42.2667C29.9816 42.2667 29.9816 42.2667 29.9149 42.2667C29.9149 42.2667 29.8482 42.2667 29.8482 42.3333C29.7816 42.3333 29.7149 42.4 29.6482 42.4C29.5816 42.4 29.5149 42.3333 29.5149 42.2667C29.5149 42.2 29.5149 42.2 29.5149 42.1333C29.4482 42.1333 29.4482 42.1333 29.3816 42.1333C29.3149 42.1333 29.3149 42.1333 29.2482 42.0667C29.2482 42 29.2482 41.9333 29.2482 41.9333C29.2482 41.8667 29.2482 41.8667 29.2482 41.8667C29.1816 41.9333 29.1816 41.9333 29.1149 41.9333C29.0482 41.9333 29.0482 41.9333 28.9816 41.9333C28.9149 41.9333 28.9149 41.8667 28.9149 41.8V41.7333C28.9149 41.7333 28.9149 41.7333 28.9149 41.6667C28.9149 41.6667 28.9149 41.6667 28.8482 41.6667H28.7816C28.7149 41.6667 28.5816 41.6 28.5149 41.6C28.5149 41.6 28.5149 41.6 28.4482 41.6C28.3816 41.6 28.2482 41.6667 28.1816 41.6667H28.0482C28.0482 41.6667 28.0482 41.6667 28.0482 41.6C28.0482 41.6 28.0482 41.6 28.0482 41.5333L28.1149 41.4667C28.1149 41.4667 28.1149 41.4667 28.1149 41.4C28.0482 41.4 28.0482 41.4 27.9816 41.4V41.4667C27.9816 41.4667 27.9816 41.4667 27.9149 41.4667V41.6C27.9149 41.6667 27.9149 41.7333 27.8482 41.7333C27.7816 41.8 27.7816 41.8 27.7149 41.7333C27.7149 41.7333 27.6482 41.7333 27.6482 41.6667C27.6482 41.6667 27.5816 41.6667 27.5816 41.6C27.5816 41.6 27.5816 41.6667 27.6482 41.6667C27.6482 41.7333 27.6482 41.7333 27.6482 41.8C27.5816 41.8667 27.5816 41.8667 27.5149 41.8667H27.3816C27.3816 41.9333 27.4482 41.9333 27.3816 42C27.3816 42.0667 27.3149 42.0667 27.2482 42.0667C27.1816 42.0667 27.1816 42.0667 27.1149 42.0667C27.1149 42.0667 27.1149 42.0667 27.0482 42.0667H26.9816L26.9149 42C26.9149 42 26.8482 42 26.7816 42C26.7816 42 26.7149 42 26.7149 41.9333L26.6482 41.8667V41.8C26.5149 41.6667 26.3149 42.1333 26.3149 42.1333C25.7149 43.4 24.2482 43.6667 24.2482 43.6C24.2482 43.6 24.5816 43.4667 24.7149 43C24.7816 42.7333 24.7816 42.6667 24.9149 42.4C24.9149 42.3333 24.9816 42.3333 24.9816 42.2667C25.0482 42.1333 25.2482 42.0667 25.3816 41.9333C25.3149 41.9333 25.2482 41.9333 25.1816 41.9333C24.9816 42 24.7816 42 24.5149 42.1333C24.3816 42.2 24.3149 42.2667 24.1816 42.3333C24.1816 42.3333 24.1816 42.3333 24.1149 42.3333V42.4C24.1149 42.4667 24.0482 42.5333 23.9816 42.6667L23.9149 42.7333C23.6482 43 23.4482 43 23.1816 42.7333L23.1149 42.6667C23.0482 42.6 23.0482 42.4667 23.1149 42.4C23.1149 42.3333 23.1816 42.2667 23.2482 42.2C23.3149 42.1333 23.3816 42.1333 23.4482 42.0667C23.5149 42 23.5816 42 23.6482 42C23.7149 42 23.7149 42 23.7816 41.9333C23.7816 41.9333 23.8482 41.9333 23.9149 41.9333C23.9149 41.9333 23.9149 41.8667 23.9816 41.8667C24.0482 41.8667 24.1149 41.8 24.1816 41.8C24.2482 41.8 24.3149 41.7333 24.3816 41.7333C24.3816 41.7333 24.4482 41.7333 24.5149 41.6667C23.9816 41.6667 23.4482 41.7333 22.8482 41.8667C22.7816 41.8667 22.6482 41.9333 22.5149 41.9333C21.8482 42.0667 20.5816 41.7333 20.5816 41.6667C20.5816 41.6 20.9149 41.6 21.2482 41.4C21.5149 41.2667 21.6482 41.1333 21.8482 41.0667C22.1816 41.3333 22.5816 41.3333 22.6482 41.3333C22.5149 41.2667 21.9149 41.2 21.7149 41.1333C21.7149 41.1333 21.6482 41.2 21.5816 41.2C21.4482 41.2667 21.3149 41.2667 21.1816 41.2667C21.1149 41.2667 20.9816 41.2667 20.9149 41.2C20.8482 41.2 20.7816 41.1333 20.7149 41.0667C20.6482 41 20.6482 40.9333 20.6482 40.7333C20.7149 40.4667 20.9816 40.3333 21.3149 40.4C21.5149 40.4667 21.6482 40.5333 21.7149 40.6L21.7816 40.6667C21.9816 40.6667 22.2482 40.8 22.5149 40.8667C22.7816 41 22.9816 41.0667 23.1149 41.0667C23.0482 41.0667 22.9816 41 22.9149 41C22.8482 41 22.7816 40.9333 22.7816 40.9333C22.7149 40.8667 22.6482 40.8667 22.5816 40.8C22.1816 40.6 21.7816 40.4 21.5149 40.1333C21.3149 39.8667 21.2482 39.7333 21.1816 39.4667C21.1149 38.8667 20.8482 38.6 20.8482 38.5333C20.9149 38.4667 21.8482 38.9333 22.1816 39.2667C22.3816 39.5333 22.4482 39.7333 22.5149 39.9333V40C22.5816 40.2 22.7816 40.4 23.1149 40.6C23.1816 40.6 23.1816 40.6667 23.2482 40.6667C23.1816 40.5333 23.1149 40.4667 23.0482 40.3333V40.2667L22.9816 40.2C22.9816 40.2 22.9149 40.1333 22.9149 40.0667C22.8482 40 22.8482 39.9333 22.7816 39.8667C22.7149 39.6667 22.7149 39.4667 22.7816 39.4C22.8482 39.3333 22.9149 39.2667 23.0482 39.2C23.3149 39.1333 23.5149 39.2667 23.5816 39.6667C23.5816 39.7333 23.5816 39.8 23.5816 39.8667C23.5816 39.9333 23.5816 40 23.5816 40.0667V40.1333C23.5816 40.1333 23.5816 40.1333 23.5816 40.2C23.7149 40.6 24.0482 40.9333 24.4482 41.2C23.9816 40.8 23.7149 39.8667 23.7816 39.8667C23.8482 39.8 24.2482 40.0667 24.6482 40.2667C24.8482 40.3333 25.0482 40.4667 25.2482 40.6C25.3816 40.6667 25.5149 40.8 25.5816 40.8667C25.7149 40.9333 25.7816 41.0667 25.8482 41.1333C25.9149 41.2 25.9816 41.2667 26.0482 41.3333C26.1149 41.4 26.1149 41.4 26.1816 41.4667C26.3149 41.5333 26.5149 41.4667 26.5149 41.4667C26.5816 41.4667 26.6482 41.4667 26.7149 41.4C26.7149 41.4 26.7149 41.4 26.7816 41.3333C26.8482 41.2667 26.9149 41.2667 26.9816 41.2667V41.2C26.9816 41.0667 27.0482 41 27.1816 40.9333C27.1816 40.9333 27.2482 40.9333 27.2482 40.8667H27.4482C27.4482 40.8 27.5149 40.8 27.5816 40.7333C27.7149 40.6667 27.9149 40.6667 28.0482 40.8C28.1149 40.8667 28.1149 40.9333 28.1816 41V41.0667C28.1816 41.1333 28.1816 41.1333 28.1816 41.2C28.1816 41.2667 28.1816 41.2667 28.1816 41.3333C28.2482 41.3333 28.3816 41.3333 28.4482 41.3333C28.5149 41.3333 28.5149 41.3333 28.5816 41.3333C28.6482 41.3333 28.7149 41.3333 28.7816 41.4C28.8482 41.4 28.9149 41.3333 28.9816 41.3333C29.0482 41.3333 29.0482 41.3333 29.1149 41.3333H29.1816C29.1816 41.2667 29.1816 41.2 29.1816 41.1333C29.1816 41.0667 29.1816 41 29.2482 40.9333C29.2482 40.9333 29.2482 40.8667 29.3149 40.8667L29.3816 40.8C29.5149 40.7333 29.6482 40.7333 29.7816 40.8C29.8482 40.8 29.8482 40.8667 29.9149 40.9333C29.9816 40.9333 29.9816 40.9333 30.0482 40.9333H30.1816C30.3149 41 30.3816 41.0667 30.3816 41.2C30.3816 41.2 30.3816 41.2 30.4482 41.2H30.5149C30.5149 41.2 30.8482 41.2 30.9149 41.2667H31.2482C31.3149 41.2 31.3149 41.2 31.3816 41.1333C31.4482 41.0667 31.5816 40.9333 31.6482 40.8667C31.7816 40.8 31.8482 40.6667 31.9816 40.6C32.1816 40.4667 32.4482 40.4 32.6482 40.3333C33.3149 40.0667 33.3816 39.6667 33.4482 39.6667C33.5149 39.7333 33.3149 40.8 32.8482 41.2C33.1816 40.9333 33.5149 40.6 33.7149 40.2C33.7149 40.2 33.7149 40.2 33.7149 40.1333V40.0667C33.7149 40 33.7149 39.9333 33.7149 39.8667C33.7149 39.8 33.7149 39.7333 33.7149 39.6667C33.8482 39.3333 33.9816 39.1333 34.2482 39.2C34.3816 39.2667 34.4482 39.3333 34.5149 39.4C34.5816 39.5333 34.5816 39.6667 34.5149 39.8667C34.5149 39.9333 34.4482 40 34.3816 40.0667C34.3149 40.1333 34.3149 40.1333 34.2482 40.2L34.1816 40.2667V40.3333C34.1149 40.4667 34.0482 40.5333 33.9149 40.6667C33.9816 40.6 33.9816 40.6 34.0482 40.5333C34.3816 40.2667 34.5816 40.0667 34.6482 39.8667C34.7149 39.6667 34.7816 39.4667 34.9816 39.2C35.3149 38.8667 35.3816 38.7333 35.7149 38.5333C35.7816 38.4667 36.2482 38.4 36.3149 38.4C36.3816 38.4667 35.9816 38.6 35.8482 39.2667C35.7816 39.4667 35.7149 39.8 35.5149 40.0667C35.2482 40.4 34.9816 40.4667 34.6482 40.6667L34.5816 40.7333C34.5149 40.8 34.4482 40.8 34.3149 40.8667C34.1816 40.9333 34.1149 41 34.0482 41C34.2482 40.9333 34.4482 40.8667 34.7149 40.8C34.9149 40.6667 35.1816 40.6 35.4482 40.6C35.4482 40.6 35.4482 40.5333 35.5149 40.5333C35.5816 40.4667 35.7149 40.4 35.9149 40.3333C36.2482 40.2 36.5149 40.3333 36.5816 40.6667C36.6482 40.8667 36.5816 41 36.5149 41.0667Z" fill="white"/>
<path d="M48.1816 27.6667C49.1816 27.2 50.8482 26.0667 51.5149 25.2667C50.5816 24.9333 48.7149 24.7333 47.6482 24.7333C49.8482 23.2 49.9149 20 49.3149 17.6667C48.7816 19.5333 47.4482 21.0667 46.5816 22C46.6482 22.9333 46.3816 24.5333 45.8482 25.4667C46.5816 25.7333 47.4482 26.1333 48.0482 26.6C47.6482 27.1333 46.7816 27.8667 46.2482 28.3333C46.7149 28.8 47.4482 29.6667 47.8482 30.2C47.3149 30.6 46.2482 31 45.6482 31.2C45.9149 31.8 46.3149 32.8 46.4482 33.5333C45.7816 33.6667 44.9149 33.7333 43.9816 33.7333C44.0482 34.4 43.9149 35.4667 43.7816 36.1333C42.9149 36.0667 41.9149 35.7333 41.4482 35.4667C41.1816 36.4 40.5816 37.3333 40.5816 37.4C39.7816 36.4667 38.9816 36.1333 38.2482 36.1333V35.5333C38.9816 35.5333 39.7816 35.8 40.3816 36.4C40.6482 35.9333 40.9149 35.0667 41.0482 34.5333C41.5816 34.8 42.4482 35.1333 43.1816 35.2667C43.2482 34.6 43.3149 33.7333 43.2482 33.0667C43.9816 33.1333 44.7816 33.1333 45.6482 33C45.5149 32.4 44.9816 31.4 44.6482 30.8667C45.3816 30.6667 46.3149 30.2667 46.7816 30C46.3816 29.4667 45.7149 28.7333 45.2482 28.2667C45.7816 27.8667 46.6482 27.2 46.9816 26.8C46.3816 26.4 45.5816 26 44.9149 25.7333C45.8482 24.4667 46.0482 21.8667 45.8482 20.6667C45.0482 23.4 42.6482 25.4 41.1816 26.3333C41.1149 26.4 41.0482 26.4667 40.9816 26.4667C40.9149 26.5333 40.6482 26.8667 40.7816 27.2667C40.7816 27.4 40.8482 27.4667 40.8482 27.6C40.9816 28.1333 40.9816 28.9333 40.1816 29.6667C39.5149 30.2667 38.7149 30.3333 38.2482 30.2667V28.8C38.2482 28.6 38.1149 28.4667 37.9149 28.4667H36.9149L36.4482 28C36.4482 28 36.9149 28 37.4482 28C37.9816 27.9333 38.5816 27.6667 38.5816 27.6667C38.5816 27.6667 37.9816 27.6667 37.7149 27.6C37.3816 27.6667 36.6482 27.3333 36.0482 26.6667C35.8482 26.4 35.6482 26.1333 35.5149 25.8667C34.9816 25.4 34.3816 24.8 33.9816 23.9333C33.7149 23.3333 33.5816 22.4667 33.5149 21.9333C33.3149 22.0667 33.1149 22.3333 32.8482 22.6667C32.3816 23.2667 32.1816 24.1333 32.1816 24.1333L31.9816 24.8L31.6482 24.2C31.6482 24.2 31.1816 23.4 31.1149 22.4C31.1149 21.9333 31.1149 21.5333 31.1816 21.2C31.0482 21.2667 30.8482 21.4 30.6482 21.5333C29.8482 22.1333 29.3816 22.7333 29.3816 22.7333C28.9816 23.2667 28.7149 23.7333 28.6482 23.9333C28.5816 23.6667 28.3149 23.2667 27.9149 22.7333C27.9149 22.7333 27.5149 22.0667 26.6482 21.5333C26.4482 21.4 26.2482 21.2667 26.1149 21.2C26.1816 21.5333 26.1816 22 26.1816 22.4C26.1149 23.4 25.6482 24.1333 25.6482 24.2L25.3149 24.7333L25.1149 24.0667C25.1149 24.0667 24.8482 23.2 24.4482 22.6C24.1816 22.2667 23.9816 22 23.7816 21.8667C23.7149 22.4 23.5816 23.3333 23.3149 23.8667C22.9149 24.7333 22.3816 25.4 21.7816 25.8C21.6482 26.0667 21.4482 26.3333 21.2482 26.6C20.6482 27.2667 19.9149 27.6 19.5816 27.6667C19.3149 27.7333 18.7149 27.7333 18.7149 27.7333C18.7149 27.7333 19.3149 28 19.8482 28.0667C20.3816 28.1333 20.8482 28.0667 20.8482 28.0667L20.3816 28.5333H19.3816C19.1816 28.5333 19.0482 28.6667 19.0482 28.8667V30.3333C18.5816 30.4 17.7149 30.3333 17.1149 29.7333C16.3816 29 16.3149 28.2 16.4482 27.6667C16.5149 27.6 16.5149 27.4667 16.5149 27.3333C16.6482 26.9333 16.3816 26.6 16.3149 26.5333C16.2482 26.4667 16.1816 26.4 16.1149 26.4C14.6482 25.4667 12.3149 23.4667 11.4482 20.7333C11.2482 21.9333 11.5149 24.4667 12.3816 25.8C11.7149 26.0667 10.8482 26.4667 10.3149 26.8667C10.6482 27.2667 11.5149 28 12.0482 28.3333C11.5816 28.7333 10.8482 29.5333 10.5149 30.0667C10.9816 30.3333 11.9149 30.7333 12.6482 30.9333C12.3149 31.4667 11.7816 32.4667 11.6482 33.0667C12.4482 33.2 13.3149 33.2 14.0482 33.1333C13.9816 33.8 14.0482 34.7333 14.1149 35.3333C14.8482 35.2 15.7149 34.9333 16.2482 34.6C16.3816 35.0667 16.6482 36 16.9149 36.4667C17.5149 35.8667 18.3149 35.6 19.0482 35.6V36.2C18.3149 36.2 17.5149 36.5333 16.7149 37.4667C16.7149 37.4 16.1149 36.4667 15.8482 35.5333C15.3816 35.7333 14.3816 36.1333 13.5149 36.2C13.3816 35.5333 13.3149 34.4667 13.3149 33.8C12.3816 33.8 11.5149 33.7333 10.8482 33.6C10.9816 32.8667 11.3816 31.8667 11.6482 31.2667C11.0482 31.0667 9.98156 30.6 9.44823 30.2667C9.78156 29.7333 10.5816 28.8667 11.0482 28.4C10.5149 28 9.64823 27.2 9.24823 26.6667C9.84823 26.2 10.7149 25.8 11.4482 25.5333C10.9149 24.5333 10.6482 22.9333 10.7149 22.0667C9.78157 21.1333 8.44823 19.6 7.98156 17.7333C7.3149 20.0667 7.44823 23.3333 9.64823 24.8C8.58156 24.8 6.7149 25.0667 5.78157 25.3333C6.44823 26.1333 8.1149 27.2 9.1149 27.7333C8.3149 28 6.9149 28.8 6.3149 29.3333C7.04823 29.8 8.7149 30.3333 9.5149 30.5333C9.04823 30.9333 8.1149 32 7.78156 32.5333C8.44823 32.7333 9.78156 32.9333 10.6482 32.9333C10.3816 33.5333 10.0482 34.5333 9.98156 35.1333C10.3816 35.2 11.7816 35.1333 12.5149 34.9333C12.4482 35.5333 12.4482 36.5333 12.5816 37C13.2482 36.9333 14.2482 36.6 14.7149 36.4667C14.8482 37 15.3149 38.0667 15.5149 38.3333C15.8482 38.2667 16.1816 38.2 16.5149 38.0667C17.4482 37.7333 18.4482 38.1333 18.8482 39C19.5149 40.5333 19.2482 42.3333 17.9816 42C16.5149 42.2667 17.5149 44.1333 16.6482 44.7333C17.7816 45.5333 18.1149 43.6667 19.5816 44C19.4482 44.6667 19.4482 45.9333 19.5816 46.4667C20.0482 46.1333 20.7149 45.8667 21.1149 45.8C20.9816 46.2 20.9149 47.1333 21.0482 47.7333C21.3149 47.5333 23.2482 47 23.2482 47C23.2482 47 22.5149 48.4667 22.9816 49.9333C23.2482 50.1333 24.9816 49.2667 24.9816 48.8C25.0482 49.4 24.3149 50.7333 23.1816 51C24.3816 52.2 25.4482 52.1333 25.5816 52.1333C25.7816 52.1333 25.9149 52.1333 26.0482 52C25.9816 52.3333 25.9149 52.8 25.9816 53.0667C26.0482 53.0667 26.1149 53.0667 26.1816 53.0667C26.5149 53.0667 26.7816 53 26.9816 52.9333C27.0482 53.2667 27.1816 53.6 27.3816 53.8667C27.4482 53.9333 27.4482 53.9333 27.5149 54C27.7816 54 28.4482 53.6667 28.5816 53.4667C28.7149 53.6667 29.3816 54 29.6482 54C29.7149 53.9333 29.7816 53.9333 29.7816 53.8667C30.0482 53.6 30.1816 53.2 30.1816 52.9333C30.4482 53.0667 30.7149 53.0667 30.9816 53.0667C31.0482 53.0667 31.1149 53.0667 31.1816 53.0667C31.2482 52.8 31.2482 52.3333 31.1149 52C31.2482 52.0667 31.4482 52.1333 31.5816 52.1333C31.7149 52.1333 32.7816 52.2 33.9816 51C32.8482 50.7333 32.1149 49.4 32.1816 48.8C32.1816 49.3333 33.9149 50.1333 34.1816 49.9333C34.6482 48.4667 33.9149 47 33.9149 47C33.9149 47 35.7816 47.4667 36.1149 47.7333C36.2482 47.1333 36.1816 46.2 36.0482 45.8C36.4482 45.8 37.1149 46.1333 37.5816 46.4667C37.7149 45.9333 37.7149 44.7333 37.5816 44C38.9816 43.6667 39.3149 45.5333 40.5149 44.7333C39.7149 44.1333 40.7149 42.2667 39.1816 42C37.9149 42.4 37.6482 40.5333 38.3149 39C38.7149 38.1333 39.7816 37.7333 40.6482 38.0667C40.9816 38.2 41.3149 38.2667 41.6482 38.3333C41.7816 38.0667 42.3149 37 42.4482 36.4667C42.9149 36.6667 43.9149 36.9333 44.5816 37C44.6482 36.5333 44.7149 35.5333 44.6482 34.9333C45.3149 35.0667 46.7816 35.1333 47.1816 35.1333C47.1149 34.4667 46.7816 33.4667 46.5149 32.9333C47.3816 32.8667 48.7149 32.7333 49.3816 32.5333C49.0482 31.9333 48.1149 30.8667 47.6482 30.5333C48.4482 30.3333 50.1149 29.8 50.8482 29.3333C50.3816 28.7333 48.9816 27.9333 48.1816 27.6667ZM37.3816 42.6667C37.3149 42.8 37.2482 42.8667 37.1816 43C37.1816 43.0667 37.1149 43.0667 37.1149 43.1333C37.0482 43.2 36.9816 43.2667 36.9149 43.4C36.8482 43.4667 36.8482 43.4667 36.7816 43.5333C36.7149 43.6667 36.5816 43.7333 36.5149 43.8667C36.4482 43.9333 36.3816 44 36.3149 44.0667C36.2482 44.1333 36.1816 44.2 36.1149 44.2667C36.0482 44.3333 35.9816 44.4 35.8482 44.5333C35.7816 44.6 35.7816 44.6 35.7149 44.6667C35.5149 44.8667 35.2482 45.0667 34.9816 45.2C34.6482 45.4667 34.3149 45.6667 33.9149 45.8667C33.7816 45.9333 33.6482 46 33.5149 46.0667C30.5149 47.6 29.0482 48.8 28.5816 49.1333H28.5149C28.0482 48.7333 26.5816 47.6 23.5816 46.0667C23.4482 46 23.3149 45.9333 23.1816 45.8667C22.7816 45.6667 22.4482 45.4667 22.1149 45.2C21.8482 45 21.6482 44.8 21.3816 44.6667C21.3149 44.6 21.2482 44.6 21.2482 44.5333C21.1816 44.4667 21.0482 44.4 20.9816 44.2667C20.9149 44.2 20.8482 44.1333 20.7816 44.0667C20.7149 44 20.6482 43.9333 20.5816 43.8667C20.4482 43.7333 20.3816 43.6667 20.3149 43.5333C20.2482 43.4667 20.2482 43.4667 20.1816 43.4C20.1149 43.3333 20.0482 43.2667 19.9816 43.1333C19.9816 43.0667 19.9149 43.0667 19.9149 43C19.8482 42.8667 19.7816 42.8 19.7149 42.6667C19.3149 41.8 19.3816 41.0667 19.3816 41.0667V29.4C19.3816 29.2 19.5149 29.0667 19.7149 29.0667H37.3149C37.5149 29.0667 37.6482 29.2 37.6482 29.4V41.0667C37.7149 41.0667 37.7816 41.8 37.3816 42.6667Z" fill="white"/>
<path d="M36.9816 10.6667C37.2482 10.6667 37.3816 10.4667 37.3816 10.2C37.3816 9.93333 37.1816 9.73333 36.9816 9.73333C36.7149 9.73333 36.5816 9.93333 36.5816 10.2C36.5816 10.4667 36.7816 10.6667 36.9816 10.6667Z" fill="white"/>
<path d="M36.9816 13.1333C37.2482 13.1333 37.5149 12 37.5149 11.4667C37.5149 11.1333 37.2482 10.9333 36.9816 10.9333C36.7149 10.9333 36.4482 11.1333 36.4482 11.4667C36.4482 12 36.7149 13.1333 36.9816 13.1333Z" fill="white"/>
<path d="M36.7149 9.06667H37.3149L37.1816 8.33333L37.9149 8.4V7.8L37.1816 7.93333L37.3149 7.2H36.7149L36.7816 7.93333L36.0482 7.8V8.4L36.7816 8.33333L36.7149 9.06667Z" fill="white"/>
<path d="M34.3816 14.4667C34.5816 14.5333 34.7816 14.5333 34.9816 14.6H35.1149C35.1816 14.6 35.1816 14.6 35.1816 14.6H35.3149C35.3816 14.6 35.4482 14.6 35.5149 14.6C35.5816 14.6 35.5816 14.6 35.6482 14.6C35.7149 14.6 35.7816 14.6 35.8482 14.6C36.3816 14.6 36.9149 14.4667 37.4482 14.3333C37.9816 14.2 38.5149 14.0667 39.1149 14.0667H39.5149C39.6482 13.4667 39.8482 12.8 39.8482 12.4C39.8482 11.6 39.3816 10.7333 37.8482 10.4667C37.8482 11.4667 37.3816 13.8 36.8482 13.8H36.7816C36.2482 13.8 35.7816 11.4667 35.7816 10.4667C34.2482 10.7333 33.7816 11.6 33.7816 12.4C33.7816 12.8667 33.9816 13.7333 34.1816 14.3333C34.3816 14.4 34.3816 14.4 34.3816 14.4667Z" fill="white"/>
<path d="M42.3816 10.2667C42.3816 10.2667 41.9816 9.2 42.6482 8.86667C43.3816 8.6 42.3816 8.73333 42.9149 7.26667C43.5149 5.53333 44.8482 5.93333 44.8482 5.93333C43.9149 5.2 43.1816 5.26667 42.6482 5.66667C42.3149 5.93333 41.8482 6.46667 41.5149 7.53333C41.2482 8.86667 41.7149 10.1333 42.3816 10.2667Z" fill="white"/>
<path d="M45.8482 7.66667C45.9149 9.86667 49.5816 10.8 49.5816 10.8C49.5816 10.8 47.4482 9.26667 47.8482 8.13333C47.8482 8.13333 49.2482 8.73333 50.8482 8.46667C47.4482 7.73333 48.5816 6.66667 47.7149 5.8C46.8482 4.86667 45.5149 4.8 45.1816 4.73333C44.3149 4.66667 44.2482 4.66667 43.2482 4.93333C45.5816 5 45.8482 6.2 45.8482 7.66667Z" fill="white"/>
<path d="M45.3816 11.8C45.8482 10.0667 44.9816 9.26667 44.9816 9.26667C44.7149 8.93333 43.3149 9 42.7816 9.33333C42.7816 9.33333 44.1149 9.33333 43.9149 11.2667C43.7149 13.2 41.0482 13.6 40.3149 13.6667L40.2482 13.9333C41.5149 13.9333 44.8482 13.5333 45.3816 11.8Z" fill="white"/>
<path d="M31.4482 11.7333H30.1149C30.7816 13.6 32.7149 14.2 33.9816 14.4L33.9149 14.2C32.5816 13.6667 31.9149 13.1333 31.4482 11.7333Z" fill="white"/>
<path d="M20.3816 10.6667C20.6482 10.6667 20.7816 10.4667 20.7816 10.2C20.7816 9.93333 20.5816 9.73333 20.3816 9.73333C20.1149 9.73333 19.9816 9.93333 19.9816 10.2C19.9149 10.4667 20.1149 10.6667 20.3816 10.6667Z" fill="white"/>
<path d="M20.3816 13.1333C20.6482 13.1333 20.9149 12 20.9149 11.4667C20.9149 11.1333 20.6482 10.9333 20.3816 10.9333C20.1149 10.9333 19.8482 11.1333 19.8482 11.4667C19.8482 12 20.0482 13.1333 20.3816 13.1333Z" fill="white"/>
<path d="M20.0482 9.06667H20.6482L20.5816 8.33333L21.3149 8.4V7.8L20.5816 7.93333L20.6482 7.2H20.0482L20.1816 7.93333L19.4482 7.8V8.4L20.1816 8.33333L20.0482 9.06667Z" fill="white"/>
<path d="M17.7149 14.0667H17.9816C18.0482 14.0667 18.0482 14.0667 18.0482 14.0667H18.1149C18.7149 14.1333 19.3149 14.2 19.7816 14.3333C20.2482 14.4667 20.8482 14.6 21.3816 14.6C21.4482 14.6 21.5149 14.6 21.5816 14.6C21.6482 14.6 21.6482 14.6 21.7149 14.6C21.7816 14.6 21.8482 14.6 21.9149 14.6H22.2482C22.4482 14.6 22.6482 14.5333 22.8482 14.4667C22.8482 14.4 22.8482 14.4 22.9149 14.4C23.1149 13.8 23.3149 12.9333 23.3149 12.4667C23.3149 11.6667 22.9149 10.8 21.3149 10.5333C21.3149 11.4667 20.8482 13.8667 20.3149 13.8667H20.2482C19.7149 13.8667 19.2482 11.5333 19.2482 10.5333C17.7149 10.8 17.2482 11.6667 17.2482 12.4667C17.2482 12.8667 17.3816 13.5333 17.5816 14.1333C17.6482 14.0667 17.6482 14.0667 17.7149 14.0667Z" fill="white"/>
<path d="M12.4482 5.93333C12.4482 5.93333 13.7816 5.53333 14.3816 7.26667C14.9149 8.73333 13.9149 8.6 14.6482 8.86667C15.3816 9.13333 14.9149 10.2667 14.9149 10.2667C15.6482 10.1333 16.1149 8.86667 15.7149 7.46667C15.3816 6.4 14.9149 5.86667 14.5816 5.6C14.0482 5.26667 13.3816 5.2 12.4482 5.93333Z" fill="white"/>
<path d="M9.44823 8.13333C9.84823 9.26667 7.7149 10.8 7.7149 10.8C7.7149 10.8 11.4482 9.86667 11.4482 7.66667C11.5149 6.2 11.7149 5 13.9816 4.93333C12.9816 4.73333 12.9149 4.73333 12.0482 4.73333C11.7149 4.73333 10.3816 4.86667 9.5149 5.8C8.7149 6.66667 9.78156 7.73333 6.38157 8.46667C8.04823 8.73333 9.44823 8.13333 9.44823 8.13333Z" fill="white"/>
<path d="M13.4482 11.2667C13.2482 9.33333 14.5816 9.33333 14.5816 9.33333C14.1149 9 12.7149 9 12.3816 9.26667C12.3816 9.26667 11.5149 10 11.9816 11.8C12.4482 13.5333 15.8482 13.9333 17.1149 13.9333L17.0482 13.6667C16.3149 13.6 13.6482 13.2 13.4482 11.2667Z" fill="white"/>
<path d="M27.2482 11.7333H25.9149C25.4482 13.1333 24.7816 13.6667 23.4482 14.2L23.3816 14.4C24.7149 14.2 26.5816 13.6 27.2482 11.7333Z" fill="white"/>
<path d="M30.3816 19.9333C29.9816 20.5333 29.6482 21.2 29.3816 21.8667C29.5816 21.6 29.9149 21.3333 30.2482 21.0667C30.8482 20.6667 31.3816 20.4 31.3816 20.4L31.9149 20.2L31.7816 20.7333C31.7816 20.7333 31.5816 21.6 31.6482 22.3333C31.6482 22.6667 31.7816 23 31.8482 23.2C31.9816 22.8667 32.1816 22.5333 32.3816 22.2C33.0482 21.3333 33.5816 21 33.5816 21L33.9816 20.8V21.2667C33.9816 21.2667 34.1149 22.8 34.4482 23.6C35.0482 24.9333 36.1816 25.6667 36.8482 26C36.7816 25.9333 36.6482 25.8 36.5149 25.6667C36.1816 25.3333 35.8482 24.7333 35.6482 23.4667C35.5149 22.4 35.9149 21.3333 36.0482 21C36.1149 21.2667 36.2482 21.5333 36.3816 21.6C36.3816 21.6 36.3816 21.3333 36.4482 21.0667C36.5816 20.3333 37.3816 19.2 38.4482 18.5333C38.6482 18.4 38.8482 18.2667 38.9816 18.2C39.1816 18.1333 39.3149 18 39.4482 17.8667C39.2482 17.8667 38.9816 17.9333 38.7816 17.9333H38.7149C38.5816 17.9333 38.3816 17.9333 38.1149 17.9333C37.5816 17.9333 36.9816 17.8667 36.5149 17.4667C36.0482 17.0667 35.8482 16.6667 35.7816 16.4C35.5816 16.4 35.3149 16.4 34.9816 16.4C34.5816 16.4 34.2482 16.2667 34.0482 16.2667C33.5149 16.6 32.9816 16.7333 32.3149 16.8C32.2482 16.8 32.1149 16.8 32.0482 16.8C32.2482 17 32.5149 17.1333 32.7149 17.2667C32.7149 17.2667 32.7149 17.2667 32.7816 17.2667L32.6482 17.3333C32.7149 17.2667 31.7816 17.8 30.3816 19.9333Z" fill="white"/>
<path d="M39.1149 16.2C38.8482 16.2 38.6482 16.2 38.3816 16.2C38.3816 16.3333 38.3816 16.4667 38.3816 16.6C38.4482 16.8 38.5149 16.9333 38.6482 17.0667C38.8482 16.9333 39.0482 16.6 39.1149 16.2Z" fill="white"/>
<path d="M39.6482 14.6667C39.5816 14.6667 39.5816 14.6667 39.6482 14.6667H39.5816C39.5816 14.6667 39.5816 14.6667 39.5149 14.6667C39.4482 14.6667 39.4482 14.6667 39.3816 14.6667C38.8482 14.6667 38.3149 14.8 37.7816 14.9333C37.2482 15.0667 36.6482 15.2 36.1149 15.2C35.9816 15.2 35.9149 15.2 35.7816 15.2C35.7149 15.2 35.6482 15.2 35.5816 15.2C35.5149 15.2 35.5149 15.2 35.4482 15.2C35.3816 15.2 35.3816 15.2 35.3149 15.2C35.3149 15.2 35.3149 15.2 35.2482 15.2C35.2482 15.2 35.2482 15.2 35.1816 15.2C33.9816 15.0667 33.1816 14.6667 32.7816 14.4667C32.8482 14.6 32.9816 14.7333 33.1816 14.9333C33.2482 15 33.3149 15.0667 33.3816 15.1333C33.5149 15.2667 33.7149 15.4 33.9149 15.5333C34.1816 15.6667 35.3149 16.1333 36.7816 15.9333C38.4482 15.6667 38.7816 15.7333 39.1816 15.7333H39.3149C39.9149 15.8 40.7816 16.1333 41.1149 16.3333C41.2482 16 41.4482 15.6667 41.5149 15.3333C41.4482 15.2667 41.3149 15.1333 41.0482 15C40.9816 14.9333 40.9149 14.9333 40.7816 14.8667C40.6482 14.8 40.4482 14.7333 40.1816 14.7333C39.9149 14.6667 39.7816 14.6667 39.6482 14.6667Z" fill="white"/>
<path d="M44.3149 20.1333C44.2482 20.1333 43.6482 20.4667 42.3816 19.6667C41.1149 18.8667 40.1816 18.5333 39.6482 18.4C39.5149 18.4667 39.4482 18.5333 39.3149 18.6C39.1816 18.6667 38.9816 18.8 38.7816 18.9333C38.7149 19 38.6482 19 38.5816 19.0667C38.5816 19.0667 38.6482 19.0667 38.7149 19.0667C39.9149 19.2 40.8482 19.8667 40.9149 20.1333H40.9816C41.1149 19.7333 40.9149 19.4 40.9149 19.4C40.9149 19.4 41.4482 19.7333 42.5149 20.3333C43.6482 21.0667 44.1149 20.4 44.3149 20.1333Z" fill="white"/>
<path d="M37.9816 16.8667C37.9149 16.8 37.8482 16.6667 37.7816 16.6C37.7149 16.4667 37.7149 16.4 37.7149 16.3333C37.4482 16.3333 37.1149 16.4 36.7149 16.4667C36.6482 16.4667 36.5149 16.4667 36.4482 16.4667C36.6482 16.8667 36.9816 17.2667 37.6482 17.4C37.7149 17.4 37.7149 17.4 37.7816 17.4C37.8482 17.4 37.8482 17.4 37.9149 17.4C38.1816 17.4667 38.5149 17.4667 38.7149 17.4667C39.1816 17.4667 39.7149 17.4 40.2482 17.2667C40.3816 17.1333 40.4482 16.9333 40.5816 16.8C40.5816 16.8 40.5149 16.7333 40.4482 16.7333C40.3149 16.6667 39.9816 16.4667 39.7816 16.4C39.7149 16.6 39.5816 16.8 39.4482 16.9333C39.2482 17.0667 38.9816 17.1333 38.7149 17.1333C38.4482 17.1333 38.1816 17.0667 38.0482 16.9333C37.9816 16.9333 37.9816 16.8667 37.9816 16.8667Z" fill="white"/>
<path d="M41.5149 15.8667C41.1149 16.9333 40.4482 17.7333 39.9816 18.1333C42.9816 17.3333 43.5149 18.8667 43.5149 18.9333C43.5149 19 43.5149 19 43.5816 18.9333C43.6482 18.8667 44.6482 17.8 43.9149 16.8C43.3149 16 41.9816 15.8667 41.5149 15.8667ZM41.5149 16.6667C41.6482 16.5333 41.7149 16.2667 41.7149 16.2667C41.9149 16.2667 42.3149 16.3333 42.3149 16.6C42.0482 16.5333 41.7149 16.5333 41.5149 16.6667Z" fill="white"/>
<path d="M18.9816 16.6C18.9816 16.4667 18.9816 16.3333 18.9816 16.2C18.7149 16.2 18.4482 16.2 18.2482 16.2C18.3149 16.6 18.5149 16.9333 18.7149 17.0667C18.8482 16.9333 18.9149 16.8 18.9816 16.6Z" fill="white"/>
<path d="M22.3816 15.1333C22.3149 15.1333 22.3149 15.1333 22.3816 15.1333C22.3149 15.1333 22.3149 15.1333 22.3149 15.1333C22.3149 15.1333 22.3149 15.1333 22.2482 15.1333C22.1816 15.1333 22.1816 15.1333 22.1149 15.1333C22.0482 15.1333 22.0482 15.1333 21.9816 15.1333C21.9149 15.1333 21.8482 15.1333 21.7816 15.1333C21.6482 15.1333 21.5816 15.1333 21.4482 15.1333C20.8482 15.1333 20.3149 15 19.7816 14.8667C19.1816 14.8 18.6482 14.6667 18.1149 14.6667C18.0482 14.6667 18.0482 14.6667 17.9816 14.6667C17.9816 14.6667 17.9816 14.6667 17.9149 14.6667C17.7816 14.6667 17.6482 14.6667 17.5816 14.6667C17.3149 14.6667 17.1149 14.7333 16.9816 14.8C16.9149 14.8667 16.7816 14.8667 16.7149 14.9333C16.5149 15.0667 16.3816 15.1333 16.2482 15.2667C16.3149 15.6 16.5149 16 16.6482 16.2667C16.9816 16.0667 17.8482 15.6667 18.4482 15.6667H18.5816C18.9816 15.6667 19.3149 15.6 20.9816 15.8667C22.4482 16.0667 23.5149 15.6 23.8482 15.4667C24.0482 15.3333 24.2482 15.2 24.3816 15.0667C24.4482 15 24.5149 14.9333 24.5816 14.8667C24.7149 14.6667 24.8482 14.5333 24.9816 14.4C24.3816 14.6 23.5816 15 22.3816 15.1333Z" fill="white"/>
<path d="M13.0482 20.1333C13.2482 20.3333 13.7149 21.0667 14.7816 20.4667C15.8482 19.8667 16.3816 19.5333 16.3816 19.5333C16.3816 19.5333 16.1816 19.8667 16.3149 20.2667C16.3149 20.2667 16.3149 20.2667 16.3816 20.2667C16.5149 20 17.4482 19.2667 18.5816 19.2C18.6482 19.2 18.6482 19.2 18.7149 19.2C18.6482 19.1333 18.5816 19.1333 18.5149 19.0667C18.3149 18.9333 18.1149 18.8 17.9816 18.7333C17.8482 18.6667 17.7816 18.6 17.6482 18.5333C17.1149 18.6 16.1816 19 14.9149 19.8C13.7149 20.4667 13.1149 20.1333 13.0482 20.1333Z" fill="white"/>
<path d="M17.5816 16.4C17.4482 16.4667 17.0482 16.6667 16.9149 16.7333C16.8482 16.7333 16.8482 16.8 16.7816 16.8C16.9149 17 16.9816 17.1333 17.1149 17.2667C17.6482 17.4 18.1816 17.4667 18.6482 17.4667C18.9149 17.4667 19.1816 17.4667 19.4482 17.4C19.5149 17.4 19.5149 17.4 19.5816 17.4C19.6482 17.4 19.6482 17.4 19.7149 17.4C20.3816 17.2667 20.7816 16.8 20.9149 16.4667C20.8482 16.4667 20.7149 16.4667 20.6482 16.4667C20.2482 16.4 19.9149 16.3333 19.6482 16.3333C19.6482 16.4 19.5816 16.5333 19.5816 16.6C19.5149 16.7333 19.4482 16.8 19.3816 16.8667L19.3149 16.9333C19.1149 17.0667 18.9149 17.1333 18.6482 17.1333C18.3816 17.1333 18.1149 17.0667 17.9149 16.9333C17.7149 16.8 17.6482 16.6 17.5816 16.4Z" fill="white"/>
<path d="M13.3816 16.8C12.6482 17.8 13.6482 18.8667 13.7149 18.9333C13.7816 19 13.7816 18.9333 13.7816 18.9333C13.7816 18.8667 14.3149 17.3333 17.3149 18.1333C16.8482 17.7333 16.1816 16.9333 15.7816 15.8667C15.3816 15.8667 13.9816 16 13.3816 16.8ZM15.8482 16.6667C15.6482 16.5333 15.3149 16.5333 15.0482 16.6C15.0482 16.3333 15.4482 16.2667 15.6482 16.2667C15.6482 16.2667 15.7149 16.5333 15.8482 16.6667Z" fill="white"/>
<path d="M25.2482 16.8C25.1816 16.8 25.0482 16.8 24.9816 16.8C24.3149 16.8 23.7816 16.6 23.2482 16.2667C23.0482 16.3333 22.6482 16.4 22.3149 16.4C21.9816 16.4 21.6482 16.4 21.5149 16.4C21.4482 16.6667 21.2482 17.1333 20.7816 17.4667C20.3149 17.8667 19.7149 17.9333 19.1816 17.9333C18.9149 17.9333 18.7149 17.9333 18.5816 17.9333H18.5149C18.3816 17.9333 18.1149 17.8667 17.8482 17.8667C18.0482 18 18.1816 18.0667 18.3149 18.2C18.4482 18.2667 18.6482 18.4 18.8482 18.5333C19.9149 19.2667 20.7149 20.3333 20.8482 21.0667C20.9149 21.3333 20.9149 21.6 20.9149 21.6C21.0482 21.5333 21.1816 21.2667 21.2482 21C21.3816 21.3333 21.8482 22.4 21.6482 23.4667C21.4482 24.7333 21.1149 25.3333 20.7816 25.6667C20.6482 25.8 20.5149 25.9333 20.4482 26C21.1149 25.6667 22.2482 24.9333 22.8482 23.6C23.1816 22.8667 23.3149 21.3333 23.3149 21.3333V20.8667L23.7149 21.0667C23.7149 21.0667 24.3149 21.4 24.9149 22.2667C25.1149 22.6 25.3149 22.9333 25.4482 23.2667C25.5149 23 25.5816 22.7333 25.6482 22.4C25.7149 21.6 25.5149 20.8 25.5149 20.8L25.3816 20.2667L25.9149 20.4667C25.9149 20.4667 26.4482 20.6667 27.0482 21.1333C27.4482 21.4 27.7149 21.6667 27.9149 21.9333C27.6482 21.2667 27.3816 20.6 26.9149 20C25.5149 17.8667 24.6482 17.4 24.6482 17.4L24.5149 17.3333C24.5149 17.3333 24.5149 17.3333 24.5816 17.3333C24.7816 17.1333 25.0482 16.9333 25.2482 16.8Z" fill="white"/>
</svg>
