<svg width="80" height="80" viewBox="0 0 80 80" fill="none" xmlns="http://www.w3.org/2000/svg">
<g opacity="0.8">
<path d="M15 15C15 12.3478 16.0536 9.8043 17.9289 7.92893C19.8043 6.05357 22.3478 5 25 5C27.6522 5 30.1957 6.05357 32.0711 7.92893C33.9464 9.8043 35 12.3478 35 15C35 17.6522 33.9464 20.1957 32.0711 22.0711C30.1957 23.9464 27.6522 25 25 25C22.3478 25 19.8043 23.9464 17.9289 22.0711C16.0536 20.1957 15 17.6522 15 15Z" fill="#1B70E6"/>
<path d="M48.8951 22.9196L49.1051 23.0796C51.2265 24.6521 53.8839 25.3217 56.4972 24.9421C59.1105 24.5626 61.4676 23.1648 63.0541 21.0537C64.6406 18.9427 65.3277 16.2898 64.9654 13.6741C64.6031 11.0583 63.2209 8.69202 61.1204 7.09162C59.0199 5.49122 56.3716 4.78664 53.7535 5.13165C51.1354 5.47665 48.7601 6.84322 47.1458 8.93314C45.5316 11.023 44.8096 13.6666 45.1373 16.2869C45.465 18.9073 46.8159 21.2916 48.8951 22.9196Z" fill="#1B70E6"/>
<path d="M31.3401 30.0001C31.9681 28.8109 32.8295 27.7606 33.8728 26.912C34.9161 26.0635 36.1199 25.434 37.412 25.0614C38.7042 24.6888 40.0583 24.5807 41.3932 24.7435C42.7281 24.9062 44.0165 25.3366 45.1813 26.0088C46.346 26.681 47.3633 27.5813 48.1721 28.6557C48.9809 29.7301 49.5647 30.9566 49.8885 32.2619C50.2123 33.5671 50.2696 34.9243 50.0568 36.2522C49.844 37.5801 49.3656 38.8514 48.6501 39.9901C47.2737 42.1807 45.1018 43.7527 42.5908 44.3757C40.0798 44.9987 37.425 44.6242 35.1842 43.331C32.9435 42.0378 31.2911 39.9265 30.5743 37.4406C29.8574 34.9548 30.1319 32.2878 31.3401 30.0001Z" fill="#1B70E6"/>
<path d="M12.5 30H25.85C25.3 31.565 25 33.25 25 35C25 38.84 26.445 42.35 28.82 45H27.5C24.9222 44.9996 22.4072 45.7959 20.2994 47.2799C18.1916 48.7639 16.5939 50.863 15.725 53.29C14.0467 52.6158 12.4752 51.7012 11.06 50.575C7.3 47.55 5 43.08 5 37.5C5 35.5109 5.79018 33.6032 7.1967 32.1967C8.60322 30.7902 10.5109 30 12.5 30Z" fill="#1B70E6"/>
<path d="M52.4999 45C57.9249 45 62.5449 48.455 64.2699 53.29C65.9699 52.595 67.5449 51.69 68.9399 50.575C72.6999 47.55 74.9999 43.08 74.9999 37.5C74.9999 35.5109 74.2098 33.6032 72.8032 32.1967C71.3967 30.7902 69.4891 30 67.4999 30H54.1499C54.6999 31.565 54.9999 33.25 54.9999 35C55.0046 38.6906 53.6439 42.2524 51.1799 45H52.4999Z" fill="#1B70E6"/>
<path d="M59.435 54.64C59.8 55.52 60 56.49 60 57.5C60 63.08 57.705 67.55 53.94 70.575C50.235 73.55 45.265 75 40 75C34.735 75 29.765 73.55 26.06 70.575C22.3 67.55 20 63.08 20 57.5C19.9974 56.5144 20.1896 55.5379 20.5656 54.6268C20.9415 53.7156 21.4939 52.8878 22.1908 52.1908C22.8878 51.4939 23.7156 50.9415 24.6268 50.5656C25.5379 50.1896 26.5144 49.9974 27.5 50H52.5C53.9855 49.9997 55.4377 50.4405 56.6724 51.2666C57.907 52.0926 58.8685 53.2668 59.435 54.64Z" fill="#1B70E6"/>
</g>
</svg>
