<?xml version="1.0" encoding="UTF-8" standalone="no"?>
<svg
   version="1.1"
   id="mdi-guitar-acoustic"
   width="24"
   height="24"
   viewBox="0 0 24 24"
   sodipodi:docname="guitar-acoustic.svg"
   inkscape:version="1.1.2 (b8e25be833, 2022-02-05)"
   xmlns:inkscape="http://www.inkscape.org/namespaces/inkscape"
   xmlns:sodipodi="http://sodipodi.sourceforge.net/DTD/sodipodi-0.dtd"
   xmlns="http://www.w3.org/2000/svg"
   xmlns:svg="http://www.w3.org/2000/svg">
  <defs
     id="defs7" />
  <sodipodi:namedview
     id="namedview5"
     pagecolor="#ffffff"
     bordercolor="#666666"
     borderopacity="1.0"
     inkscape:pageshadow="2"
     inkscape:pageopacity="0.0"
     inkscape:pagecheckerboard="0"
     showgrid="false"
     inkscape:zoom="33.666667"
     inkscape:cx="12.014851"
     inkscape:cy="11.955445"
     inkscape:window-width="1920"
     inkscape:window-height="1001"
     inkscape:window-x="-9"
     inkscape:window-y="-9"
     inkscape:window-maximized="1"
     inkscape:current-layer="mdi-guitar-acoustic" />
  <path
     d="M19.59,3H22V5H20.41L16.17,9.24C15.8,8.68 15.32,8.2 14.76,7.83L19.59,3M12,8A4,4 0 0,1 16,12C16,13.82 14.77,15.42 13,15.87V16A5,5 0 0,1 8,21A5,5 0 0,1 3,16A5,5 0 0,1 8,11H8.13C8.58,9.24 10.17,8 12,8M12,10.5A1.5,1.5 0 0,0 10.5,12A1.5,1.5 0 0,0 12,13.5A1.5,1.5 0 0,0 13.5,12A1.5,1.5 0 0,0 12,10.5M6.94,14.24L6.23,14.94L9.06,17.77L9.77,17.06L6.94,14.24Z"
     id="path2"
     style="fill:#498deb;fill-opacity:1" />
</svg>
