<svg width="32" height="32" viewBox="0 0 32 32" fill="none" xmlns="http://www.w3.org/2000/svg">
<path d="M6.33333 32H25.6667C29.1587 32 32 29.1587 32 25.6667V6.33333C32 2.84133 29.1587 0 25.6667 0H6.33333C2.84133 0 0 2.84133 0 6.33333V25.6667C0 29.1587 2.84133 32 6.33333 32ZM2 6.33333C2 3.944 3.944 2 6.33333 2H25.6667C28.056 2 30 3.944 30 6.33333V25.6667C30 28.056 28.056 30 25.6667 30H6.33333C3.944 30 2 28.056 2 25.6667V6.33333Z" fill="white"/>
<path d="M16 24.1733C20.5067 24.1733 24.1733 20.5067 24.1733 16C24.1733 11.4933 20.5067 7.82666 16 7.82666C11.4933 7.82666 7.82666 11.4933 7.82666 16C7.82666 20.5067 11.4933 24.1733 16 24.1733ZM16 9.82666C19.404 9.82666 22.1733 12.596 22.1733 16C22.1733 19.404 19.404 22.1733 16 22.1733C12.596 22.1733 9.82666 19.404 9.82666 16C9.82666 12.596 12.596 9.82666 16 9.82666Z" fill="white"/>
<path d="M24.4773 9.81553C25.792 9.81553 26.7827 8.82886 26.7827 7.52086C26.7827 6.15686 25.74 5.2262 24.4787 5.2262C23.164 5.2262 22.1733 6.21286 22.1733 7.52086C22.1733 8.8822 23.2107 9.81553 24.4773 9.81553ZM24.7133 7.30086C25.1347 7.67286 24.1733 8.12486 24.1733 7.5222C24.1733 7.1622 24.6627 7.25553 24.7133 7.30086Z" fill="white"/>
</svg>
