<svg width="200" height="68" viewBox="0 0 200 68" fill="none" xmlns="http://www.w3.org/2000/svg">
<path d="M36.8474 52.3788L36.8552 52.3788C44.9719 52.3746 51.5506 45.7934 51.5506 37.6757C51.5506 29.5553 44.9677 22.9725 36.8474 22.9725C36.8474 22.9725 36.8474 22.9725 36.8474 22.9725C35.7656 22.9725 34.8887 23.8495 34.8887 24.9312C34.8887 26.013 35.7656 26.8899 36.8474 26.8899L36.8474 26.8933C42.8023 26.8933 47.6297 31.7208 47.6297 37.6757C47.6297 43.6306 42.8023 48.458 36.8474 48.458L36.8474 48.4614C35.7656 48.4614 34.8887 49.3383 34.8887 50.4201C34.8887 51.5019 35.7656 52.3788 36.8474 52.3788Z" fill="#1B70E6"/>
<path d="M50.6884 49.4256C50.6758 49.4397 50.6634 49.454 50.6512 49.4686C49.9551 50.2982 50.0633 51.535 50.8929 52.2311C51.7225 52.9272 52.9594 52.819 53.6555 51.9894C53.657 51.9876 53.6585 51.9858 53.66 51.984C61.4865 42.6533 60.2687 28.7444 50.9389 20.9158C41.6081 13.0863 27.697 14.3034 19.8675 23.6342L19.8663 23.6357C19.1705 24.4649 19.2786 25.7011 20.1078 26.3969C20.937 27.0927 22.1733 26.9846 22.8691 26.1553L22.8703 26.1539C29.3079 18.4819 40.7467 17.4817 48.4187 23.9193C56.0769 30.3453 57.0877 41.7539 50.6884 49.4256Z" fill="#498DEB"/>
<path d="M62.0792 37.6757C62.0791 23.6005 50.6689 12.1903 36.5937 12.1903C22.5185 12.1903 11.1082 23.6005 11.1082 37.6757H11.1065C11.1065 37.6756 11.1065 37.6757 11.1065 37.6757C11.1065 38.7579 10.2292 39.6354 9.14693 39.6354C8.06468 39.6354 7.18735 38.758 7.18735 37.6758C7.18735 37.6758 7.18735 37.6757 7.18735 37.6758C7.1874 21.4352 20.353 8.26944 36.5937 8.26944C52.8333 8.26944 65.9983 21.4334 66 37.6725L66 37.6758C66 38.758 65.1227 39.6353 64.0404 39.6353C62.9582 39.6353 62.0808 38.758 62.0808 37.6758L62.0792 37.6757Z" fill="#75A9F0"/>
<path d="M36.5202 67.082L36.5937 67.0821L36.6671 67.082H36.5202Z" fill="#75A9F0"/>
<path d="M64.6749 16.8123C65.4904 16.128 65.6093 14.9215 64.9529 14.0921L64.9191 14.0505C58.1762 6.02154 48.0631 0.917909 36.7579 0.917908C16.4571 0.917906 3.85143e-06 17.375 0 37.6758C-5.42927e-07 46.6697 3.23013 54.9091 8.59356 61.2973C8.59542 61.2995 8.59729 61.3018 8.59916 61.304C9.29578 62.1342 10.5335 62.2425 11.3637 61.5459C12.1939 60.8493 12.3022 59.6115 11.6056 58.7813C11.58 58.7508 11.5537 58.7213 11.5267 58.6928C6.77791 52.998 3.92084 45.6706 3.92085 37.6758C3.92085 19.5404 18.6225 4.83875 36.7579 4.83875C46.814 4.83875 55.8144 9.35911 61.8378 16.4787C61.8609 16.5098 61.8851 16.5404 61.9103 16.5704C62.6069 17.4006 63.8447 17.5089 64.6749 16.8123Z" fill="#A3C5F5"/>
<path d="M78 10.2179H83.184L90.312 24.5819L97.44 10.2179H102.336V35.4179H97.44V18.8579L92.004 30.0539H88.332L82.896 18.8579V35.4179H78V10.2179Z" fill="#333333"/>
<path d="M114.615 14.5019H107.379V10.2179H126.963V14.5019H119.727V35.4179H114.615V14.5019Z" fill="#333333"/>
<path d="M133.706 31.4219C135.242 31.4219 136.322 31.2659 136.946 30.9539C137.594 30.6419 138.014 30.2339 138.206 29.7299L138.458 29.1179L129.494 10.2179H135.002L140.834 23.4299L145.946 10.2179H151.31L143.282 29.7299C142.802 30.9299 142.298 31.9259 141.77 32.7179C141.266 33.4859 140.654 34.0979 139.934 34.5539C139.214 35.0099 138.35 35.3219 137.342 35.4899C136.358 35.6579 135.146 35.7419 133.706 35.7419V31.4219Z" fill="#333333"/>
<path d="M164.543 35.7419C161.447 35.7419 158.999 34.7699 157.199 32.8259C155.423 30.8819 154.535 27.9059 154.535 23.8979V21.0179C154.535 17.3699 155.423 14.6099 157.199 12.7379C158.999 10.8419 161.447 9.89391 164.543 9.89391C166.031 9.89391 167.339 10.0859 168.467 10.4699C169.595 10.8539 170.555 11.4059 171.347 12.1259C172.139 12.8459 172.763 13.7219 173.219 14.7539C173.675 15.7619 173.975 16.9019 174.119 18.1739H168.971C168.755 16.9499 168.311 16.0019 167.639 15.3299C166.967 14.6579 165.935 14.3219 164.543 14.3219C163.031 14.3219 161.843 14.8379 160.979 15.8699C160.115 16.8779 159.683 18.5939 159.683 21.0179V23.8979C159.683 25.2899 159.791 26.4659 160.007 27.4259C160.247 28.3619 160.571 29.1179 160.979 29.6939C161.387 30.2699 161.891 30.6899 162.491 30.9539C163.091 31.1939 163.775 31.3139 164.543 31.3139C165.959 31.3139 166.979 30.9779 167.603 30.3059C168.251 29.6099 168.707 28.6019 168.971 27.2819H174.119C173.807 29.9699 172.871 32.0579 171.311 33.5459C169.751 35.0099 167.495 35.7419 164.543 35.7419Z" fill="#333333"/>
<path d="M179.911 10.2179H185.059V27.1379L194.707 10.2179H199.927V35.4179H194.779V18.4979L185.023 35.4179H179.911V10.2179Z" fill="#333333"/>
<path d="M80.385 47.8889C80.013 47.8889 79.68 47.8319 79.386 47.7179C79.092 47.6039 78.843 47.4269 78.639 47.1869C78.435 46.9469 78.279 46.6409 78.171 46.2689C78.063 45.8969 78.009 45.4529 78.009 44.9369V44.2169C78.009 43.2869 78.219 42.5969 78.639 42.1469C79.059 41.6909 79.641 41.4629 80.385 41.4629C81.039 41.4629 81.558 41.6159 81.942 41.9219C82.332 42.2279 82.587 42.7109 82.707 43.3709H81.861C81.747 42.9449 81.573 42.6449 81.339 42.4709C81.105 42.2969 80.787 42.2099 80.385 42.2099C79.899 42.2099 79.521 42.3659 79.251 42.6779C78.981 42.9839 78.846 43.4969 78.846 44.2169V44.9369C78.846 45.3449 78.879 45.6899 78.945 45.9719C79.017 46.2539 79.119 46.4819 79.251 46.6559C79.383 46.8299 79.542 46.9559 79.728 47.0339C79.92 47.1059 80.139 47.1419 80.385 47.1419C80.595 47.1419 80.778 47.1209 80.934 47.0789C81.096 47.0309 81.234 46.9619 81.348 46.8719C81.468 46.7759 81.567 46.6529 81.645 46.5029C81.729 46.3529 81.801 46.1699 81.861 45.9539H82.707C82.569 46.6499 82.302 47.1479 81.906 47.4479C81.516 47.7419 81.009 47.8889 80.385 47.8889Z" fill="#333333"/>
<path d="M85.6489 47.8889C85.3609 47.8889 85.0969 47.8439 84.8569 47.7539C84.6229 47.6579 84.4219 47.5199 84.2539 47.3399C84.0919 47.1539 83.9629 46.9289 83.8669 46.6649C83.7769 46.3949 83.7319 46.0859 83.7319 45.7379V45.0539C83.7319 44.3819 83.8969 43.8719 84.2269 43.5239C84.5629 43.1699 85.0219 42.9929 85.6039 42.9929C86.1859 42.9929 86.6419 43.1699 86.9719 43.5239C87.3079 43.8719 87.4759 44.3879 87.4759 45.0719V45.6749H84.5239C84.5299 46.2209 84.6319 46.6139 84.8299 46.8539C85.0339 47.0879 85.3069 47.2049 85.6489 47.2049C85.7989 47.2049 85.9279 47.1869 86.0359 47.1509C86.1499 47.1089 86.2429 47.0549 86.3149 46.9889C86.3929 46.9229 86.4529 46.8479 86.4949 46.7639C86.5369 46.6799 86.5669 46.5929 86.5849 46.5029H87.3859C87.2899 46.9709 87.0949 47.3189 86.8009 47.5469C86.5069 47.7749 86.1229 47.8889 85.6489 47.8889ZM85.6129 43.6769C85.2709 43.6769 85.0039 43.7819 84.8119 43.9919C84.6259 44.1959 84.5299 44.5409 84.5239 45.0269H86.7289C86.7169 44.5409 86.6149 44.1959 86.4229 43.9919C86.2369 43.7819 85.9669 43.6769 85.6129 43.6769Z" fill="#333333"/>
<path d="M88.7947 43.0559H90.5767C91.1647 43.0559 91.5967 43.1789 91.8727 43.4249C92.1547 43.6649 92.2957 43.9769 92.2957 44.3609C92.2957 44.4629 92.2777 44.5649 92.2417 44.6669C92.2117 44.7689 92.1637 44.8649 92.0977 44.9549C92.0377 45.0449 91.9627 45.1229 91.8727 45.1889C91.7887 45.2549 91.6927 45.3059 91.5847 45.3419C91.8787 45.4139 92.1007 45.5519 92.2507 45.7559C92.4007 45.9599 92.4757 46.1969 92.4757 46.4669C92.4757 46.8809 92.3347 47.2109 92.0527 47.4569C91.7767 47.7029 91.3447 47.8259 90.7567 47.8259H88.7947V43.0559ZM90.7567 47.1509C91.0987 47.1509 91.3387 47.0909 91.4767 46.9709C91.6147 46.8449 91.6837 46.6649 91.6837 46.4309C91.6837 46.2029 91.6147 46.0289 91.4767 45.9089C91.3387 45.7889 91.0987 45.7289 90.7567 45.7289H89.5777V47.1509H90.7567ZM90.5767 45.0629C90.9187 45.0629 91.1587 45.0059 91.2967 44.8919C91.4347 44.7719 91.5037 44.6069 91.5037 44.3969C91.5037 44.1869 91.4347 44.0249 91.2967 43.9109C91.1587 43.7909 90.9187 43.7309 90.5767 43.7309H89.5777V45.0629H90.5767Z" fill="#333333"/>
<path d="M95.5011 47.8889C95.2131 47.8889 94.9491 47.8439 94.7091 47.7539C94.4751 47.6579 94.2741 47.5199 94.1061 47.3399C93.9441 47.1539 93.8151 46.9289 93.7191 46.6649C93.6291 46.3949 93.5841 46.0859 93.5841 45.7379V45.0539C93.5841 44.3819 93.7491 43.8719 94.0791 43.5239C94.4151 43.1699 94.8741 42.9929 95.4561 42.9929C96.0381 42.9929 96.4941 43.1699 96.8241 43.5239C97.1601 43.8719 97.3281 44.3879 97.3281 45.0719V45.6749H94.3761C94.3821 46.2209 94.4841 46.6139 94.6821 46.8539C94.8861 47.0879 95.1591 47.2049 95.5011 47.2049C95.6511 47.2049 95.7801 47.1869 95.8881 47.1509C96.0021 47.1089 96.0951 47.0549 96.1671 46.9889C96.2451 46.9229 96.3051 46.8479 96.3471 46.7639C96.3891 46.6799 96.4191 46.5929 96.4371 46.5029H97.2381C97.1421 46.9709 96.9471 47.3189 96.6531 47.5469C96.3591 47.7749 95.9751 47.8889 95.5011 47.8889ZM95.4651 43.6769C95.1231 43.6769 94.8561 43.7819 94.6641 43.9919C94.4781 44.1959 94.3821 44.5409 94.3761 45.0269H96.5811C96.5691 44.5409 96.4671 44.1959 96.2751 43.9919C96.0891 43.7819 95.8191 43.6769 95.4651 43.6769Z" fill="#333333"/>
<path d="M98.6469 43.0559H99.3579V43.8479C99.4959 43.5839 99.6789 43.3769 99.9069 43.2269C100.141 43.0769 100.429 43.0019 100.771 43.0019C101.023 43.0019 101.254 43.0469 101.464 43.1369C101.674 43.2269 101.854 43.3589 102.004 43.5329C102.16 43.7009 102.28 43.9139 102.364 44.1719C102.454 44.4299 102.499 44.7239 102.499 45.0539V45.7379C102.499 46.0919 102.454 46.4039 102.364 46.6739C102.28 46.9439 102.16 47.1689 102.004 47.3489C101.854 47.5289 101.674 47.6639 101.464 47.7539C101.254 47.8439 101.023 47.8889 100.771 47.8889C100.447 47.8889 100.174 47.8139 99.9519 47.6639C99.7299 47.5139 99.5619 47.3219 99.4479 47.0879V49.6259H98.6469V43.0559ZM100.609 47.1869C100.933 47.1869 101.197 47.0729 101.401 46.8449C101.605 46.6109 101.707 46.2419 101.707 45.7379V45.0539C101.707 44.6039 101.605 44.2679 101.401 44.0459C101.197 43.8179 100.933 43.7039 100.609 43.7039C100.249 43.7039 99.9639 43.8179 99.7539 44.0459C99.5499 44.2679 99.4479 44.6039 99.4479 45.0539V45.7379C99.4479 46.2419 99.5499 46.6109 99.7539 46.8449C99.9639 47.0729 100.249 47.1869 100.609 47.1869Z" fill="#333333"/>
<path d="M105.574 47.8889C104.974 47.8889 104.497 47.7059 104.143 47.3399C103.789 46.9679 103.612 46.4339 103.612 45.7379V45.0539C103.612 44.7299 103.657 44.4419 103.747 44.1899C103.843 43.9319 103.975 43.7159 104.143 43.5419C104.317 43.3619 104.524 43.2269 104.764 43.1369C105.004 43.0409 105.274 42.9929 105.574 42.9929C105.874 42.9929 106.144 43.0409 106.384 43.1369C106.624 43.2269 106.828 43.3619 106.996 43.5419C107.17 43.7159 107.302 43.9319 107.392 44.1899C107.488 44.4419 107.536 44.7299 107.536 45.0539V45.7379C107.536 46.4339 107.359 46.9679 107.005 47.3399C106.651 47.7059 106.174 47.8889 105.574 47.8889ZM105.574 47.1869C105.934 47.1869 106.219 47.0729 106.429 46.8449C106.639 46.6109 106.744 46.2419 106.744 45.7379V45.0539C106.744 44.5979 106.639 44.2589 106.429 44.0369C106.219 43.8089 105.934 43.6949 105.574 43.6949C105.214 43.6949 104.929 43.8089 104.719 44.0369C104.509 44.2589 104.404 44.5979 104.404 45.0539V45.7379C104.404 46.2419 104.509 46.6109 104.719 46.8449C104.929 47.0729 105.214 47.1869 105.574 47.1869Z" fill="#333333"/>
<path d="M108.526 44.5769H110.902V45.3149H108.526V44.5769Z" fill="#333333"/>
<path d="M112.305 41.5259H113.151V44.2709H114.105L116.013 41.5259H116.976L114.798 44.5949L117.156 47.8259H116.13L114.105 44.9999H113.151V47.8259H112.305V41.5259Z" fill="#333333"/>
<path d="M119.071 47.8799C118.633 47.8799 118.291 47.7599 118.045 47.5199C117.799 47.2739 117.676 46.9319 117.676 46.4939C117.676 46.0319 117.808 45.6809 118.072 45.4409C118.336 45.1949 118.759 45.0719 119.341 45.0719H120.475V44.6129C120.475 44.2889 120.4 44.0549 120.25 43.9109C120.106 43.7609 119.881 43.6859 119.575 43.6859C119.419 43.6859 119.287 43.7039 119.179 43.7399C119.071 43.7699 118.984 43.8149 118.918 43.8749C118.852 43.9289 118.801 43.9919 118.765 44.0639C118.729 44.1359 118.708 44.2079 118.702 44.2799H117.928C117.946 44.0939 117.988 43.9229 118.054 43.7669C118.12 43.6109 118.219 43.4759 118.351 43.3619C118.483 43.2479 118.648 43.1579 118.846 43.0919C119.05 43.0259 119.296 42.9929 119.584 42.9929C120.16 42.9929 120.583 43.1279 120.853 43.3979C121.123 43.6619 121.258 44.0669 121.258 44.6129V47.8259H120.565V47.0339C120.505 47.1359 120.436 47.2379 120.358 47.3399C120.28 47.4419 120.181 47.5349 120.061 47.6189C119.947 47.6969 119.809 47.7599 119.647 47.8079C119.485 47.8559 119.293 47.8799 119.071 47.8799ZM119.296 47.1959C119.656 47.1959 119.941 47.0909 120.151 46.8809C120.367 46.6649 120.475 46.3739 120.475 46.0079V45.7199H119.377C119.035 45.7199 118.795 45.7829 118.657 45.9089C118.525 46.0289 118.459 46.2209 118.459 46.4849C118.459 46.6949 118.528 46.8659 118.666 46.9979C118.804 47.1299 119.014 47.1959 119.296 47.1959Z" fill="#333333"/>
<path d="M122.741 43.0559H124.523C125.111 43.0559 125.543 43.1789 125.819 43.4249C126.101 43.6649 126.242 43.9769 126.242 44.3609C126.242 44.4629 126.224 44.5649 126.188 44.6669C126.158 44.7689 126.11 44.8649 126.044 44.9549C125.984 45.0449 125.909 45.1229 125.819 45.1889C125.735 45.2549 125.639 45.3059 125.531 45.3419C125.825 45.4139 126.047 45.5519 126.197 45.7559C126.347 45.9599 126.422 46.1969 126.422 46.4669C126.422 46.8809 126.281 47.2109 125.999 47.4569C125.723 47.7029 125.291 47.8259 124.703 47.8259H122.741V43.0559ZM124.703 47.1509C125.045 47.1509 125.285 47.0909 125.423 46.9709C125.561 46.8449 125.63 46.6649 125.63 46.4309C125.63 46.2029 125.561 46.0289 125.423 45.9089C125.285 45.7889 125.045 45.7289 124.703 45.7289H123.524V47.1509H124.703ZM124.523 45.0629C124.865 45.0629 125.105 45.0059 125.243 44.8919C125.381 44.7719 125.45 44.6069 125.45 44.3969C125.45 44.1869 125.381 44.0249 125.243 43.9109C125.105 43.7909 124.865 43.7309 124.523 43.7309H123.524V45.0629H124.523Z" fill="#333333"/>
<path d="M127.738 43.0559H128.539V45.0539H129.16L130.69 43.0559H131.581L129.817 45.3689L131.725 47.8259H130.789L129.169 45.7379H128.539V47.8259H127.738V43.0559Z" fill="#333333"/>
<path d="M133.823 47.8799C133.385 47.8799 133.043 47.7599 132.797 47.5199C132.551 47.2739 132.428 46.9319 132.428 46.4939C132.428 46.0319 132.56 45.6809 132.824 45.4409C133.088 45.1949 133.511 45.0719 134.093 45.0719H135.227V44.6129C135.227 44.2889 135.152 44.0549 135.002 43.9109C134.858 43.7609 134.633 43.6859 134.327 43.6859C134.171 43.6859 134.039 43.7039 133.931 43.7399C133.823 43.7699 133.736 43.8149 133.67 43.8749C133.604 43.9289 133.553 43.9919 133.517 44.0639C133.481 44.1359 133.46 44.2079 133.454 44.2799H132.68C132.698 44.0939 132.74 43.9229 132.806 43.7669C132.872 43.6109 132.971 43.4759 133.103 43.3619C133.235 43.2479 133.4 43.1579 133.598 43.0919C133.802 43.0259 134.048 42.9929 134.336 42.9929C134.912 42.9929 135.335 43.1279 135.605 43.3979C135.875 43.6619 136.01 44.0669 136.01 44.6129V47.8259H135.317V47.0339C135.257 47.1359 135.188 47.2379 135.11 47.3399C135.032 47.4419 134.933 47.5349 134.813 47.6189C134.699 47.6969 134.561 47.7599 134.399 47.8079C134.237 47.8559 134.045 47.8799 133.823 47.8799ZM134.048 47.1959C134.408 47.1959 134.693 47.0909 134.903 46.8809C135.119 46.6649 135.227 46.3739 135.227 46.0079V45.7199H134.129C133.787 45.7199 133.547 45.7829 133.409 45.9089C133.277 46.0289 133.211 46.2209 133.211 46.4849C133.211 46.6949 133.28 46.8659 133.418 46.9979C133.556 47.1299 133.766 47.1959 134.048 47.1959Z" fill="#333333"/>
<path d="M138.933 47.8889C138.333 47.8889 137.886 47.7659 137.592 47.5199C137.298 47.2739 137.133 46.9229 137.097 46.4669H137.889C137.931 46.7009 138.027 46.8839 138.177 47.0159C138.333 47.1419 138.585 47.2049 138.933 47.2049C139.317 47.2049 139.587 47.1419 139.743 47.0159C139.899 46.8839 139.977 46.7009 139.977 46.4669C139.977 46.2329 139.899 46.0529 139.743 45.9269C139.587 45.7949 139.317 45.7289 138.933 45.7289H138.267V45.0629H138.888C139.212 45.0629 139.443 45.0029 139.581 44.8829C139.725 44.7629 139.797 44.5889 139.797 44.3609C139.797 44.1389 139.728 43.9679 139.59 43.8479C139.452 43.7279 139.218 43.6679 138.888 43.6679C138.606 43.6679 138.399 43.7279 138.267 43.8479C138.135 43.9679 138.051 44.1389 138.015 44.3609H137.187C137.205 44.1629 137.259 43.9799 137.349 43.8119C137.439 43.6439 137.556 43.4999 137.7 43.3799C137.85 43.2539 138.024 43.1579 138.222 43.0919C138.426 43.0259 138.648 42.9929 138.888 42.9929C139.176 42.9929 139.425 43.0259 139.635 43.0919C139.851 43.1579 140.028 43.2509 140.166 43.3709C140.31 43.4909 140.415 43.6349 140.481 43.8029C140.553 43.9649 140.589 44.1449 140.589 44.3429C140.589 44.4569 140.571 44.5679 140.535 44.6759C140.505 44.7779 140.457 44.8739 140.391 44.9639C140.331 45.0539 140.256 45.1319 140.166 45.1979C140.082 45.2639 139.986 45.3149 139.878 45.3509C140.172 45.4229 140.394 45.5639 140.544 45.7739C140.694 45.9779 140.769 46.2149 140.769 46.4849C140.769 46.9109 140.622 47.2529 140.328 47.5109C140.034 47.7629 139.569 47.8889 138.933 47.8889Z" fill="#333333"/>
<path d="M143.795 47.8889C143.507 47.8889 143.243 47.8439 143.003 47.7539C142.769 47.6579 142.568 47.5199 142.4 47.3399C142.238 47.1539 142.109 46.9289 142.013 46.6649C141.923 46.3949 141.878 46.0859 141.878 45.7379V45.0539C141.878 44.7299 141.923 44.4419 142.013 44.1899C142.109 43.9319 142.238 43.7159 142.4 43.5419C142.568 43.3619 142.769 43.2269 143.003 43.1369C143.243 43.0409 143.507 42.9929 143.795 42.9929C144.035 42.9929 144.26 43.0259 144.47 43.0919C144.686 43.1579 144.875 43.2539 145.037 43.3799C145.199 43.5059 145.331 43.6589 145.433 43.8389C145.535 44.0129 145.598 44.2079 145.622 44.4239H144.821C144.773 44.2259 144.668 44.0549 144.506 43.9109C144.344 43.7669 144.107 43.6949 143.795 43.6949C143.453 43.6949 143.18 43.8089 142.976 44.0369C142.772 44.2589 142.67 44.5979 142.67 45.0539V45.7379C142.67 46.2479 142.772 46.6169 142.976 46.8449C143.18 47.0729 143.453 47.1869 143.795 47.1869C144.107 47.1869 144.344 47.1119 144.506 46.9619C144.668 46.8119 144.77 46.6439 144.812 46.4579H145.622C145.514 46.9319 145.304 47.2889 144.992 47.5289C144.686 47.7689 144.287 47.8889 143.795 47.8889Z" fill="#333333"/>
<path d="M146.853 43.0559H147.654V45.0539H148.275L149.805 43.0559H150.696L148.932 45.3689L150.84 47.8259H149.904L148.284 45.7379H147.654V47.8259H146.853V43.0559Z" fill="#333333"/>
<path d="M151.85 43.0559H152.615V46.7009L154.838 43.0559H155.63V47.8259H154.865V44.1809L152.642 47.8259H151.85V43.0559Z" fill="#333333"/>
<path d="M157.162 43.0559H157.927V46.7009L160.15 43.0559H160.942V47.8259H160.177V44.1809L157.954 47.8259H157.162V43.0559ZM159.052 42.5879C158.602 42.5879 158.272 42.4889 158.062 42.2909C157.852 42.0869 157.747 41.7959 157.747 41.4179H158.476C158.476 41.6459 158.521 41.8109 158.611 41.9129C158.707 42.0089 158.854 42.0569 159.052 42.0569C159.256 42.0569 159.403 42.0089 159.493 41.9129C159.589 41.8109 159.637 41.6459 159.637 41.4179H160.357C160.357 41.7959 160.252 42.0869 160.042 42.2909C159.832 42.4889 159.502 42.5879 159.052 42.5879Z" fill="#333333"/>
<path d="M80.682 58.3399C79.77 58.3399 79.095 58.1269 78.657 57.7009C78.219 57.2689 78 56.6179 78 55.7479V55.4239C78 54.6439 78.219 54.0469 78.657 53.6329C79.095 53.2189 79.77 53.0119 80.682 53.0119V52.5259H81.528V53.0119C82.44 53.0119 83.115 53.2189 83.553 53.6329C83.991 54.0469 84.21 54.6439 84.21 55.4239V55.7479C84.21 56.6179 83.991 57.2689 83.553 57.7009C83.115 58.1269 82.44 58.3399 81.528 58.3399V58.8259H80.682V58.3399ZM83.364 55.4239C83.364 54.8659 83.217 54.4489 82.923 54.1729C82.635 53.8909 82.17 53.7499 81.528 53.7499V57.6019C82.17 57.6019 82.635 57.4549 82.923 57.1609C83.217 56.8669 83.364 56.3959 83.364 55.7479V55.4239ZM78.846 55.7479C78.846 56.3959 78.99 56.8669 79.278 57.1609C79.572 57.4549 80.04 57.6019 80.682 57.6019V53.7499C80.04 53.7499 79.572 53.8909 79.278 54.1729C78.99 54.4489 78.846 54.8659 78.846 55.4239V55.7479Z" fill="#333333"/>
<path d="M85.6528 54.0559H86.4178V57.7009L88.6408 54.0559H89.4328V58.8259H88.6678V55.1809L86.4448 58.8259H85.6528V54.0559Z" fill="#333333"/>
<path d="M90.5336 58.0699C90.7136 58.0459 90.8636 57.9919 90.9836 57.9079C91.1036 57.8239 91.1996 57.6979 91.2716 57.5299C91.3436 57.3559 91.3946 57.1369 91.4246 56.8729C91.4546 56.6089 91.4696 56.2849 91.4696 55.9009V54.0559H94.6106V58.8259H93.8096V54.7489H92.2526V55.9009C92.2526 56.9269 92.1206 57.6829 91.8566 58.1689C91.5926 58.6489 91.1516 58.8889 90.5336 58.8889V58.0699Z" fill="#333333"/>
<path d="M96.1378 54.0559H96.9028V57.7009L99.1258 54.0559H99.9178V58.8259H99.1528V55.1809L96.9298 58.8259H96.1378V54.0559Z" fill="#333333"/>
<path d="M102.549 58.8799C102.111 58.8799 101.769 58.7599 101.523 58.5199C101.277 58.2739 101.154 57.9319 101.154 57.4939C101.154 57.0319 101.286 56.6809 101.55 56.4409C101.814 56.1949 102.237 56.0719 102.819 56.0719H103.953V55.6129C103.953 55.2889 103.878 55.0549 103.728 54.9109C103.584 54.7609 103.359 54.6859 103.053 54.6859C102.897 54.6859 102.765 54.7039 102.657 54.7399C102.549 54.7699 102.462 54.8149 102.396 54.8749C102.33 54.9289 102.279 54.9919 102.243 55.0639C102.207 55.1359 102.186 55.2079 102.18 55.2799H101.406C101.424 55.0939 101.466 54.9229 101.532 54.7669C101.598 54.6109 101.697 54.4759 101.829 54.3619C101.961 54.2479 102.126 54.1579 102.324 54.0919C102.528 54.0259 102.774 53.9929 103.062 53.9929C103.638 53.9929 104.061 54.1279 104.331 54.3979C104.601 54.6619 104.736 55.0669 104.736 55.6129V58.8259H104.043V58.0339C103.983 58.1359 103.914 58.2379 103.836 58.3399C103.758 58.4419 103.659 58.5349 103.539 58.6189C103.425 58.6969 103.287 58.7599 103.125 58.8079C102.963 58.8559 102.771 58.8799 102.549 58.8799ZM102.774 58.1959C103.134 58.1959 103.419 58.0909 103.629 57.8809C103.845 57.6649 103.953 57.3739 103.953 57.0079V56.7199H102.855C102.513 56.7199 102.273 56.7829 102.135 56.9089C102.003 57.0289 101.937 57.2209 101.937 57.4849C101.937 57.6949 102.006 57.8659 102.144 57.9979C102.282 58.1299 102.492 58.1959 102.774 58.1959Z" fill="#333333"/>
<path d="M105.787 58.0699C105.967 58.0459 106.117 57.9919 106.237 57.9079C106.357 57.8239 106.453 57.6979 106.525 57.5299C106.597 57.3559 106.648 57.1369 106.678 56.8729C106.708 56.6089 106.723 56.2849 106.723 55.9009V54.0559H109.864V58.8259H109.063V54.7489H107.506V55.9009C107.506 56.9269 107.374 57.6829 107.11 58.1689C106.846 58.6489 106.405 58.8889 105.787 58.8889V58.0699Z" fill="#333333"/>
</svg>
