<svg width="200" height="68" viewBox="0 0 200 68" fill="none" xmlns="http://www.w3.org/2000/svg">
<path d="M36.8474 52.3776L36.8552 52.3776C44.9719 52.3734 51.5506 45.7926 51.5506 37.6754C51.5506 29.5556 44.9677 22.9731 36.8474 22.9731C36.8474 22.9731 36.8474 22.9731 36.8474 22.9731C35.7656 22.9731 34.8887 23.85 34.8887 24.9317C34.8887 26.0134 35.7656 26.8903 36.8474 26.8903L36.8474 26.8937C42.8023 26.8937 47.6297 31.7208 47.6297 37.6754C47.6297 43.6299 42.8023 48.457 36.8474 48.457L36.8474 48.4604C35.7656 48.4604 34.8887 49.3373 34.8887 50.419C34.8887 51.5007 35.7656 52.3776 36.8474 52.3776Z" fill="white"/>
<path d="M50.6884 49.4243C50.6759 49.4384 50.6635 49.4527 50.6513 49.4673C49.9552 50.2968 50.0634 51.5336 50.893 52.2296C51.7226 52.9257 52.9594 52.8175 53.6555 51.988C53.657 51.9862 53.6585 51.9844 53.66 51.9826C61.4866 42.6524 60.2687 28.7443 50.939 20.9162C41.6082 13.0873 27.697 14.3043 19.8676 23.6345L19.8663 23.636C19.1705 24.4651 19.2787 25.7013 20.1079 26.3971C20.9371 27.0928 22.1734 26.9847 22.8692 26.1555L22.8704 26.1541C29.3079 18.4825 40.7467 17.4824 48.4187 23.9196C56.0769 30.3452 57.0878 41.7531 50.6884 49.4243Z" fill="white"/>
<path d="M62.0793 37.6756C62.0793 23.6013 50.669 12.1918 36.5938 12.1918C22.5186 12.1918 11.1084 23.6013 11.1083 37.6756H11.1067C11.1067 37.6756 11.1067 37.6757 11.1067 37.6756C11.1067 38.7578 10.2293 39.6352 9.14708 39.6352C8.06483 39.6352 7.1875 38.7579 7.1875 37.6757C7.1875 37.6758 7.1875 37.6757 7.1875 37.6757C7.18755 21.4361 20.3532 8.27124 36.5938 8.27124C52.8334 8.27124 65.9984 21.4343 66.0001 37.6725L66.0001 37.6757C66.0001 38.7579 65.1228 39.6352 64.0406 39.6352C62.9583 39.6352 62.081 38.7579 62.081 37.6757L62.0793 37.6756Z" fill="white"/>
<path d="M36.5204 67.0801L36.5938 67.0802L36.6673 67.0801H36.5204Z" fill="white"/>
<path d="M64.6749 16.8132C65.4904 16.1289 65.6093 14.9225 64.9529 14.0932L64.9191 14.0516C58.1762 6.02311 48.0631 0.919801 36.7579 0.9198C16.4571 0.919798 3.85143e-06 17.3758 0 37.6754C-5.42927e-07 46.6687 3.23013 54.9076 8.59356 61.2954C8.59542 61.2976 8.59729 61.2999 8.59916 61.3021C9.29578 62.1323 10.5335 62.2405 11.3637 61.544C12.1939 60.8474 12.3022 59.6097 11.6056 58.7796C11.58 58.7491 11.5537 58.7196 11.5267 58.6911C6.77791 52.9966 3.92084 45.6696 3.92085 37.6754C3.92085 19.5411 18.6225 4.84039 36.7579 4.8404C46.814 4.8404 55.8144 9.36047 61.8378 16.4796C61.8609 16.5107 61.8851 16.5413 61.9103 16.5713C62.6069 17.4015 63.8447 17.5098 64.6749 16.8132Z" fill="white"/>
<path d="M78.001 10.2199H83.1851L90.3132 24.583L97.4413 10.2199H102.337V35.4183H97.4413V18.8593L92.0052 30.0546H88.3331L82.8971 18.8593V35.4183H78.001V10.2199Z" fill="white"/>
<path d="M114.616 14.5036H107.38V10.2199H126.965V14.5036H119.728V35.4183H114.616V14.5036Z" fill="white"/>
<path d="M133.708 31.4225C135.244 31.4225 136.324 31.2665 136.948 30.9545C137.596 30.6426 138.016 30.2346 138.208 29.7306L138.46 29.1187L129.496 10.2199H135.004L140.836 23.431L145.948 10.2199H151.312L143.284 29.7306C142.804 30.9306 142.3 31.9265 141.772 32.7184C141.268 33.4864 140.656 34.0984 139.936 34.5543C139.216 35.0103 138.352 35.3223 137.344 35.4903C136.36 35.6583 135.148 35.7422 133.708 35.7422V31.4225Z" fill="white"/>
<path d="M164.545 35.7422C161.449 35.7422 159.001 34.7703 157.201 32.8264C155.425 30.8826 154.537 27.9067 154.537 23.899V21.0192C154.537 17.3714 155.425 14.6116 157.201 12.7397C159.001 10.8438 161.449 9.89587 164.545 9.89587C166.033 9.89587 167.342 10.0879 168.47 10.4718C169.598 10.8558 170.558 11.4078 171.35 12.1277C172.142 12.8477 172.766 13.7236 173.222 14.7556C173.678 15.7635 173.978 16.9034 174.122 18.1754H168.974C168.758 16.9514 168.314 16.0035 167.642 15.3315C166.97 14.6596 165.937 14.3236 164.545 14.3236C163.033 14.3236 161.845 14.8396 160.981 15.8715C160.117 16.8794 159.685 18.5953 159.685 21.0192V23.899C159.685 25.2909 159.793 26.4668 160.009 27.4268C160.249 28.3627 160.573 29.1187 160.981 29.6946C161.389 30.2706 161.893 30.6906 162.493 30.9545C163.093 31.1945 163.777 31.3145 164.545 31.3145C165.961 31.3145 166.981 30.9785 167.606 30.3066C168.254 29.6106 168.71 28.6027 168.974 27.2828H174.122C173.81 29.9706 172.874 32.0585 171.314 33.5464C169.754 35.0103 167.498 35.7422 164.545 35.7422Z" fill="white"/>
<path d="M179.913 10.2199H185.062V27.1388L194.71 10.2199H199.93V35.4183H194.782V18.4993L185.026 35.4183H179.913V10.2199Z" fill="white"/>
<path d="M80.386 47.8878C80.014 47.8878 79.681 47.8308 79.387 47.7168C79.093 47.6028 78.844 47.4259 78.64 47.1859C78.436 46.9459 78.28 46.6399 78.172 46.2679C78.064 45.896 78.01 45.452 78.01 44.936V44.2161C78.01 43.2861 78.22 42.5962 78.64 42.1462C79.06 41.6902 79.642 41.4622 80.386 41.4622C81.04 41.4622 81.559 41.6152 81.943 41.9212C82.333 42.2272 82.588 42.7102 82.708 43.3701H81.862C81.748 42.9441 81.574 42.6442 81.34 42.4702C81.106 42.2962 80.788 42.2092 80.386 42.2092C79.9 42.2092 79.522 42.3652 79.252 42.6772C78.982 42.9831 78.847 43.4961 78.847 44.2161V44.936C78.847 45.344 78.88 45.689 78.946 45.9709C79.018 46.2529 79.12 46.4809 79.252 46.6549C79.384 46.8289 79.543 46.9549 79.729 47.0329C79.921 47.1049 80.14 47.1409 80.386 47.1409C80.596 47.1409 80.779 47.1199 80.935 47.0779C81.097 47.0299 81.235 46.9609 81.349 46.8709C81.469 46.7749 81.568 46.6519 81.646 46.5019C81.73 46.3519 81.802 46.1689 81.862 45.953H82.708C82.57 46.6489 82.303 47.1469 81.907 47.4469C81.517 47.7408 81.01 47.8878 80.386 47.8878Z" fill="white"/>
<path d="M85.65 47.8878C85.362 47.8878 85.098 47.8428 84.858 47.7528C84.624 47.6568 84.423 47.5189 84.255 47.3389C84.093 47.1529 83.964 46.9279 83.868 46.6639C83.778 46.3939 83.733 46.0849 83.733 45.737V45.053C83.733 44.381 83.898 43.8711 84.228 43.5231C84.564 43.1691 85.023 42.9921 85.605 42.9921C86.187 42.9921 86.6431 43.1691 86.9731 43.5231C87.3091 43.8711 87.4771 44.387 87.4771 45.071V45.674H84.525C84.531 46.2199 84.633 46.6129 84.831 46.8529C85.035 47.0869 85.308 47.2039 85.65 47.2039C85.8 47.2039 85.929 47.1859 86.037 47.1499C86.151 47.1079 86.2441 47.0539 86.3161 46.9879C86.3941 46.9219 86.4541 46.8469 86.4961 46.7629C86.5381 46.6789 86.5681 46.5919 86.5861 46.5019H87.3871C87.2911 46.9699 87.0961 47.3179 86.8021 47.5458C86.5081 47.7738 86.124 47.8878 85.65 47.8878ZM85.614 43.6761C85.272 43.6761 85.005 43.7811 84.813 43.9911C84.627 44.1951 84.531 44.54 84.525 45.026H86.7301C86.7181 44.54 86.6161 44.1951 86.4241 43.9911C86.238 43.7811 85.968 43.6761 85.614 43.6761Z" fill="white"/>
<path d="M88.7959 43.0551H90.5779C91.1659 43.0551 91.5979 43.1781 91.8739 43.4241C92.1559 43.6641 92.2969 43.9761 92.2969 44.3601C92.2969 44.462 92.2789 44.564 92.2429 44.666C92.2129 44.768 92.1649 44.864 92.0989 44.954C92.0389 45.044 91.9639 45.122 91.8739 45.188C91.7899 45.254 91.6939 45.305 91.5859 45.341C91.8799 45.413 92.1019 45.551 92.2519 45.755C92.4019 45.959 92.4769 46.1959 92.4769 46.4659C92.4769 46.8799 92.3359 47.2099 92.0539 47.4559C91.7779 47.7018 91.3459 47.8248 90.7579 47.8248H88.7959V43.0551ZM90.7579 47.1499C91.0999 47.1499 91.3399 47.0899 91.4779 46.9699C91.6159 46.8439 91.6849 46.6639 91.6849 46.4299C91.6849 46.2019 91.6159 46.0279 91.4779 45.908C91.3399 45.788 91.0999 45.728 90.7579 45.728H89.5789V47.1499H90.7579ZM90.5779 45.062C90.9199 45.062 91.1599 45.005 91.2979 44.891C91.4359 44.771 91.5049 44.606 91.5049 44.396C91.5049 44.1861 91.4359 44.0241 91.2979 43.9101C91.1599 43.7901 90.9199 43.7301 90.5779 43.7301H89.5789V45.062H90.5779Z" fill="white"/>
<path d="M95.5024 47.8878C95.2144 47.8878 94.9504 47.8428 94.7104 47.7528C94.4764 47.6568 94.2754 47.5189 94.1074 47.3389C93.9454 47.1529 93.8164 46.9279 93.7204 46.6639C93.6304 46.3939 93.5854 46.0849 93.5854 45.737V45.053C93.5854 44.381 93.7504 43.8711 94.0804 43.5231C94.4164 43.1691 94.8754 42.9921 95.4574 42.9921C96.0394 42.9921 96.4954 43.1691 96.8254 43.5231C97.1614 43.8711 97.3294 44.387 97.3294 45.071V45.674H94.3774C94.3834 46.2199 94.4854 46.6129 94.6834 46.8529C94.8874 47.0869 95.1604 47.2039 95.5024 47.2039C95.6524 47.2039 95.7814 47.1859 95.8894 47.1499C96.0034 47.1079 96.0964 47.0539 96.1684 46.9879C96.2464 46.9219 96.3064 46.8469 96.3484 46.7629C96.3904 46.6789 96.4204 46.5919 96.4384 46.5019H97.2394C97.1434 46.9699 96.9484 47.3179 96.6544 47.5458C96.3604 47.7738 95.9764 47.8878 95.5024 47.8878ZM95.4664 43.6761C95.1244 43.6761 94.8574 43.7811 94.6654 43.9911C94.4794 44.1951 94.3834 44.54 94.3774 45.026H96.5824C96.5704 44.54 96.4684 44.1951 96.2764 43.9911C96.0904 43.7811 95.8204 43.6761 95.4664 43.6761Z" fill="white"/>
<path d="M98.6482 43.0551H99.3592V43.8471C99.4972 43.5831 99.6802 43.3761 99.9082 43.2261C100.142 43.0761 100.43 43.0011 100.772 43.0011C101.024 43.0011 101.255 43.0461 101.465 43.1361C101.675 43.2261 101.855 43.3581 102.005 43.5321C102.161 43.7001 102.281 43.9131 102.365 44.1711C102.455 44.429 102.5 44.723 102.5 45.053V45.737C102.5 46.0909 102.455 46.4029 102.365 46.6729C102.281 46.9429 102.161 47.1679 102.005 47.3479C101.855 47.5279 101.675 47.6628 101.465 47.7528C101.255 47.8428 101.024 47.8878 100.772 47.8878C100.448 47.8878 100.175 47.8128 99.9532 47.6628C99.7312 47.5129 99.5632 47.3209 99.4492 47.0869V49.6247H98.6482V43.0551ZM100.61 47.1859C100.934 47.1859 101.198 47.0719 101.402 46.8439C101.606 46.6099 101.708 46.2409 101.708 45.737V45.053C101.708 44.603 101.606 44.2671 101.402 44.0451C101.198 43.8171 100.934 43.7031 100.61 43.7031C100.25 43.7031 99.9652 43.8171 99.7552 44.0451C99.5512 44.2671 99.4492 44.603 99.4492 45.053V45.737C99.4492 46.2409 99.5512 46.6099 99.7552 46.8439C99.9652 47.0719 100.25 47.1859 100.61 47.1859Z" fill="white"/>
<path d="M105.576 47.8878C104.975 47.8878 104.498 47.7048 104.144 47.3389C103.79 46.9669 103.613 46.4329 103.613 45.737V45.053C103.613 44.729 103.658 44.441 103.748 44.1891C103.844 43.9311 103.976 43.7151 104.144 43.5411C104.318 43.3611 104.525 43.2261 104.765 43.1361C105.005 43.0401 105.275 42.9921 105.576 42.9921C105.876 42.9921 106.146 43.0401 106.386 43.1361C106.626 43.2261 106.83 43.3611 106.998 43.5411C107.172 43.7151 107.304 43.9311 107.394 44.1891C107.49 44.441 107.538 44.729 107.538 45.053V45.737C107.538 46.4329 107.361 46.9669 107.007 47.3389C106.653 47.7048 106.176 47.8878 105.576 47.8878ZM105.576 47.1859C105.936 47.1859 106.221 47.0719 106.431 46.8439C106.641 46.6099 106.746 46.2409 106.746 45.737V45.053C106.746 44.597 106.641 44.2581 106.431 44.0361C106.221 43.8081 105.936 43.6941 105.576 43.6941C105.215 43.6941 104.93 43.8081 104.72 44.0361C104.51 44.2581 104.405 44.597 104.405 45.053V45.737C104.405 46.2409 104.51 46.6099 104.72 46.8439C104.93 47.0719 105.215 47.1859 105.576 47.1859Z" fill="white"/>
<path d="M108.528 44.576H110.904V45.314H108.528V44.576Z" fill="white"/>
<path d="M112.307 41.5252H113.153V44.2701H114.107L116.015 41.5252H116.978L114.8 44.594L117.158 47.8248H116.132L114.107 44.999H113.153V47.8248H112.307V41.5252Z" fill="white"/>
<path d="M119.073 47.8788C118.635 47.8788 118.293 47.7588 118.047 47.5189C117.801 47.2729 117.678 46.9309 117.678 46.4929C117.678 46.0309 117.81 45.68 118.074 45.44C118.338 45.194 118.761 45.071 119.343 45.071H120.477V44.612C120.477 44.2881 120.402 44.0541 120.252 43.9101C120.108 43.7601 119.883 43.6851 119.577 43.6851C119.421 43.6851 119.289 43.7031 119.181 43.7391C119.073 43.7691 118.986 43.8141 118.92 43.8741C118.854 43.9281 118.803 43.9911 118.767 44.0631C118.731 44.1351 118.71 44.2071 118.704 44.2791H117.93C117.948 44.0931 117.99 43.9221 118.056 43.7661C118.122 43.6101 118.221 43.4751 118.353 43.3611C118.485 43.2471 118.65 43.1571 118.848 43.0911C119.052 43.0251 119.298 42.9921 119.586 42.9921C120.162 42.9921 120.585 43.1271 120.855 43.3971C121.125 43.6611 121.26 44.0661 121.26 44.612V47.8248H120.567V47.0329C120.507 47.1349 120.438 47.2369 120.36 47.3389C120.282 47.4409 120.183 47.5339 120.063 47.6178C119.949 47.6958 119.811 47.7588 119.649 47.8068C119.487 47.8548 119.295 47.8788 119.073 47.8788ZM119.298 47.1949C119.658 47.1949 119.943 47.0899 120.153 46.8799C120.369 46.6639 120.477 46.3729 120.477 46.0069V45.719H119.379C119.037 45.719 118.797 45.782 118.659 45.908C118.527 46.0279 118.461 46.2199 118.461 46.4839C118.461 46.6939 118.53 46.8649 118.668 46.9969C118.806 47.1289 119.016 47.1949 119.298 47.1949Z" fill="white"/>
<path d="M122.743 43.0551H124.525C125.113 43.0551 125.545 43.1781 125.821 43.4241C126.103 43.6641 126.244 43.9761 126.244 44.3601C126.244 44.462 126.226 44.564 126.19 44.666C126.16 44.768 126.112 44.864 126.046 44.954C125.986 45.044 125.911 45.122 125.821 45.188C125.737 45.254 125.641 45.305 125.533 45.341C125.827 45.413 126.049 45.551 126.199 45.755C126.349 45.959 126.424 46.1959 126.424 46.4659C126.424 46.8799 126.283 47.2099 126.001 47.4559C125.725 47.7018 125.293 47.8248 124.705 47.8248H122.743V43.0551ZM124.705 47.1499C125.047 47.1499 125.287 47.0899 125.425 46.9699C125.563 46.8439 125.632 46.6639 125.632 46.4299C125.632 46.2019 125.563 46.0279 125.425 45.908C125.287 45.788 125.047 45.728 124.705 45.728H123.526V47.1499H124.705ZM124.525 45.062C124.867 45.062 125.107 45.005 125.245 44.891C125.383 44.771 125.452 44.606 125.452 44.396C125.452 44.1861 125.383 44.0241 125.245 43.9101C125.107 43.7901 124.867 43.7301 124.525 43.7301H123.526V45.062H124.525Z" fill="white"/>
<path d="M127.739 43.0551H128.54V45.053H129.161L130.691 43.0551H131.582L129.818 45.368L131.726 47.8248H130.79L129.17 45.737H128.54V47.8248H127.739V43.0551Z" fill="white"/>
<path d="M133.825 47.8788C133.387 47.8788 133.045 47.7588 132.799 47.5189C132.553 47.2729 132.43 46.9309 132.43 46.4929C132.43 46.0309 132.562 45.68 132.826 45.44C133.09 45.194 133.513 45.071 134.095 45.071H135.229V44.612C135.229 44.2881 135.154 44.0541 135.004 43.9101C134.86 43.7601 134.635 43.6851 134.329 43.6851C134.173 43.6851 134.041 43.7031 133.933 43.7391C133.825 43.7691 133.738 43.8141 133.672 43.8741C133.606 43.9281 133.555 43.9911 133.519 44.0631C133.483 44.1351 133.462 44.2071 133.456 44.2791H132.682C132.7 44.0931 132.742 43.9221 132.808 43.7661C132.874 43.6101 132.973 43.4751 133.105 43.3611C133.237 43.2471 133.402 43.1571 133.6 43.0911C133.804 43.0251 134.05 42.9921 134.338 42.9921C134.914 42.9921 135.337 43.1271 135.607 43.3971C135.877 43.6611 136.012 44.0661 136.012 44.612V47.8248H135.319V47.0329C135.259 47.1349 135.19 47.2369 135.112 47.3389C135.034 47.4409 134.935 47.5339 134.815 47.6178C134.701 47.6958 134.563 47.7588 134.401 47.8068C134.239 47.8548 134.047 47.8788 133.825 47.8788ZM134.05 47.1949C134.41 47.1949 134.695 47.0899 134.905 46.8799C135.121 46.6639 135.229 46.3729 135.229 46.0069V45.719H134.131C133.789 45.719 133.549 45.782 133.411 45.908C133.279 46.0279 133.213 46.2199 133.213 46.4839C133.213 46.6939 133.282 46.8649 133.42 46.9969C133.558 47.1289 133.768 47.1949 134.05 47.1949Z" fill="white"/>
<path d="M138.935 47.8878C138.335 47.8878 137.888 47.7648 137.594 47.5189C137.3 47.2729 137.135 46.9219 137.099 46.4659H137.891C137.933 46.6999 138.029 46.8829 138.179 47.0149C138.335 47.1409 138.587 47.2039 138.935 47.2039C139.319 47.2039 139.589 47.1409 139.745 47.0149C139.901 46.8829 139.979 46.6999 139.979 46.4659C139.979 46.2319 139.901 46.0519 139.745 45.926C139.589 45.794 139.319 45.728 138.935 45.728H138.269V45.062H138.89C139.214 45.062 139.445 45.002 139.583 44.882C139.727 44.762 139.799 44.588 139.799 44.3601C139.799 44.1381 139.73 43.9671 139.592 43.8471C139.454 43.7271 139.22 43.6671 138.89 43.6671C138.608 43.6671 138.401 43.7271 138.269 43.8471C138.137 43.9671 138.053 44.1381 138.017 44.3601H137.189C137.207 44.1621 137.261 43.9791 137.351 43.8111C137.441 43.6431 137.558 43.4991 137.702 43.3791C137.852 43.2531 138.026 43.1571 138.224 43.0911C138.428 43.0251 138.65 42.9921 138.89 42.9921C139.178 42.9921 139.427 43.0251 139.637 43.0911C139.853 43.1571 140.03 43.2501 140.168 43.3701C140.312 43.4901 140.417 43.6341 140.483 43.8021C140.555 43.9641 140.591 44.1441 140.591 44.3421C140.591 44.456 140.573 44.567 140.537 44.675C140.507 44.777 140.459 44.873 140.393 44.963C140.333 45.053 140.258 45.131 140.168 45.197C140.084 45.263 139.988 45.314 139.88 45.35C140.174 45.422 140.396 45.563 140.546 45.773C140.696 45.9769 140.771 46.2139 140.771 46.4839C140.771 46.9099 140.624 47.2519 140.33 47.5099C140.036 47.7618 139.571 47.8878 138.935 47.8878Z" fill="white"/>
<path d="M143.797 47.8878C143.509 47.8878 143.245 47.8428 143.005 47.7528C142.771 47.6568 142.57 47.5189 142.402 47.3389C142.24 47.1529 142.111 46.9279 142.015 46.6639C141.925 46.3939 141.88 46.0849 141.88 45.737V45.053C141.88 44.729 141.925 44.441 142.015 44.1891C142.111 43.9311 142.24 43.7151 142.402 43.5411C142.57 43.3611 142.771 43.2261 143.005 43.1361C143.245 43.0401 143.509 42.9921 143.797 42.9921C144.037 42.9921 144.262 43.0251 144.472 43.0911C144.688 43.1571 144.877 43.2531 145.039 43.3791C145.201 43.5051 145.333 43.6581 145.435 43.8381C145.537 44.0121 145.6 44.2071 145.624 44.423H144.823C144.775 44.2251 144.67 44.0541 144.508 43.9101C144.346 43.7661 144.109 43.6941 143.797 43.6941C143.455 43.6941 143.182 43.8081 142.978 44.0361C142.774 44.2581 142.672 44.597 142.672 45.053V45.737C142.672 46.2469 142.774 46.6159 142.978 46.8439C143.182 47.0719 143.455 47.1859 143.797 47.1859C144.109 47.1859 144.346 47.1109 144.508 46.9609C144.67 46.8109 144.772 46.6429 144.814 46.4569H145.624C145.516 46.9309 145.306 47.2879 144.994 47.5279C144.688 47.7678 144.289 47.8878 143.797 47.8878Z" fill="white"/>
<path d="M146.855 43.0551H147.656V45.053H148.277L149.807 43.0551H150.698L148.934 45.368L150.842 47.8248H149.906L148.286 45.737H147.656V47.8248H146.855V43.0551Z" fill="white"/>
<path d="M151.852 43.0551H152.617V46.6999L154.84 43.0551H155.632V47.8248H154.867V44.1801L152.644 47.8248H151.852V43.0551Z" fill="white"/>
<path d="M157.165 43.0551H157.93V46.6999L160.153 43.0551H160.945V47.8248H160.18V44.1801L157.957 47.8248H157.165V43.0551ZM159.055 42.5872C158.605 42.5872 158.275 42.4882 158.065 42.2902C157.855 42.0862 157.75 41.7952 157.75 41.4172H158.479C158.479 41.6452 158.524 41.8102 158.614 41.9122C158.71 42.0082 158.857 42.0562 159.055 42.0562C159.259 42.0562 159.406 42.0082 159.496 41.9122C159.592 41.8102 159.64 41.6452 159.64 41.4172H160.36C160.36 41.7952 160.255 42.0862 160.045 42.2902C159.835 42.4882 159.505 42.5872 159.055 42.5872Z" fill="white"/>
<path d="M80.683 58.3382C79.771 58.3382 79.096 58.1252 78.658 57.6992C78.22 57.2672 78.001 56.6163 78.001 55.7463V55.4224C78.001 54.6424 78.22 54.0454 78.658 53.6315C79.096 53.2175 79.771 53.0105 80.683 53.0105V52.5245H81.529V53.0105C82.441 53.0105 83.1161 53.2175 83.5541 53.6315C83.9921 54.0454 84.2111 54.6424 84.2111 55.4224V55.7463C84.2111 56.6163 83.9921 57.2672 83.5541 57.6992C83.1161 58.1252 82.441 58.3382 81.529 58.3382V58.8241H80.683V58.3382ZM83.3651 55.4224C83.3651 54.8644 83.2181 54.4474 82.9241 54.1714C82.636 53.8894 82.171 53.7485 81.529 53.7485V57.6002C82.171 57.6002 82.636 57.4532 82.9241 57.1592C83.2181 56.8653 83.3651 56.3943 83.3651 55.7463V55.4224ZM78.847 55.7463C78.847 56.3943 78.991 56.8653 79.279 57.1592C79.573 57.4532 80.041 57.6002 80.683 57.6002V53.7485C80.041 53.7485 79.573 53.8894 79.279 54.1714C78.991 54.4474 78.847 54.8644 78.847 55.4224V55.7463Z" fill="white"/>
<path d="M85.6539 54.0544H86.4189V57.6992L88.642 54.0544H89.434V58.8241H88.669V55.1794L86.4459 58.8241H85.6539V54.0544Z" fill="white"/>
<path d="M90.5348 58.0682C90.7148 58.0442 90.8648 57.9902 90.9848 57.9062C91.1048 57.8222 91.2008 57.6962 91.2728 57.5282C91.3448 57.3542 91.3958 57.1352 91.4258 56.8713C91.4558 56.6073 91.4708 56.2833 91.4708 55.8993V54.0544H94.6119V58.8241H93.8108V54.7474H92.2538V55.8993C92.2538 56.9253 92.1218 57.6812 91.8578 58.1672C91.5938 58.6471 91.1528 58.8871 90.5348 58.8871V58.0682Z" fill="white"/>
<path d="M96.1391 54.0544H96.9041V57.6992L99.1271 54.0544H99.9191V58.8241H99.1541V55.1794L96.9311 58.8241H96.1391V54.0544Z" fill="white"/>
<path d="M102.55 58.8781C102.112 58.8781 101.77 58.7581 101.524 58.5182C101.278 58.2722 101.155 57.9302 101.155 57.4922C101.155 57.0303 101.287 56.6793 101.551 56.4393C101.815 56.1933 102.238 56.0703 102.82 56.0703H103.954V55.6113C103.954 55.2874 103.879 55.0534 103.729 54.9094C103.585 54.7594 103.36 54.6844 103.054 54.6844C102.898 54.6844 102.766 54.7024 102.658 54.7384C102.55 54.7684 102.463 54.8134 102.397 54.8734C102.331 54.9274 102.28 54.9904 102.244 55.0624C102.208 55.1344 102.187 55.2064 102.181 55.2784H101.407C101.425 55.0924 101.467 54.9214 101.533 54.7654C101.599 54.6094 101.698 54.4744 101.83 54.3604C101.962 54.2464 102.127 54.1564 102.325 54.0904C102.529 54.0244 102.775 53.9914 103.063 53.9914C103.639 53.9914 104.062 54.1264 104.332 54.3964C104.602 54.6604 104.737 55.0654 104.737 55.6113V58.8241H104.044V58.0322C103.984 58.1342 103.915 58.2362 103.837 58.3382C103.759 58.4402 103.66 58.5332 103.54 58.6172C103.426 58.6951 103.288 58.7581 103.126 58.8061C102.964 58.8541 102.772 58.8781 102.55 58.8781ZM102.775 58.1942C103.135 58.1942 103.42 58.0892 103.63 57.8792C103.846 57.6632 103.954 57.3722 103.954 57.0063V56.7183H102.856C102.514 56.7183 102.274 56.7813 102.136 56.9073C102.004 57.0273 101.938 57.2192 101.938 57.4832C101.938 57.6932 102.007 57.8642 102.145 57.9962C102.283 58.1282 102.493 58.1942 102.775 58.1942Z" fill="white"/>
<path d="M105.788 58.0682C105.968 58.0442 106.118 57.9902 106.238 57.9062C106.358 57.8222 106.454 57.6962 106.526 57.5282C106.598 57.3542 106.649 57.1352 106.679 56.8713C106.709 56.6073 106.724 56.2833 106.724 55.8993V54.0544H109.865V58.8241H109.064V54.7474H107.507V55.8993C107.507 56.9253 107.375 57.6812 107.111 58.1672C106.847 58.6471 106.406 58.8871 105.788 58.8871V58.0682Z" fill="white"/>
</svg>
