<svg width="1000" height="1000" viewBox="0 0 1000 1000" fill="none" xmlns="http://www.w3.org/2000/svg">
<path d="M349.32 356.688V419.021H362.103V378.298H362.621L378.752 418.717H387.457L403.588 378.45H404.105V419.021H416.888V356.688H400.635L383.469 398.568H382.739L365.573 356.688H349.32Z" fill="white"/>
<path d="M424.944 367.554H444.027V419.021H457.054V367.554H476.137V356.688H424.944V367.554Z" fill="white"/>
<path d="M490.866 419.873H495.553C505.779 419.873 509.888 413.725 513.023 406.786L534.511 356.688H521.058L508.792 387.368L494.122 356.688H480.487L503.131 401.551L502.37 403.59C501.092 407.273 499.266 409.16 494.244 409.16H490.866V419.873Z" fill="white"/>
<path d="M592.443 378.511C590.708 364.115 579.812 355.836 565.386 355.836C548.92 355.836 536.35 367.462 536.35 387.855C536.35 408.186 548.707 419.873 565.386 419.873C581.364 419.873 591.013 409.251 592.443 397.777L579.112 397.716C577.864 404.381 572.629 408.216 565.599 408.216C556.133 408.216 549.711 401.186 549.711 387.855C549.711 374.889 556.042 367.493 565.69 367.493C572.903 367.493 578.108 371.663 579.112 378.511H592.443Z" fill="white"/>
<path d="M601.495 356.688V419.021H612.879L639.997 379.789H640.453V419.021H653.632V356.688H642.067L615.161 395.89H614.613V356.688H601.495Z" fill="white"/>
<path fill-rule="evenodd" clip-rule="evenodd" d="M589.618 602.151L603.469 594.139C582.712 558.203 543.926 534.021 499.49 534.021C455.055 534.021 416.269 558.202 395.512 594.137L409.363 602.15C427.356 570.983 460.986 550.021 499.49 550.021C537.994 550.021 571.624 570.984 589.618 602.151ZM571.778 612.471C557.347 587.491 530.384 570.679 499.489 570.679C468.595 570.679 441.633 587.49 427.202 612.469L441.053 620.482C452.72 600.271 474.527 586.679 499.489 586.679C524.453 586.679 546.26 600.271 557.926 620.484L571.778 612.471ZM540.085 630.804C531.982 616.779 516.841 607.337 499.487 607.337C482.135 607.337 466.995 616.777 458.891 630.801L472.742 638.813C478.083 629.558 488.066 623.337 499.487 623.337C510.91 623.337 520.894 629.56 526.234 638.817L540.085 630.804Z" fill="#3F72E3"/>
<path fill-rule="evenodd" clip-rule="evenodd" d="M269.111 338.222C268.067 338.222 267 339.046 267 340.09V707.634C267 708.677 268.067 709.544 269.111 709.544H452.95C464.319 709.544 472.56 717.677 476.764 725.061C480.083 730.89 486.421 737.778 499.738 737.778C512.937 737.778 519.109 731.014 522.342 725.28C526.533 717.847 534.808 709.544 546.295 709.544H730.511C731.554 709.544 732 708.698 732 707.655V340.111C732 339.067 731.554 338.222 730.511 338.222H707V322H730.511C740.513 322 748 330.108 748 340.111V707.655C748 717.657 740.51 725.544 730.508 725.544H546.292C543.314 725.544 539.398 728.343 536.485 733.51C531.016 743.208 519.988 754 499.738 754C479.333 754 468.202 743.048 462.68 733.35C459.798 728.289 455.898 725.544 452.947 725.544H269.108C259.106 725.544 251 717.657 251 707.655V340.111C251 330.108 259.108 322 269.111 322H292V338.222H269.111Z" fill="#3F72E3"/>
<path fill-rule="evenodd" clip-rule="evenodd" d="M449.497 285.021H308V668C348.428 668 429.821 668 449.517 668H449.524L449.54 668L449.582 668C449.615 668 449.657 668.001 449.708 668.001C449.81 668.002 449.948 668.004 450.12 668.008C450.464 668.016 450.945 668.031 451.546 668.059C452.748 668.116 454.439 668.228 456.49 668.448C460.574 668.886 466.187 669.764 472.259 671.541C480.997 674.099 491.522 678.779 499.436 687.42C507.275 678.758 517.84 674.084 526.589 671.538C532.693 669.762 538.353 668.885 542.472 668.447C544.541 668.227 546.248 668.116 547.461 668.059C548.068 668.031 548.553 668.016 548.9 668.008C549.073 668.004 549.212 668.002 549.315 668.001C549.366 668.001 549.409 668 549.441 668L549.499 668H549.506C569.202 668 650.572 668 691 668V285.021H549.53L549.514 285.021C549.483 285.021 549.423 285.022 549.333 285.025C549.154 285.029 548.86 285.039 548.464 285.06C547.67 285.102 546.47 285.189 544.96 285.368C541.928 285.727 537.715 286.448 533.057 287.885C523.696 290.772 513.186 296.332 506.315 306.987C505.565 308.2 504.482 309.228 503.117 309.917C499.172 311.908 494.361 310.325 492.37 306.38C487.309 296.354 477.311 290.855 467.366 287.911C462.498 286.47 457.956 285.741 454.625 285.376C452.968 285.194 451.634 285.105 450.739 285.062C450.293 285.04 449.957 285.03 449.747 285.025C449.671 285.023 449.611 285.022 449.569 285.022C449.553 285.021 449.54 285.021 449.529 285.021L449.512 285.021V269.021C449.512 269.021 449.515 269.021 449.518 269.021L449.524 269.021L449.54 269.021L449.583 269.021L449.639 269.021L449.708 269.022C449.809 269.023 449.945 269.025 450.114 269.029C450.452 269.037 450.924 269.052 451.515 269.08C452.694 269.138 454.352 269.25 456.368 269.471C460.38 269.911 465.9 270.791 471.908 272.569C480.927 275.239 491.813 280.176 499.989 289.373C508.815 280.311 519.465 275.333 528.341 272.596C534.121 270.813 539.315 269.924 543.079 269.479C544.967 269.255 546.514 269.141 547.616 269.082C548.168 269.053 548.61 269.038 548.93 269.03C549.09 269.026 549.219 269.023 549.317 269.022C549.365 269.022 549.406 269.021 549.439 269.021L549.481 269.021C570.001 268.974 651.887 269.021 693 269.021C700.732 269.021 707 275.289 707 283.021V670C707 677.732 700.732 684 693 684H549.526H549.52H549.517H549.512L549.487 684C549.443 684.001 549.364 684.002 549.253 684.004C549.16 684.006 549.043 684.009 548.905 684.014C548.714 684.02 548.481 684.029 548.209 684.042C547.271 684.085 545.881 684.175 544.161 684.358C540.702 684.725 536.018 685.458 531.06 686.901C520.864 689.868 511.161 695.321 506.83 704.986C506.075 706.698 504.72 708.154 502.89 709.006C498.886 710.872 494.126 709.139 492.26 705.134C487.694 695.332 477.882 689.858 467.765 686.897C462.837 685.455 458.2 684.723 454.783 684.357C453.085 684.174 451.713 684.085 450.79 684.041C450.329 684.02 449.981 684.009 449.763 684.004C449.653 684.002 449.577 684.001 449.534 684L449.512 684H449.507H449.503L449.496 684L305.512 684C297.78 684 292 677.732 292 670V283.021C292 275.289 297.78 269.021 305.512 269.021H449.512C449.512 269.021 449.509 285.021 449.507 285.021L449.503 285.021H449.497Z" fill="white"/>
<path d="M475.723 461.187C474.649 452.275 467.904 447.151 458.974 447.151C448.781 447.151 441 454.348 441 466.971C441 479.556 448.649 486.791 458.974 486.791C468.865 486.791 474.837 480.216 475.723 473.113L467.471 473.075C466.698 477.201 463.458 479.575 459.106 479.575C453.246 479.575 449.271 475.223 449.271 466.971C449.271 458.945 453.19 454.367 459.162 454.367C463.627 454.367 466.849 456.948 467.471 461.187H475.723Z" fill="white"/>
<path d="M506.243 486.263H516.36L500.609 465.577L515.663 447.678H505.508L492.696 463.09H491.057V447.678H482.899V486.263H491.057V469.816H493.846L506.243 486.263Z" fill="white"/>
<path d="M534.873 451.823C525.642 451.823 518.934 458.04 518.934 467.611C518.934 476.975 525.566 482.985 534.873 482.985H535.307V487.846H543.05V482.985H543.502C552.772 482.985 559.404 476.9 559.404 467.63C559.404 458.04 552.772 451.823 543.502 451.823H543.05V447H535.307V451.823H534.873ZM534.873 458.643H535.307V476.165H534.873C529.994 476.165 526.489 473.339 526.489 467.611C526.489 461.601 529.9 458.643 534.873 458.643ZM543.05 458.643H543.559C548.476 458.643 551.792 461.658 551.792 467.63C551.792 473.245 548.476 476.165 543.559 476.165H543.05V458.643Z" fill="white"/>
</svg>
