<?xml version="1.0" encoding="UTF-8" standalone="no"?>
<svg
   version="1.1"
   id="mdi-microphone-variant"
   width="24"
   height="24"
   viewBox="0 0 24 24"
   sodipodi:docname="microphone-variant.svg"
   inkscape:version="1.1.2 (b8e25be833, 2022-02-05)"
   xmlns:inkscape="http://www.inkscape.org/namespaces/inkscape"
   xmlns:sodipodi="http://sodipodi.sourceforge.net/DTD/sodipodi-0.dtd"
   xmlns="http://www.w3.org/2000/svg"
   xmlns:svg="http://www.w3.org/2000/svg">
  <defs
     id="defs7" />
  <sodipodi:namedview
     id="namedview5"
     pagecolor="#ffffff"
     bordercolor="#666666"
     borderopacity="1.0"
     inkscape:pageshadow="2"
     inkscape:pageopacity="0.0"
     inkscape:pagecheckerboard="0"
     showgrid="false"
     inkscape:zoom="33.666667"
     inkscape:cx="12.014851"
     inkscape:cy="11.955445"
     inkscape:window-width="1920"
     inkscape:window-height="1001"
     inkscape:window-x="-9"
     inkscape:window-y="-9"
     inkscape:window-maximized="1"
     inkscape:current-layer="mdi-microphone-variant" />
  <path
     d="M9,3A4,4 0 0,1 13,7H5A4,4 0 0,1 9,3M11.84,9.82L11,18H10V19A2,2 0 0,0 12,21A2,2 0 0,0 14,19V14A4,4 0 0,1 18,10H20L19,11L20,12H18A2,2 0 0,0 16,14V19A4,4 0 0,1 12,23A4,4 0 0,1 8,19V18H7L6.16,9.82C5.67,9.32 5.31,8.7 5.13,8H12.87C12.69,8.7 12.33,9.32 11.84,9.82M9,11A1,1 0 0,0 8,12A1,1 0 0,0 9,13A1,1 0 0,0 10,12A1,1 0 0,0 9,11Z"
     id="path2"
     style="fill:#498deb;fill-opacity:1" />
</svg>
