<svg width="80" height="80" viewBox="0 0 80 80" fill="none" xmlns="http://www.w3.org/2000/svg">
<g opacity="0.8">
<path d="M73.3333 63.3333H6.66659C4.83325 63.3333 3.33325 64.8333 3.33325 66.6667C3.33325 68.5 4.83325 70 6.66659 70H73.3333C75.1666 70 76.6666 68.5 76.6666 66.6667C76.6666 64.8333 75.1666 63.3333 73.3333 63.3333ZM13.3333 60H66.6666C70.3333 60 73.2999 57 73.2999 53.3333L73.3333 16.6667C73.3333 13 70.3333 10 66.6666 10H13.3333C9.66659 10 6.66659 13 6.66659 16.6667V53.3333C6.66659 57 9.66659 60 13.3333 60ZM28.6333 26.8333C29.5935 25.4028 30.859 24.2028 32.3386 23.32C33.8182 22.4371 35.4752 21.8932 37.1902 21.7274C38.9052 21.5617 40.6356 21.7782 42.2569 22.3613C43.8782 22.9445 45.3501 23.8798 46.5666 25.1C50.4999 29.0333 51.0333 35.1 48.1333 39.6333L53.3333 44.8C54.2999 45.7667 54.2999 47.3667 53.3333 48.3333C52.3666 49.3 50.7666 49.3 49.7999 48.3333L44.6333 43.1667C39.3999 46.5 32.0999 45.3 28.3999 39.4667C25.9666 35.6667 26.0999 30.5667 28.6333 26.8333Z" fill="#1B70E6"/>
<path d="M38.3334 40.0003C42.0153 40.0003 45.0001 37.0156 45.0001 33.3337C45.0001 29.6518 42.0153 26.667 38.3334 26.667C34.6515 26.667 31.6667 29.6518 31.6667 33.3337C31.6667 37.0156 34.6515 40.0003 38.3334 40.0003Z" fill="#1B70E6"/>
</g>
</svg>
