<svg width="32" height="30" viewBox="0 0 32 30" fill="none" xmlns="http://www.w3.org/2000/svg">
<path d="M0.552258 14.5964L8.37782 18.4965C8.68049 18.6458 9.03783 18.6352 9.32718 18.4658L16.2927 14.4164L12.0766 18.1525C11.8619 18.3431 11.7392 18.6152 11.7392 18.9018V28.0021C11.7392 28.9621 12.9646 29.3661 13.5393 28.6034L16.9221 24.106L25.2876 28.8701C25.8743 29.2075 26.6263 28.8688 26.7623 28.1981L31.9798 2.19735C32.1358 1.416 31.3585 0.778646 30.6358 1.06932L0.634927 12.7697C-0.17043 13.0843 -0.222431 14.211 0.552258 14.5964ZM29.6598 3.59739L25.0743 26.4474L17.1474 21.9326C16.7154 21.6859 16.1594 21.7952 15.8527 22.2006L13.7393 25.01V19.3512L25.141 9.24956C26.0437 8.45087 25.0063 7.03083 23.9756 7.63618L8.78849 16.4658L3.46567 13.8137L29.6598 3.59739Z" fill="white"/>
</svg>
