<svg width="75" height="70" viewBox="0 0 75 70" fill="none" xmlns="http://www.w3.org/2000/svg">
<path fill-rule="evenodd" clip-rule="evenodd" d="M60.0893 0H15.5027V5.15868H0V29.356C0 38.7076 10.4656 46.4031 20.7355 47.2037C24.107 50.8063 30.0371 53.4232 35.3151 54.539V60.8635C30.2679 62.4096 21.2523 66.0422 20.7355 70H55.3733C54.8515 66.0422 44.9177 62.4046 39.8605 60.8635V54.539C45.1585 53.4232 51.3546 50.8063 54.7311 47.2037C64.996 46.4031 75 38.7076 75 29.356V5.15868H60.0893V0ZM4.76119 9.74196H15.1415V30.5868C15.1415 34.6998 16.2051 38.6126 18.0765 42.1351C10.3101 39.6683 4.76119 33.3138 4.76119 25.8785V9.74196ZM45.4194 35.1651L37.6731 30.9071L29.9167 35.1651L31.3967 26.1587L25.1254 19.7841L33.7899 18.4682L37.6731 10.2823L41.5463 18.4682L50.2107 19.7841L43.9394 26.1587L45.4194 35.1651ZM56.9336 42.8006C58.815 39.1179 59.8936 35.045 59.8936 30.737V9.87706H70.299V25.8184C70.299 33.589 64.7251 40.2237 56.9336 42.8006Z" fill="#1B70E6"/>
</svg>
