<svg width="80" height="80" viewBox="0 0 80 80" fill="none" xmlns="http://www.w3.org/2000/svg">
<path fill-rule="evenodd" clip-rule="evenodd" d="M53.3332 29.9993C53.3332 33.5356 51.9284 36.927 49.4279 39.4274C46.9274 41.9279 43.5361 43.3327 39.9998 43.3327C36.4636 43.3327 33.0722 41.9279 30.5717 39.4274C28.0713 36.927 26.6665 33.5356 26.6665 29.9993C26.6665 26.4631 28.0713 23.0717 30.5717 20.5713C33.0722 18.0708 36.4636 16.666 39.9998 16.666C43.5361 16.666 46.9274 18.0708 49.4279 20.5713C51.9284 23.0717 53.3332 26.4631 53.3332 29.9993ZM46.6665 29.9993C46.6665 31.7675 45.9641 33.4631 44.7139 34.7134C43.4636 35.9636 41.7679 36.666 39.9998 36.666C38.2317 36.666 36.536 35.9636 35.2858 34.7134C34.0356 33.4631 33.3332 31.7675 33.3332 29.9993C33.3332 28.2312 34.0356 26.5355 35.2858 25.2853C36.536 24.0351 38.2317 23.3327 39.9998 23.3327C41.7679 23.3327 43.4636 24.0351 44.7139 25.2853C45.9641 26.5355 46.6665 28.2312 46.6665 29.9993Z" fill="#1B70E6"/>
<path fill-rule="evenodd" clip-rule="evenodd" d="M39.9999 3.33301C19.7499 3.33301 3.33325 19.7497 3.33325 39.9997C3.33325 60.2497 19.7499 76.6663 39.9999 76.6663C60.2499 76.6663 76.6666 60.2497 76.6666 39.9997C76.6666 19.7497 60.2499 3.33301 39.9999 3.33301ZM9.99992 39.9997C9.99992 46.9663 12.3766 53.3797 16.3599 58.473C19.1574 54.7993 22.7663 51.8222 26.9047 49.7741C31.0431 47.7259 35.5991 46.6623 40.2166 46.6663C44.7743 46.662 49.273 47.6981 53.3697 49.6956C57.4664 51.6931 61.0531 54.5994 63.8566 58.193C66.7447 54.405 68.6894 49.9837 69.5296 45.295C70.3698 40.6062 70.0814 35.7848 68.6882 31.2296C67.2951 26.6745 64.8373 22.5165 61.5182 19.0998C58.1991 15.6831 54.1141 13.1059 49.6012 11.5814C45.0883 10.0569 40.2772 9.62891 35.5661 10.3329C30.855 11.0369 26.3792 12.8526 22.5091 15.6299C18.6391 18.4071 15.486 22.0659 13.3107 26.3037C11.1354 30.5414 10.0005 35.2362 9.99992 39.9997ZM39.9999 69.9997C33.1131 70.01 26.4341 67.6408 21.0933 63.293C23.243 60.2155 26.1044 57.7027 29.4339 55.9686C32.7634 54.2345 36.4625 53.3303 40.2166 53.333C43.9238 53.33 47.5782 54.2116 50.8763 55.9044C54.1745 57.5973 57.0211 60.0525 59.1799 63.0663C53.7976 67.5554 47.0085 70.0095 39.9999 69.9997Z" fill="#1B70E6"/>
</svg>
