<svg width="32" height="32" viewBox="0 0 32 32" fill="none" xmlns="http://www.w3.org/2000/svg">
<path d="M16.1932 25.9998C20.8224 25.9998 19.1718 23.0691 19.5291 22.2265C19.5238 21.5972 19.5185 20.9918 19.5398 20.6238C19.8331 20.7065 20.5251 21.0572 21.9544 22.4465C24.1611 24.6731 24.7251 25.9998 26.5077 25.9998H29.789C30.829 25.9998 31.3703 25.5691 31.641 25.2078C31.9023 24.8585 32.1583 24.2451 31.8783 23.2905C31.1463 20.9918 26.877 17.0225 26.6117 16.6039C26.6517 16.5266 26.7157 16.4239 26.749 16.3706H26.7464C27.589 15.2572 30.805 10.4386 31.2783 8.51064C31.2797 8.50797 31.281 8.50397 31.281 8.49997C31.537 7.61998 31.3023 7.04932 31.0597 6.72666C30.6943 6.244 30.113 6 29.3277 6H26.0464C24.9477 6 24.1144 6.55333 23.6931 7.56265C22.9877 9.35596 21.0064 13.0439 19.5211 14.3492C19.4758 12.4999 19.5065 11.0879 19.5305 10.0386C19.5785 7.99198 19.7331 6 17.6091 6H12.4519C11.1212 6 9.84789 7.45332 11.2265 9.17863C12.4319 10.6906 11.6599 11.5333 11.9199 15.7279C10.9065 14.6412 9.1039 11.7066 7.82925 7.95598C7.47192 6.94132 6.93059 6.00133 5.40661 6.00133H2.12531C0.794658 6.00133 0 6.72666 0 7.94131C0 10.6693 6.0386 25.9998 16.1932 25.9998ZM5.40661 8.00131C5.69594 8.00131 5.72527 8.00131 5.93993 8.61064C7.24525 12.4546 10.1732 18.1425 12.3119 18.1425C13.9185 18.1425 13.9185 16.4959 13.9185 15.8759L13.9172 10.9399C13.8292 9.30663 13.2345 8.49331 12.8439 7.99998L17.5211 8.00531C17.5238 8.02798 17.4945 13.4653 17.5345 14.7826C17.5345 16.6532 19.0198 17.7252 21.3384 15.3786C23.7851 12.6173 25.4771 8.48931 25.5451 8.32131C25.6451 8.08131 25.7317 7.99998 26.0464 7.99998H29.3277H29.341C29.3397 8.00398 29.3397 8.00798 29.3383 8.01198C29.0383 9.41196 26.077 13.8732 25.0864 15.2586C25.0704 15.2799 25.0557 15.3026 25.0411 15.3252C24.6051 16.0372 24.2504 16.8239 25.1011 17.9305H25.1024C25.1797 18.0239 25.3811 18.2425 25.6744 18.5465C26.5864 19.4879 29.7143 22.7065 29.9917 23.9865C29.8077 24.0158 29.6077 23.9945 26.5077 24.0011C25.8477 24.0011 25.3317 23.0145 23.3624 21.0278C21.5918 19.3052 20.4424 18.6012 19.3958 18.6012C17.3638 18.6012 17.5118 20.2505 17.5305 22.2452C17.5371 24.4078 17.5238 23.7238 17.5385 23.8598C17.4198 23.9065 17.0798 23.9998 16.1932 23.9998C7.73325 23.9998 2.22398 10.5719 2.01198 8.00531C2.08531 7.99864 3.09463 8.00264 5.40661 8.00131Z" fill="white"/>
</svg>
